<?xml version="1.0" encoding="UTF-8" standalone="no"?><!DOCTYPE svg PUBLIC "-//W3C//DTD SVG 1.1//EN" "http://www.w3.org/Graphics/SVG/1.1/DTD/svg11.dtd"><svg width="100%" height="100%" viewBox="0 0 16076 2091" version="1.1" xmlns="http://www.w3.org/2000/svg" xmlns:xlink="http://www.w3.org/1999/xlink" xml:space="preserve" xmlns:serif="http://www.serif.com/" style="fill-rule:evenodd;clip-rule:evenodd;stroke-linejoin:round;stroke-miterlimit:2;"><rect id="Artboard1" x="-0" y="0" width="16075.4" height="2090.07" style="fill:none;"/><clipPath id="_clip1"><rect x="-0" y="0" width="16075.4" height="2090.07"/></clipPath><g clip-path="url(#_clip1)"><g><g><path d="M3963.43,941.107c-43.138,22.902 -90.97,35.976 -139.286,43.116c-134.477,19.872 -276.87,-7.153 -390.203,-82.219c-113.332,-75.065 -195.007,-199.094 -210.952,-334.093c-22.416,-189.779 92.345,-384.343 263.965,-468.399c171.619,-84.056 387.646,-59.503 544.236,50.033c80.24,56.129 146.609,133.9 181.764,225.295c35.155,91.396 37.466,196.529 -1.178,286.505c-20.009,46.584 -50.13,88.074 -81.726,127.725c-47.195,59.228 -99.73,116.525 -166.62,152.037m-381.279,-795.277c-43.121,20.522 -78.355,54.876 -107.332,92.833c-92.006,120.518 -124.434,288.315 -69.733,429.727c54.701,141.412 200.869,246.452 352.317,239.159c151.447,-7.293 291.606,-136.382 298.299,-287.857c1.752,-39.646 -4.765,-79.32 -2.893,-118.961c1.584,-33.548 9.167,-66.833 7.532,-100.378c-2.726,-55.899 -31.114,-108.003 -68.237,-149.882c-74.308,-83.829 -186.74,-132.454 -298.714,-129.19c-38.231,1.114 -76.704,8.114 -111.239,24.549m553.138,484.64c9.961,-56.043 11.67,-113.545 5.054,-170.08c-1.979,-16.918 -4.961,-34.42 -14.772,-48.344c-29.894,62.036 -32.899,136.477 -8.104,200.721c3.222,8.348 8.875,17.884 17.822,17.703m-819.757,-288.952c-5.113,-4.912 -13.144,2.009 -15.622,8.653c-8.231,22.073 0.617,49.265 20.262,62.267c4.118,-21.528 3.449,-43.957 -1.943,-65.202c-0.525,-2.071 -1.157,-4.237 -2.697,-5.718m4.683,276.988c-5.964,-1.886 -9.472,6.538 -9.997,12.771c-1.57,18.607 -2.544,39.284 9.212,53.792c15.338,-16.381 17.722,-43.422 5.486,-62.234c-1.185,-1.823 -2.628,-3.673 -4.701,-4.329l-0,-0Z" style="fill:#413017;fill-rule:nonzero;"/><path d="M15544.8,52.685c49.639,1.371 99.5,2.764 148.38,11.521c136.97,24.538 264.382,112.42 323.18,238.537c20.253,43.442 32.3,90.326 40.161,137.609c16.686,100.378 14.019,207.176 -29.731,299.047c-58.15,122.108 -184.883,203.452 -318.22,226.103c-54.309,9.225 -109.673,9.729 -164.758,10.209c-135.146,1.177 -270.292,2.354 -405.438,3.531c-14.642,0.128 -32.796,-1.997 -37.996,-15.686c-6.36,-16.744 13.882,-31.906 31.66,-34.094c17.778,-2.188 37.66,0.89 52.019,-9.818c15.645,-11.666 17.297,-34.071 17.554,-53.584c2.854,-216.741 5.708,-433.481 8.562,-650.221c0.445,-33.797 -0.544,-71.411 -24.064,-95.685c-31.129,-32.13 -89.658,-27.511 -115.913,-63.733c21.35,-15.559 49.926,-15.466 76.335,-14.736c132.756,3.667 265.512,7.333 398.269,11m178.07,105.138c-96.754,-42.73 -205.522,-57.849 -310.263,-43.126c-18.265,2.567 -38.305,7.186 -48.854,22.316c-8.066,11.569 -8.596,26.608 -8.81,40.71c-3.317,218.195 -0.21,436.488 9.314,654.5c0.599,13.709 1.596,28.446 10.223,39.116c7.879,9.745 20.525,14.058 32.569,17.519c109.629,31.508 232.875,29.293 332.119,-26.94c99.243,-56.233 167.261,-172.935 147.06,-285.199c-14.62,-81.249 24.066,-165.915 5.383,-246.328c-18.887,-81.293 -92.395,-138.852 -168.741,-172.568m-452.264,-40.039c-17.008,-1.293 -22.991,21.955 -22.852,39.011c1.992,245.131 5.109,490.253 9.351,735.356c0.3,17.314 11.593,41.769 26.779,33.446c5.241,-42.057 4.224,-84.612 3.199,-126.982c-5.493,-226.944 -10.985,-453.887 -16.477,-680.831m691.558,281.931c-12.116,6.307 -16.031,21.496 -18.199,34.982c-12.282,76.402 -8.776,155.307 10.232,230.319c6.881,-1.152 8.491,-10.191 8.477,-17.168c-0.17,-82.711 -0.34,-165.422 -0.51,-248.133Z" style="fill:#413017;fill-rule:nonzero;"/><path d="M4276.8,52.79c-2.184,-16.008 21.07,-20.849 37.117,-18.969c71.518,8.378 143.036,16.756 214.555,25.134c34.567,4.049 73.068,10.258 93.978,38.08c160.123,213.053 333.305,416.288 518.252,608.187c18.188,-1.909 23.244,-25.716 23.579,-44c2.535,-138.331 5.071,-276.662 7.607,-414.993c0.598,-32.643 0.568,-67.563 -17.487,-94.766c-25.661,-38.663 -78.516,-48.652 -111.904,-80.878c-3.268,-3.153 -6.55,-7.072 -6.246,-11.603c0.557,-8.286 11.413,-10.796 19.715,-11.001c94.405,-2.324 188.881,-1.795 283.255,1.586c10.89,0.39 22.836,1.248 30.679,8.812c7.843,7.565 6.586,24.139 -4.107,26.235c-28.84,5.654 -58.376,11.572 -83.431,26.933c-25.054,15.362 -45.094,42.399 -43.67,71.754c12.192,251.323 -1.048,503.107 -14.286,754.377c-0.678,12.87 -1.651,26.588 -9.406,36.881c-7.755,10.293 -24.934,14.425 -33.401,4.709c-205.495,-235.817 -410.99,-471.634 -616.485,-707.451c-6.916,-7.937 -18.468,-16.45 -26.646,-9.82c-4.679,3.794 -5.125,10.646 -5.192,16.669c-2.003,179.864 -4.006,359.728 -6.008,539.593c-0.455,40.868 3.198,89.468 38.413,110.212c20.234,11.92 45.233,10.617 68.436,14.234c23.204,3.617 48.95,16.566 52.158,39.83c-112.936,1.099 -225.92,-2.645 -338.536,-11.219c-10.576,-0.805 -24.078,-4.378 -24.956,-14.949c-0.547,-6.575 4.645,-12.261 10.223,-15.786c31.956,-20.194 86.321,-1.727 103.381,-35.461c3.587,-7.093 4.414,-15.215 5.161,-23.128c19.219,-203.668 24.319,-408.667 15.25,-613.038c-1.987,-44.765 -6.085,-93.164 -35.713,-126.78c-33.479,-37.984 -89.374,-45.741 -131.577,-73.715c-5.785,-3.835 -11.769,-8.791 -12.708,-15.669l0,-0Z" style="fill:#413017;fill-rule:nonzero;"/><path d="M564.531,494.152c-19.891,17.174 -99.182,223.909 -103.714,234.401c-11.481,26.577 -20.456,57.833 -28.3,83.457c-3.436,11.225 -2.331,23.26 -3.184,34.968c-3.049,41.82 -30.564,77.264 -56.914,109.88c-2.619,3.241 -5.556,6.686 -9.628,7.568c-7.04,1.525 -12.964,-5.142 -16.851,-11.206c-46.042,-71.837 -41.714,-157.409 -37.82,-238.289c-20.013,-71.287 -10.394,-51.367 -46.963,-111.8c-5.442,-8.992 -12.716,-23.37 -24.139,-44.679c-8.177,-15.253 -17.388,-29.387 -18.62,-46.648c-1.988,-27.842 -7.537,-21.065 -0.193,-70.556c-30.986,-36.048 -41.582,-48.588 -43.614,-83.177c-2.031,-34.59 -6.805,-34.789 0.023,-75.47c-32.67,-21.726 -22.994,-11.759 -34.906,-34.488c-11.913,-22.729 -9.62,-50.344 -18.411,-74.453c-15.195,-41.667 -59.156,-64.298 -99.563,-82.583c-14.25,-6.449 -12.27,-29.392 -0.018,-39.116c12.252,-9.723 29.26,-9.994 44.9,-9.821c108.444,1.201 216.887,2.401 325.33,3.601c12.199,0.135 25.606,0.725 34.584,8.983c8.979,8.259 7.866,26.918 -4.089,29.344c-33.936,6.888 -67.871,13.775 -101.807,20.663c-12.194,2.475 -24.991,5.239 -34.345,13.445c-18.932,16.61 -15.486,46.474 -10.357,71.131c29.746,143.013 62.358,285.431 97.808,427.138c5.445,21.769 14.98,47.5 37.05,51.554c84.594,-185.106 158.666,-375.021 221.739,-568.522c7.04,-21.596 20.972,-47.979 43.463,-44.795c16.56,2.345 25.728,19.957 32.199,35.38c75.659,180.324 151.319,360.648 226.978,540.972c8.08,19.259 24.172,42.46 43.918,35.658c12.078,-4.16 17.534,-17.838 21.488,-29.985c52.98,-162.779 97.836,-328.202 134.346,-495.447c6.832,-31.298 -31.022,-53.766 -62.913,-56.802c-31.891,-3.036 -68.251,0.758 -91.602,-21.173c4.854,-18.551 28.804,-22.937 47.971,-23.511c77.497,-2.32 155.096,-1.252 232.5,3.199c31.327,1.801 65.091,5.15 88.556,25.982c-14.837,31.58 -62.594,23.424 -92.711,41.041c-23.43,13.706 -33.641,41.717 -41.944,67.561c-29.847,92.898 -57.402,186.533 -82.634,280.789c-11.246,42.014 -24.182,83.576 -38.766,124.551c-17.593,49.43 -37.576,97.989 -54.892,147.517c-27.164,77.694 -47.721,157.696 -61.377,238.86c-2.746,16.326 -28.46,7.247 -38.057,-6.242c-35.315,-49.637 -29.881,-94.314 -50.977,-158.875c-30.753,-94.115 -30.305,-73.179 -36.666,-124.611c-1.412,-11.42 -17.455,-66.552 -24.607,-88.683c-18.789,-35.217 -34.937,-89.975 -43.918,-110.274c-35.318,-57.249 -57.791,-159.984 -107.638,-153.813c-11.037,1.366 -22.31,-1.046 -31.74,4.848c-52.333,32.707 -32.265,122.197 -78.975,162.528Z" style="fill:#413017;fill-rule:nonzero;"/><path d="M13649.9,568.755c-7.627,0.071 -15.606,0.228 -22.308,3.87c-15.16,8.238 -16.544,29.081 -15.99,46.326c1.979,61.684 3.958,123.368 5.937,185.053c1.376,42.911 8.38,94.668 47.655,112.01c17.244,7.614 36.886,6.301 55.735,6.486c18.849,0.186 39.266,2.699 52.876,15.74c13.611,13.042 14.583,39.787 -2.281,48.209c-6.22,3.106 -13.459,3.192 -20.411,3.214c-119.497,0.371 -238.993,0.742 -358.49,1.114c-8.859,0.027 -18.563,-0.242 -25.266,-6.034c-11.343,-9.801 -6.471,-29.464 4.79,-39.359c11.261,-9.895 26.517,-13.544 40.074,-19.943c65.463,-30.902 79.856,-116.137 84.375,-188.386c11.915,-190.481 14.388,-381.551 7.409,-572.276c-0.355,-9.687 -0.821,-19.725 -5.226,-28.361c-7.804,-15.299 -25.56,-22.186 -41.792,-27.796c-32.103,-11.094 -64.206,-22.188 -96.309,-33.283c-11.238,-3.884 -10.278,-21.897 -0.807,-29.086c9.472,-7.189 22.504,-6.676 34.365,-5.837c97.49,6.899 194.981,13.797 292.471,20.695c79.174,5.603 161.46,12.122 230.188,51.825c94.685,54.699 147.694,180.194 105.671,281.146c-13.199,31.705 -34.357,59.563 -58.162,84.317c-24.766,25.754 -52.623,48.535 -82.78,67.697c119.634,61.112 151.783,217.064 244.227,314.537c45.101,47.554 105.245,80.626 169.56,93.238c-67.879,58.847 -176.24,46.108 -250.318,-4.716c-74.077,-50.824 -121.883,-130.833 -167.371,-208.302c-22.735,-38.719 -45.469,-77.437 -68.204,-116.156c-29.989,-51.073 -100.395,-56.491 -159.618,-55.942m38.831,-447.561c-13.274,-1.048 -27.252,-1.4 -39.186,4.507c-26.285,13.013 -30.323,48.163 -30.877,77.488c-1.626,85.953 -3.251,171.905 -4.876,257.858c-0.307,16.24 1.843,36.4 16.966,42.326c66.916,26.221 146.868,16.04 205.077,-26.115c18.863,-13.661 35.808,-30.863 45.32,-52.122c9.513,-21.259 10.754,-46.986 -0.428,-67.417c-12.539,-22.91 -1.671,-50.875 0.286,-76.918c3.474,-46.22 -23.64,-91.094 -61.398,-117.976c-37.758,-26.883 -84.678,-37.983 -130.884,-41.631m278.458,662.712c-40.136,-39.122 -70.805,-87.888 -88.681,-141.009c-1.66,-4.934 -3.786,-10.528 -8.676,-12.316c-6.355,-2.322 -13.195,3.991 -14.067,10.701c-0.871,6.709 2.282,13.217 5.379,19.233c34.474,66.959 73.044,131.808 115.424,194.064c14.912,-1.815 22.147,-20.95 17.712,-35.303c-4.435,-14.353 -16.334,-24.885 -27.091,-35.37m-18.581,-414.202c5.103,-31.814 4.167,-64.586 -2.743,-96.057c-2.857,-0.704 -5.714,-1.407 -8.571,-2.111c-10.647,33.469 -16.121,76.24 11.314,98.168l-0,-0Z" style="fill:#413017;fill-rule:nonzero;"/><path d="M12721.8,967.416c-95.814,-8.062 -190.348,-40.672 -266.905,-98.847c-78.816,-59.892 -137.026,-146.402 -162.814,-241.974c-9.165,-33.962 -14.362,-68.992 -25.431,-102.382c-7.753,-23.386 5.138,-47.899 13.987,-70.892c14.533,-37.76 18.542,-78.686 29.665,-117.587c45.875,-160.427 209.596,-264.922 374.583,-289.83c119.824,-18.091 246.037,-1.078 352.966,55.941c106.929,57.02 192.976,155.231 227.41,271.418c44.876,151.419 -3.355,323.947 -112.619,437.978c-109.265,114.031 -273.468,169.417 -430.842,156.175m-262.021,-619.367c-46.036,140.271 -36.687,303.659 48.548,424.201c85.234,120.542 253.311,184.289 389.641,127.638c87.209,-36.238 151.317,-114.032 193.823,-198.363c12.658,-25.114 23.907,-51.769 25.098,-79.867c1.067,-25.153 -5.984,-49.867 -8.845,-74.88c-5.099,-44.563 3.142,-89.56 2.158,-134.404c-2.947,-134.32 -97.608,-261.808 -225.336,-303.476c-127.729,-41.669 -279.359,5.471 -360.947,112.214c-28.926,37.843 -49.287,81.681 -64.14,126.937m728.383,17.131c-39.982,59.093 -28.714,137.586 -15.861,207.767c1.965,10.735 4.45,22.388 12.866,29.336c27.56,-75.691 28.635,-160.739 2.995,-237.103m-843.086,-25.274c-8.842,6.114 -4.371,19.846 0.938,29.193c6.499,11.444 12.999,22.888 19.498,34.331c9.08,-14.688 10.748,-33.711 4.364,-49.755c-4.029,-10.127 -15.836,-19.968 -24.8,-13.769m4.598,274.545c-4.956,14.685 -8.412,29.875 -10.296,45.259c-1.13,9.222 2.595,22.583 11.659,20.543c11.329,-22.315 15.875,-48.017 12.888,-72.863c-2.504,-6.521 -12.017,0.443 -14.251,7.061l0,0Z" style="fill:#413017;fill-rule:nonzero;"/><path d="M10257.4,882.474c13.785,16.35 28.122,33.142 47.258,42.689c35.82,17.871 87.628,10.941 107.717,45.565c-17.15,12.63 -40.064,13.154 -61.363,13.174c-101.802,0.093 -203.605,0.186 -305.407,0.279c-14.573,0.014 -31.325,-0.989 -40.186,-12.558c-8.861,-11.57 3.6,-33.934 16.174,-26.567c18.709,10.962 42.983,-10.07 43.679,-31.742c0.696,-21.673 -13.214,-40.764 -26.465,-57.927c-79.766,-103.314 -159.532,-206.629 -239.297,-309.943c-11.756,-15.225 -26.625,-31.978 -45.839,-31.066c-30.27,1.438 -39.293,41.497 -39.587,71.801c-0.776,80.137 -1.553,160.275 -2.329,240.413c-0.357,36.835 2.313,79.844 32.664,100.719c35.761,24.597 96.902,7.832 117.624,45.969c-131.275,11.883 -264.026,7.352 -394.185,-13.452c-1.02,-32.316 57.944,-21.316 77.226,-47.269c6.922,-9.318 7.156,-21.832 7.108,-33.44c-0.973,-234.002 -1.947,-468.004 -2.92,-702.006c-0.066,-15.797 -0.245,-32.14 -6.765,-46.529c-14.323,-31.61 -52.893,-42.784 -86.995,-49.216c-19.357,-3.651 -44.918,-19.842 -33.67,-36.013c5.353,-7.697 16.233,-8.499 25.608,-8.538c133.918,-0.547 267.851,2.317 401.623,8.588c17.303,0.811 23.233,26.856 12.019,40.058c-11.213,13.201 -30.649,15.5 -47.936,14.412c-17.287,-1.089 -35.089,-4.541 -51.604,0.681c-40.807,12.903 -48.481,66.401 -48.754,109.198c-0.373,58.762 -0.747,117.524 -1.121,176.286c-0.13,20.387 7.085,48.172 27.408,46.556c7.913,-0.63 14.456,-6.155 20.393,-11.424c95.317,-84.582 188.699,-171.344 280.05,-260.195c14.712,-14.31 30.532,-35.32 20.439,-53.19c-14.961,-26.49 -67.258,-9.839 -78.362,-38.163c0.901,-11.274 15.565,-14.732 26.866,-15.178c89.29,-3.528 178.581,-7.056 267.871,-10.584c16.239,-0.642 34.468,-0.562 46.085,10.803c11.618,11.364 6.105,37.283 -10.101,36.073c-87.829,-6.553 -168.011,49.636 -229.637,112.557c-61.626,62.921 -114.957,136.439 -190.511,181.699c-25.509,15.28 -8.369,54.393 10.798,77.127c118.141,140.117 236.283,280.235 354.424,420.353m-654.743,-751.11c-3.355,22.182 -3.956,44.678 -4.481,67.106c-5.276,225.116 -3.639,450.395 4.909,675.41c0.572,15.065 8.71,35.861 23.016,31.104c9.727,-3.236 11.366,-16.081 11.268,-26.332c-2.38,-249.657 -4.76,-499.314 -7.14,-748.971c-0.07,-7.291 -1.149,-16.185 -7.86,-19.034c-10.191,-4.326 -18.057,9.771 -19.712,20.717m466.558,698.206c2.695,-21.305 -17.649,-37.323 -33.294,-52.034c-21.034,-19.777 -36.59,-44.522 -52.866,-68.37c-48.605,-71.214 -105.585,-136.706 -169.391,-194.695c-3.587,19.288 10.934,36.748 24.202,51.199c87.647,95.46 165.211,200.172 230.985,311.833c5.121,8.694 11.592,18.4 21.619,19.513c8.371,-9.425 2.414,-24.384 -5.302,-34.353c-7.716,-9.969 -17.534,-20.587 -15.953,-33.093m87.377,59.196c-17.387,-16.366 -34.774,-32.731 -52.161,-49.096c-4.085,-3.846 -13.092,-5.922 -13.154,-0.312c9.301,14.545 15.819,30.907 26.722,44.294c10.902,13.386 28.127,23.702 44.948,19.814c2.353,-5.213 -2.19,-10.78 -6.355,-14.7l0,-0Z" style="fill:#413017;fill-rule:nonzero;"/><path d="M8972.85,55.002c126.194,16.586 246.772,80.958 325.378,181.065c78.606,100.106 112.53,235.669 83.656,359.63c-9.97,42.805 -26.998,83.832 -48.828,121.978c-77.57,135.545 -218.835,232.774 -373.143,256.825c-154.309,24.051 -318.463,-25.576 -433.604,-131.084c-35.568,-32.593 -66.725,-70.34 -89.448,-112.896c-34.207,-64.064 -48.298,-136.659 -61.26,-208.117c-1.438,-7.925 -2.796,-16.457 0.634,-23.744c18.926,-40.213 23.404,-85.46 34.607,-128.469c34.754,-133.43 140.091,-246.279 270.815,-290.128c42.742,-14.337 87.555,-21.652 132.431,-25.955c52.793,-5.062 106.179,-6.016 158.762,0.895m-404.961,301.909c-45.504,139.152 -36.469,300.915 47.203,421.052c83.672,120.137 248.75,185.44 385.238,132.48c88.399,-34.3 154.816,-111.096 197.424,-195.804c20.324,-40.405 36.26,-87.049 23.016,-130.294c-14.987,-48.935 -2.552,-101.482 -1.959,-152.657c1.577,-136.07 -91.274,-268.113 -219.856,-312.657c-128.583,-44.544 -283.219,1.763 -366.154,109.649c-29.34,38.166 -49.95,82.475 -64.912,128.231m728.774,16.624c-40.201,58.958 -28.912,137.542 -16.009,207.725c1.98,10.772 4.493,22.478 12.983,29.396c27.54,-75.701 28.625,-160.742 3.026,-237.121m-844.459,-24.174c-5.856,5.705 -3.133,15.46 -0.022,23.021c5.695,13.838 11.839,28.29 23.521,37.642c7.277,-14.515 8.251,-32.058 2.627,-47.289c-4.04,-10.938 -17.775,-21.51 -26.126,-13.374m5.81,273.424c-4.956,14.684 -8.412,29.875 -10.297,45.258c-1.129,9.222 2.595,22.584 11.659,20.543c11.329,-22.314 15.875,-48.017 12.889,-72.863c-2.504,-6.521 -12.018,0.444 -14.251,7.062l-0,-0Z" style="fill:#413017;fill-rule:nonzero;"/><path d="M7196.39,855.382c-35.081,50.743 -92.865,82.198 -152.609,97.569c-59.744,15.371 -122.121,16.311 -183.804,17.161c-119.374,1.647 -238.747,3.293 -358.12,4.94c-3.052,-14.583 11.002,-27.422 25.157,-32.069c14.155,-4.647 29.834,-4.786 42.946,-11.858c28.367,-15.299 31.885,-53.861 31.848,-86.09c-0.244,-209.277 -0.489,-418.554 -0.733,-627.831c-0.058,-49.723 -10.083,-112.993 -58.389,-124.777c-18.907,-4.612 -39.921,0.627 -57.527,-7.664c-17.606,-8.29 -20.527,-41.899 -1.069,-42.217c131.81,-2.152 263.731,2.57 395.05,14.138c57.199,5.039 116.059,11.92 166.21,39.886c71.368,39.799 116.228,122.796 110.426,204.305c-5.802,81.509 -61.966,157.315 -138.251,186.603c77.351,20.24 148.639,69.553 186.413,140.022c37.773,70.47 37.921,162.114 -7.548,227.882m-369.647,50.649c47.501,0.4 95.569,0.738 141.747,-10.401c46.179,-11.139 91.014,-35.122 117.789,-74.36c17.298,-25.35 -19.627,-57.598 -13.595,-87.688c13.66,-68.147 -26.48,-139.285 -84.887,-176.957c-58.407,-37.671 -131.269,-46.574 -200.601,-41.714c-5.61,0.393 -11.509,0.971 -16.122,4.188c-8.302,5.789 -9.285,17.479 -9.475,27.598c-1.988,106.094 -3.976,212.188 -5.963,318.282c-0.287,15.317 11.825,28.666 25.913,34.684c14.088,6.018 29.875,6.24 45.194,6.368m222.623,-709.121c-14.079,5.923 -12.732,32.497 -27.956,33.748c-6.261,-15.839 -12.523,-31.678 -18.785,-47.517c-1.994,-5.045 -4.058,-10.204 -7.666,-14.254c-6.144,-6.897 -15.878,-9.618 -22.338,-16.219c-45.52,-46.512 -119.755,-62.208 -180.206,-38.103c-11.719,4.673 -23.548,11.307 -29.497,22.433c-4.475,8.37 -5.043,18.205 -5.516,27.684c-3.606,72.233 -7.212,144.466 -10.818,216.699c-1.459,29.239 -0.637,63.577 22.99,80.864c15.222,11.138 35.651,11.485 54.445,9.889c47.274,-4.013 93.718,-17.563 135.733,-39.599c15.42,-8.088 31.159,-18.329 37.868,-34.396c4.111,-9.845 4.508,-21.25 10.442,-30.116c5.933,-8.866 21.585,-12.309 26.244,-2.712c4.138,8.525 17.606,7.918 24.221,1.132c6.614,-6.785 8.202,-16.871 9.464,-26.263c-10.144,-11.095 -29.239,-7.623 -41.226,-16.697c-13.796,-10.442 -11.575,-32.648 -1.836,-46.949c9.739,-14.3 24.807,-24.08 35.899,-37.359c6.464,-7.738 11.713,-17.53 10.216,-27.501c-1.497,-9.971 -12.384,-18.674 -21.678,-14.764m-374.956,722.617c12.98,-12.598 14.405,-32.611 14.956,-50.691c7.481,-245.616 3.714,-491.574 -11.285,-736.846c-0.186,-3.043 -0.422,-6.238 -2.085,-8.793c-4.129,-6.346 -14.749,-4.507 -19.3,1.543c-4.551,6.05 -4.774,14.206 -4.806,21.776c-1.012,241.303 2.399,482.623 10.229,723.801c0.559,17.207 1.596,35.718 12.291,49.21m461.976,-262.681c-26.312,39.271 -23.645,95.638 6.257,132.249c24.746,-39.867 22.143,-94.897 -6.257,-132.249l-0,0Z" style="fill:#413017;fill-rule:nonzero;"/><path d="M8297.01,395.093c39.145,143.754 -4.397,304.93 -103.688,416.011c-99.291,111.08 -249.619,171.853 -398.604,170.882c-104.93,-0.683 -210.329,-31.068 -296.307,-91.223c-85.978,-60.154 -151.487,-150.601 -176.319,-252.553c-8.199,-33.658 -12.189,-68.758 -26.726,-100.203c-10.075,-21.793 4.921,-46.04 14.376,-68.109c13.61,-31.769 15.869,-67.05 23.336,-100.795c18.895,-85.396 72.302,-161.29 141.785,-214.409c69.484,-53.118 154.213,-84.333 240.733,-97.134c121.239,-17.938 248.933,0.27 356.353,59.276c107.42,59.006 192.86,160.004 225.061,278.257m-804.857,309.295c36.924,89.713 109.493,164.177 198.225,203.401c36.215,16.009 75.195,26.359 114.768,27.701c131.848,4.474 249.993,-92.885 310.737,-209.993c20.77,-40.042 36.673,-85.791 26.675,-129.777c-13.246,-58.279 0.101,-119.093 -2.816,-178.787c-6.674,-136.541 -108.061,-263.252 -239.812,-299.712c-131.752,-36.461 -283.857,20.101 -359.776,133.785c-27.076,40.544 -44.796,86.708 -57.503,133.777c-28.282,104.768 -31.801,219.254 9.502,319.605m725.345,-326.687c-40.201,58.958 -28.911,137.543 -16.009,207.726c1.98,10.771 4.493,22.478 12.983,29.396c27.54,-75.702 28.626,-160.742 3.026,-237.122m-834.989,-28.126c-6.623,-0.74 -12.288,5.759 -13.081,12.376c-0.792,6.617 1.929,13.104 4.745,19.144c5.681,12.185 12.266,24.411 22.646,32.956c8.444,-17.425 7.257,-39.159 -3.034,-55.56c-2.637,-4.204 -6.344,-8.364 -11.276,-8.916m-14.433,331.074c-0.114,3.402 0.032,7.21 2.455,9.601c6.259,6.177 15.238,-4.284 17.288,-12.835c4.506,-18.801 6.493,-38.204 5.89,-57.528c-3.156,-6.449 -12.589,0.659 -15.095,7.388c-6.357,17.068 -9.931,35.17 -10.538,53.374Z" style="fill:#413017;fill-rule:nonzero;"/><path d="M5960.98,231.948c1.787,17.211 -1.523,41.001 -18.783,42.234c-30.46,-14.047 -27.632,-57.289 -39.289,-88.741c-19.686,-53.114 -84.567,-73.087 -141.162,-75.443c-44.092,-1.836 -89.748,3.049 -128.53,24.106c-38.782,21.058 -69.479,60.701 -70.66,104.816c-1.41,52.689 37.347,97.681 78.398,130.739c56.837,45.77 122.127,79.83 181.333,122.492c59.206,42.661 114.094,96.865 136.709,166.247c36.925,113.285 -27.283,244.283 -130.977,302.972c-103.694,58.689 -235.66,52.337 -344.566,4.002c-14.644,-6.499 -29.764,-14.41 -37.949,-28.182c-6.853,-11.532 -7.826,-25.503 -8.629,-38.893c-2.55,-42.57 -5.1,-85.139 -7.65,-127.709c-0.258,-4.301 -0.183,-9.362 3.279,-11.927c2.91,-2.156 7.007,-1.537 10.415,-0.31c50.728,18.268 17.067,113.666 64.471,139.357c9.283,5.031 20.127,6.106 30.642,7.071c83.459,7.66 173.863,12.884 244.505,-32.215c27.72,-17.698 51.838,-44.744 55.995,-77.369c5.652,-44.363 -25.838,-84.19 -57.015,-116.254c-60.432,-62.15 -127.347,-117.992 -199.307,-166.328c-32.651,-21.932 -66.798,-42.71 -93.074,-71.979c-67.993,-75.74 -66.438,-199.577 -7.584,-282.619c58.853,-83.041 164.792,-125.463 266.504,-121.681c50.636,1.882 100.395,13.978 150.954,17.343c12.462,0.829 26.078,1.562 35.35,9.93c9.569,8.636 11.498,22.686 12.829,35.507c4.597,44.278 9.194,88.556 13.791,132.834m-403.126,235.754c88.329,54.685 169.163,121.458 239.541,197.874c18.841,20.457 43.536,43.723 70.25,35.988c-28.602,-80.534 -101.546,-135.764 -172.044,-184.073c-70.498,-48.309 -145.624,-98.232 -183.157,-175.011c-25.453,10.838 -30.114,47.455 -16.694,71.646c13.421,24.19 38.583,39.014 62.104,53.576l0,-0Z" style="fill:#413017;fill-rule:nonzero;"/><path d="M2222.84,892.985c80.877,-0.843 161.753,-1.686 242.63,-2.529c19.618,-0.204 42.977,-2.531 52.353,-19.765c8.352,-15.352 0.822,-34.577 4.377,-51.689c3.555,-17.112 34.214,-25.514 34.777,-8.046c1.332,41.266 2.663,82.532 3.994,123.798c0.312,9.65 0.515,19.798 -3.971,28.348c-9.354,17.83 -33.406,20.348 -53.541,20.526c-206.108,1.823 -412.287,-4.472 -617.9,-18.865c-5.581,-12.506 5.907,-26.603 18.672,-31.564c12.765,-4.961 27.14,-4.733 39.746,-10.084c33.39,-14.174 39.59,-57.995 40.881,-94.246c6.517,-183.008 13.034,-366.017 19.551,-549.025c1.435,-40.295 2.674,-81.851 -11.643,-119.544c-20.13,-52.996 -72.196,-92.359 -128.672,-97.28c-8.032,-0.7 -9.63,-13.243 -3.825,-18.839c5.804,-5.596 14.729,-5.965 22.791,-6.003c145.662,-0.672 291.323,-1.343 436.984,-2.015c-47.166,40.706 -123.358,38.758 -163.644,86.284c-27.278,32.18 -29.942,77.885 -31.03,120.058c-4.841,187.746 -4.096,375.636 2.234,563.339c0.793,23.513 2.549,49.235 18.626,66.412c18.64,19.917 49.333,21.013 76.61,20.729l0,-0Z" style="fill:#413017;fill-rule:nonzero;"/><path d="M3128.55,74.662c11.104,56.946 9.955,116.249 -3.345,172.722c-32.722,-14.322 -33.991,-59.446 -50.964,-90.875c-30.551,-56.573 -109.675,-62.717 -172.58,-49.423c-53.585,11.325 -110.759,36.511 -131.267,87.296c-15.226,37.707 -5.963,81.986 15.592,116.47c21.554,34.483 53.994,60.683 87.343,83.954c103.799,72.435 231.028,133.103 274.976,251.803c28.27,76.352 12.755,167.264 -39.238,229.919c-48.588,58.553 -123.821,90.17 -199.286,99.881c-75.466,9.712 -151.995,-0.383 -227.049,-12.886c-34.368,-5.726 -78.672,-25.958 -70.667,-59.868c6.345,-26.871 12.687,-55.061 5.639,-81.757c-7.047,-26.696 -32.276,-50.779 -59.547,-46.459c-4.969,-27.859 24.124,-53.613 52.379,-52.033c28.255,1.58 52.04,23.727 63.915,49.414c11.874,25.687 14.099,54.624 16.146,82.849c2.948,40.656 55.4,54.336 96.146,55.504c89.83,2.574 195.143,-11.907 239.927,-89.821c8.688,-15.114 14.506,-32.302 13.856,-49.723c-0.584,-15.686 -6.334,-30.735 -13.309,-44.797c-40.666,-81.988 -120.933,-135.345 -194.886,-189.26c-73.952,-53.916 -149.178,-118.657 -170.321,-207.701c-19.431,-81.832 14.201,-171.997 77.801,-227.035c63.6,-55.038 153.356,-75.717 236.311,-61.843c44.071,7.371 89.173,23.767 132.191,11.685c10.841,-3.045 18.082,10.932 20.237,21.984m-81.304,610.386c-32.755,-66.14 -89.325,-117.072 -146.929,-163.216c-21.029,-16.846 -42.382,-33.289 -64.041,-49.319c-47.253,-34.971 -99.438,-72.843 -113.702,-129.872c-16.179,1.365 -25.306,21.337 -21.401,37.096c3.905,15.76 16.442,27.708 28.636,38.428c107.94,94.891 237.4,170.887 313.926,292.538c9.664,-2.426 7.932,-16.727 3.511,-25.655Z" style="fill:#413017;fill-rule:nonzero;"/><path d="M1650.17,833.278c0.351,35.074 3.838,76.13 33.422,94.973c19.487,12.411 44.288,10.822 67.324,12.58c23.036,1.758 49.248,10.213 57.158,31.92c-130.641,2.074 -261.32,1.788 -391.95,-0.857c-16.571,-0.335 -11.35,-29.281 4.305,-34.721c15.655,-5.441 33.923,-0.181 48.848,-7.387c21.514,-10.387 24.301,-39.362 24.112,-63.251c-1.889,-238.764 -3.779,-477.528 -5.669,-716.293c-0.096,-12.252 -0.299,-24.975 -5.658,-35.993c-15.573,-32.013 -60.24,-30.591 -95.105,-37.79c-4.679,-0.966 -9.679,-2.406 -12.549,-6.226c-8.907,-11.858 10.851,-24.156 25.579,-25.9c133.511,-15.812 268.531,-18.849 402.618,-9.058c18.949,1.384 44.047,10.165 41.338,28.971c-55.721,20.065 -124.909,12.738 -166.033,55.356c-32.512,33.691 -34.009,85.725 -33.542,132.543c1.934,193.711 3.868,387.422 5.802,581.133m-67.98,74.365c-14.943,-250.057 -14.539,-501.031 1.208,-751.038c1.143,-18.133 -7.826,-44.571 -24.787,-38.055c-9.569,3.676 -11.773,15.982 -12.49,26.208c-17.232,245.727 -17.893,492.614 -1.979,738.429c0.774,11.953 2.207,25.218 11.223,33.105c9.015,7.887 27.54,3.308 26.825,-8.649Z" style="fill:#413017;fill-rule:nonzero;"/><path d="M14603.3,882.886c21.427,25.099 58.899,26.923 91.9,26.807c55.024,-0.194 110.047,-0.388 165.071,-0.582c40.107,-0.141 90.916,-8.058 101.009,-46.875c9.067,-34.872 18.135,-69.744 27.202,-104.616c3.48,-13.382 15.881,-30.37 26.938,-22.067c5.012,3.763 5.682,10.897 5.902,17.161c1.555,44.278 2.189,88.588 1.902,132.893c-0.155,23.794 -1.648,50.228 -18.635,66.892c-17.025,16.702 -43.536,17.647 -67.386,17.568c-192.197,-0.638 -384.394,-1.276 -576.591,-1.914c-8.673,-0.029 -20.057,-2.359 -20.883,-10.993c-0.502,-5.25 3.64,-9.759 7.893,-12.88c21.117,-15.496 52.741,-16.782 67.26,-38.583c8.18,-12.283 8.524,-27.995 8.591,-42.753c1.03,-226.879 2.06,-453.759 3.091,-680.638c0.116,-25.647 -1.582,-55.188 -21.999,-70.709c-13.955,-10.607 -32.742,-11.341 -50.209,-12.807c-17.467,-1.466 -36.659,-5.102 -47.351,-18.992c-10.691,-13.891 -3.783,-40.048 13.745,-40.019c127.288,0.21 254.576,0.421 381.865,0.632c12.339,0.02 26.048,0.575 34.824,9.248c8.777,8.674 5.63,27.998 -6.704,28.352c-52.532,1.506 -116.177,10.157 -136.745,58.518c-6.86,16.131 -7.345,34.15 -7.703,51.675c-4.213,206.627 -4.776,413.33 -1.689,619.977c0.391,26.22 1.676,54.761 18.702,74.705m-99.505,29.28c8.279,-3.359 9.49,-14.382 9.395,-23.316c-2.703,-254.668 -5.407,-509.337 -8.11,-764.005c-0.041,-3.857 -0.176,-8.004 -2.491,-11.088c-9.075,-12.091 -24.062,8.853 -24.276,23.968c-3.525,248.417 -2.358,496.9 3.501,745.273c0.34,14.425 8.61,34.593 21.981,29.168l-0,0Z" style="fill:#413017;fill-rule:nonzero;"/><path d="M11489.8,494.152c-19.891,17.174 -99.181,223.909 -103.714,234.401c-11.481,26.577 -20.455,57.833 -28.299,83.457c-3.436,11.225 -2.331,23.26 -3.185,34.968c-3.048,41.82 -30.563,77.264 -56.914,109.88c-2.618,3.241 -5.556,6.686 -9.628,7.568c-7.04,1.525 -12.963,-5.142 -16.85,-11.206c-46.043,-71.837 -41.714,-157.409 -37.82,-238.289c-20.014,-71.287 -10.395,-51.367 -46.964,-111.8c-5.441,-8.992 -12.715,-23.37 -24.139,-44.679c-8.176,-15.253 -17.387,-29.387 -18.62,-46.648c-1.987,-27.842 -7.537,-21.065 -0.193,-70.556c-30.985,-36.048 -41.582,-48.588 -43.613,-83.177c-2.032,-34.59 -6.805,-34.789 0.022,-75.47c-32.67,-21.726 -22.994,-11.759 -34.906,-34.488c-11.912,-22.729 -9.619,-50.344 -18.411,-74.453c-15.195,-41.667 -59.156,-64.298 -99.562,-82.583c-14.25,-6.449 -12.27,-29.392 -0.019,-39.116c12.252,-9.723 29.26,-9.994 44.901,-9.821c108.443,1.201 216.886,2.401 325.33,3.601c12.198,0.135 25.605,0.725 34.584,8.983c8.978,8.259 7.866,26.918 -4.09,29.344c-33.935,6.888 -67.871,13.775 -101.806,20.663c-12.195,2.475 -24.992,5.239 -34.346,13.445c-18.931,16.61 -15.486,46.474 -10.357,71.131c29.747,143.013 62.358,285.431 97.808,427.138c5.446,21.769 14.98,47.5 37.05,51.554c84.595,-185.106 158.667,-375.021 221.74,-568.522c7.039,-21.596 20.972,-47.979 43.462,-44.795c16.561,2.345 25.728,19.957 32.199,35.38c75.66,180.324 151.319,360.648 226.978,540.972c8.081,19.259 24.172,42.46 43.919,35.658c12.078,-4.16 17.533,-17.838 21.487,-29.985c52.98,-162.779 97.837,-328.202 134.346,-495.447c6.833,-31.298 -31.022,-53.766 -62.913,-56.802c-31.89,-3.036 -68.251,0.758 -91.602,-21.173c4.855,-18.551 28.804,-22.937 47.971,-23.511c77.497,-2.32 155.096,-1.252 232.501,3.199c31.326,1.801 65.091,5.15 88.556,25.982c-14.838,31.58 -62.594,23.424 -92.712,41.041c-23.43,13.706 -33.641,41.717 -41.944,67.561c-29.846,92.898 -57.402,186.533 -82.633,280.789c-11.247,42.014 -24.183,83.576 -38.767,124.551c-17.593,49.43 -37.575,97.989 -54.892,147.517c-27.163,77.694 -47.72,157.696 -61.376,238.86c-2.747,16.326 -28.46,7.247 -38.057,-6.242c-35.316,-49.637 -29.882,-94.314 -50.977,-158.875c-30.753,-94.115 -30.306,-73.179 -36.666,-124.611c-1.413,-11.42 -17.456,-66.552 -24.608,-88.683c-18.789,-35.217 -34.937,-89.975 -43.918,-110.274c-35.317,-57.249 -57.79,-159.984 -107.638,-153.813c-11.036,1.366 -22.309,-1.046 -31.74,4.848c-52.332,32.707 -32.265,122.197 -78.975,162.528Z" style="fill:#413017;fill-rule:nonzero;"/></g><g><path d="M5603.27,1455.51c13.749,-25.557 44.029,-38.693 73.028,-39.809c28.999,-1.117 57.343,7.772 85,16.563c2.478,10.971 -9.267,20.314 -20.372,22.1c-11.104,1.786 -22.693,-0.743 -33.603,1.99c-21.992,5.509 -33.667,30.69 -33.636,53.362c0.031,22.671 8.459,44.404 12.272,66.752c8.556,50.159 -6.326,101.408 -3.9,152.233c2.427,50.825 33.274,108.441 84.121,110.359c2.906,17.928 -21.751,25.754 -39.904,26.317c-66.055,2.047 -132.112,4.018 -198.172,5.912c-3.492,-20.752 26.062,-27.627 43.785,-38.973c24.539,-15.71 29.357,-48.914 31.786,-77.949c4.807,-57.456 9.588,-115.63 0.038,-172.491c-46.489,77.594 -92.978,155.187 -139.467,232.78c-7.872,13.138 -21.291,28.317 -35.428,22.424c-6.605,-2.754 -10.557,-9.426 -14.048,-15.673c-46.813,-83.774 -93.625,-167.547 -140.438,-251.321c-2.473,46.238 -4.946,92.475 -7.419,138.713c-1.462,27.342 -2.815,55.51 6.247,81.349c9.062,25.838 31.232,49.071 58.562,50.746c9.182,0.563 11.215,14.931 4.61,21.334c-6.605,6.402 -16.808,6.784 -26.007,6.781c-108.465,-0.035 -216.93,-0.071 -325.396,-0.107c-16.357,-0.005 -16.171,-27.182 -3.124,-37.046c13.047,-9.864 31.242,-11.278 43.615,-21.976c22.28,-19.265 12.086,-58.765 -12.027,-75.68c-24.113,-16.915 -55.615,-17.715 -85.068,-17.894c-27.853,-0.168 -57.537,0.176 -80.82,15.462c-23.284,15.286 -34.842,51.489 -15.429,71.462c9.017,9.277 22.216,12.917 33.266,19.646c11.05,6.729 20.713,19.991 15.678,31.909c-5.205,12.318 -21.57,14.217 -34.943,14.246c-49.493,0.109 -98.986,0.217 -148.479,0.325c-8.269,0.018 -17.315,-0.235 -23.598,-5.611c-6.284,-5.375 -6.399,-17.821 1.49,-20.299c68.564,-21.538 98.114,-99.706 124.002,-166.748c30.728,-79.573 68.823,-156.299 113.641,-228.875c5.338,-8.644 11.224,-17.648 20.344,-22.125c9.12,-4.477 22.34,-2.18 26.177,7.227c43.671,107.055 87.341,214.11 131.011,321.165c7.863,19.276 16.083,39.101 30.791,53.835c14.707,14.735 37.716,23.232 56.849,15.026c26.801,-11.494 32.194,-46.457 33.738,-75.579c3.201,-60.349 6.401,-120.699 9.601,-181.049c1.22,-23.015 2.335,-46.779 -5.633,-68.406c-7.968,-21.626 -27.505,-40.734 -50.553,-40.729c13.355,-27 43.278,-44.902 73.383,-43.903c30.106,0.998 58.776,20.844 70.312,48.669c37.064,89.401 81.409,175.781 132.451,258.006c58.697,-85.088 112.695,-173.416 161.666,-264.45m-640.465,215.672c11.399,-12.48 7.484,-32.227 1.578,-48.065c-5.023,-13.47 -10.986,-26.591 -17.831,-39.234c-2.872,-5.305 -6.204,-10.821 -11.618,-13.483c-12.66,-6.226 -26.285,6.463 -33.714,18.457c-10.552,17.039 -18.727,35.548 -24.215,54.824c-1.743,6.123 -3.225,12.56 -2.016,18.811c2.174,11.236 12.811,19.295 23.953,21.912c11.141,2.616 22.791,0.854 34.081,-1.022c10.793,-1.794 22.403,-4.121 29.782,-12.2Z" style="fill:#413017;fill-rule:nonzero;"/><path d="M8724.19,1164.06c26.075,0.381 31.902,36.646 29.26,62.589c-1.369,13.445 -2.739,26.891 -4.108,40.336c-1.103,10.834 -2.801,22.83 -11.207,29.754c-8.405,6.924 -25.102,2.351 -24.221,-8.503c1.663,-20.5 -20.559,-36.724 -41.108,-35.865c-20.55,0.859 -38.556,13.709 -53.809,27.506c-46.999,42.514 -80.859,99.357 -95.861,160.93c-5.842,23.975 17.805,46.942 42.277,50.108c24.472,3.166 48.405,-7.328 70.951,-17.36c6.105,-2.716 12.597,-5.478 19.229,-4.665c19.239,2.357 22.312,28.777 20.155,48.04c-1.931,17.256 -3.863,34.512 -5.795,51.769c-0.487,4.351 -1.026,8.859 -3.308,12.596c-6.516,10.672 -23.349,8.936 -33.073,1.074c-9.724,-7.861 -15.375,-19.677 -24.104,-28.63c-26.058,-26.726 -73.087,-19.986 -101.669,4.023c-28.581,24.008 -43.486,60.079 -58.212,94.379c-68.963,160.624 -166.424,323.094 -325.562,395.422c-114.397,51.994 -252.412,48.844 -364.319,-8.314c-78.607,-40.15 -144.989,-107.545 -174.45,-190.75c-29.462,-83.206 -18.486,-181.913 36.45,-251.002c80.695,-101.487 235.446,-117.375 356.334,-70.498c120.888,46.877 215.128,142.931 302.571,238.665c29.265,-48.174 28.399,-113.032 -2.142,-160.407c-30.541,-47.376 -89.255,-74.941 -145.215,-68.176c-19.842,2.399 -27.754,-29.406 -13.791,-43.707c13.963,-14.301 36.419,-14.77 56.4,-14.287c69.108,1.67 138.215,3.34 207.322,5.009c34.108,0.825 79.742,-8.194 81.743,-42.253c3.672,-62.51 37.622,-120.254 82.237,-164.191c44.615,-43.938 99.48,-75.822 154.408,-105.887c7.07,-3.869 14.559,-7.823 22.617,-7.705m-892.813,382.762c-95.565,-7.991 -187.354,67.911 -208.574,161.433c-21.219,93.521 22.188,195.249 97.338,254.823c75.15,59.573 177.104,79.432 271.984,65.494c94.88,-13.937 183.08,-59.198 259.16,-117.579c17.481,-13.414 21.451,-39.198 14.97,-60.258c-6.482,-21.061 -21.322,-38.392 -36.319,-54.536c-82.986,-89.334 -182.848,-162.936 -292.742,-215.762c-33.547,-16.126 -68.725,-30.514 -105.817,-33.615m560.219,-3.577c-34.112,-4.631 -69.465,0.242 -101.053,13.931c48.606,30.529 59.94,97.364 51.767,154.177c-2.121,14.742 -4.484,31.953 5.95,42.581c22.975,-47.347 45.949,-94.694 68.923,-142.041c8.686,-17.901 16.844,-40.973 3.857,-56.046c-7.13,-8.275 -18.621,-11.133 -29.444,-12.602Z" style="fill:#413017;fill-rule:nonzero;"/><path d="M11393,1760.76c40.988,-27.139 68.86,-73.214 73.872,-122.116c37.311,33.785 14.205,96.742 -19.452,134.168c-21.824,24.268 -47.172,45.362 -75,62.414c-22.889,14.025 -50.021,25.612 -76.006,18.874c-19.687,-5.104 -35.482,-20.139 -46.68,-37.116c-31.735,-48.113 -29.919,-115.985 4.344,-162.331c-88.303,61.071 -176.605,122.143 -264.907,183.215c-15.632,10.811 -35.876,21.952 -52.408,12.577c25.948,-65.746 51.896,-131.491 77.845,-197.236c11.098,-28.12 22.389,-57.391 20.43,-87.558c-1.958,-30.166 -21.241,-61.481 -50.962,-67.005c-29.721,-5.524 -62.225,27.313 -49.099,54.545c20.897,43.358 4.081,94.903 -15.895,138.692c-24.934,54.66 -56.552,109.283 -106.969,141.956c-50.418,32.672 -123.92,36.402 -166.547,-5.934c-12.463,-12.378 -23.108,-28.791 -40.228,-32.722c-32.884,-7.548 -59.868,36.11 -93.34,31.879c-20.262,-2.562 -34.468,-22.994 -36.826,-43.28c-2.358,-20.286 4.348,-40.415 11.082,-59.695c48.946,-140.129 104.506,-277.947 166.433,-412.842c11.782,-25.665 -45.513,-43.402 -35.919,-69.963c3.075,-8.515 12.179,-12.994 20.468,-16.635c21.622,-9.498 44.87,-19.211 68.112,-15.026c23.242,4.185 44.205,28.827 35.369,50.728c-59.416,147.274 -118.833,294.549 -178.249,441.823c-7.322,18.148 -11.842,44.285 5.868,52.611c9.342,4.392 20.575,0.687 29.167,-5.034c36.343,-24.197 40.733,-74.465 55.697,-115.481c20.05,-54.958 63.791,-98.714 113.438,-129.656c49.648,-30.943 105.391,-50.483 160.618,-69.778c18.42,-6.436 37.016,7.132 54.247,16.285c17.231,9.154 44.405,10.663 50.681,-7.812c6.135,-18.062 35.53,-12.124 45.369,4.22c9.839,16.343 9.346,37.056 17.712,54.201c32.96,-30.763 74.817,-51.88 119.145,-60.109c27.108,-5.031 57.94,-4.331 78.629,13.894c20.689,18.224 21.092,58.479 -4.342,69.123c-12.943,5.417 -8.561,27.391 4.46,32.619c13.021,5.228 27.751,-1.08 39.424,-8.866c37.133,-24.768 62.063,-64.585 98.666,-90.129c36.603,-25.544 96.615,-29.59 118.176,9.492c16.275,29.502 0.884,67.448 -22.894,91.32c-33.741,33.876 -84.238,50.187 -131.421,42.449c-25.379,-4.162 -50.962,10.062 -67.357,29.876c-16.394,19.815 -25.366,44.568 -34.035,68.78c-4.602,12.852 -9.275,26.403 -7.027,39.867c3.54,21.198 24.403,36.55 45.775,38.822c21.371,2.271 42.616,-6.24 60.536,-18.106m-571.08,-59.461c27.717,-39.497 48.398,-88.386 37.389,-135.365c-2.174,-9.28 -6.273,-19.116 -14.815,-23.344c-11.875,-5.877 -26.765,2.51 -32.93,14.238c-6.166,11.727 -6.08,25.596 -6.415,38.841c-0.334,13.245 -1.545,27.351 -9.607,37.864c-5.327,6.947 -17.322,2.775 -21.633,-4.844c-4.312,-7.618 -4.001,-16.9 -5.994,-25.424c-1.992,-8.524 -8.31,-17.59 -17.048,-17.061c-31.651,35.289 -54.26,78.621 -65.1,124.768c-3.416,14.542 -5.624,30.111 -0.591,44.176c5.033,14.064 19.41,25.772 34.105,23.088c43.165,-7.883 77.433,-41.02 102.639,-76.937m390.75,-191.723c-6.107,-4.267 -14.423,-2.259 -21.539,-0.053c-33.864,10.503 -69.202,23.019 -92.194,50.01c-16.971,19.923 -25.366,45.817 -29.838,71.605c-5.274,30.417 -5.621,61.684 -1.023,92.212c33.844,-19.982 66.281,-42.345 96.992,-66.869c18.888,-15.084 37.72,-31.773 47.307,-53.963c9.719,-22.495 8.806,-47.959 7.723,-72.441c-0.334,-7.539 -1.241,-16.179 -7.428,-20.501m205.241,17.179c-3.456,3.638 -7.181,8.134 -6.195,13.055c1.573,7.844 12.431,8.521 20.336,7.295c7.89,-1.223 16.068,-2.556 22.686,-7.024c6.617,-4.467 11.192,-13.03 8.505,-20.549c-3.112,-8.708 -14.529,-11.931 -23.36,-9.186c-8.83,2.744 -15.602,9.705 -21.972,16.409m-156.127,82.276c5.061,-0.082 2.899,8.105 4.321,12.963c2.423,8.272 17.323,1.607 15.219,-6.752c-2.104,-8.359 -13.081,-11.227 -21.384,-8.91l1.844,2.699Z" style="fill:#413017;fill-rule:nonzero;"/><path d="M3511.13,1869.46c-1.779,-19.558 27.484,-21.455 45.394,-29.512c28.391,-12.772 31.879,-50.987 31.169,-82.111c-1.832,-80.235 -3.663,-160.47 -5.495,-240.705c-0.284,-12.455 -1.091,-26.209 -9.834,-35.084c-9.312,-9.451 -24.152,-9.913 -37.419,-9.763c-22.621,0.257 -45.811,0.619 -66.907,8.788c-21.096,8.17 -39.993,25.933 -42.858,48.373c-1.224,9.591 -15.111,12.318 -23.252,7.101c-8.141,-5.217 -12.216,-14.697 -17.323,-22.908c-19.899,-31.989 -59.253,-47.438 -96.895,-48.999c-72.293,-2.999 -144.734,42.164 -171.99,109.189c-27.256,67.025 -5.991,151.178 51.082,195.652c57.073,44.474 145.362,43.891 200.602,-2.841c15.019,-12.706 32.956,-29.555 51.23,-22.27c2.349,38.603 -17.307,77.796 -49.65,99.001c-19.475,12.769 -42.539,19.069 -65.597,22.338c-102.289,14.5 -213.311,-34.401 -263.542,-124.68c-50.23,-90.28 -29.341,-216.765 52.933,-279.25c26.759,-20.324 58.338,-33.678 90.873,-42.081c60.429,-15.607 123.742,-14.546 186.143,-13.384c205.273,3.823 410.546,7.646 615.819,11.469c30.799,0.573 63.258,1.608 89.532,17.69c-11.163,32.798 -71.307,15.811 -87.761,46.3c-4.026,7.46 -4.314,16.298 -4.509,24.772c-1.864,80.747 -3.728,161.495 -5.592,242.243c-0.467,20.238 0.18,43.208 15.238,56.738c23.432,21.054 73.398,12.067 79.008,43.065c-73.221,19.914 -150.131,26.177 -225.61,18.372c-13.563,-1.402 -28.614,-4.12 -36.664,-15.125c-8.051,-11.006 -0.592,-31.56 12.838,-29.201c30.457,5.348 60.118,-17.858 72.666,-46.121c12.547,-28.262 12.013,-60.358 11.257,-91.271c-1.38,-56.413 -2.76,-112.825 -4.14,-169.238c-0.463,-18.914 -1.958,-40.151 -16.189,-52.618c-14.231,-12.468 -43.933,-3.089 -40.351,15.488c2.645,13.72 4.418,28.829 -2.636,40.89c-7.054,12.061 -26.545,17.128 -34.933,5.953c-17.635,-23.498 -40.213,-45.941 -69.097,-51.316c-28.884,-5.376 -63.492,14.087 -64.126,43.46c-1.674,77.621 -3.348,155.243 -5.022,232.864c-0.711,32.992 2.529,73.002 31.955,87.938c13.487,6.845 33.215,9.875 35.303,24.855c-75.024,6.236 -150.401,8.22 -225.65,5.939Z" style="fill:#413017;fill-rule:nonzero;"/><path d="M13022.5,1466.17c19.188,34.112 -4.312,77.913 -35.873,101.058c-33.938,24.887 -77.601,36.125 -119.337,30.714c-27.061,-3.509 -54.229,11.839 -70.14,34.008c-15.911,22.169 -21.95,50.081 -22.959,77.35c-1.075,29.077 8.343,64.588 36.548,71.733c17.186,4.353 35.163,-4.097 48.925,-15.274c24.061,-19.541 40.443,-48.296 44.984,-78.958c1.912,-12.913 2.004,-26.728 8.948,-37.782c6.944,-11.055 24.415,-16.736 32.969,-6.875c11.598,13.368 33.08,13.78 48.977,6.001c15.897,-7.779 27.636,-21.825 39.315,-35.122c37.133,-42.273 78.524,-80.804 123.344,-114.819c23.512,-17.843 49.467,-35.007 78.882,-37.439c27.66,-2.286 53.315,-14.614 79.669,-23.319c26.354,-8.705 56.174,-13.616 81.15,-1.51c24.975,12.105 39.799,47.042 22.829,69.005c-33.125,-12.376 -69.944,-6.017 -104.701,0.494c-10.807,2.024 -22.218,4.34 -30.339,11.752c-8.12,7.413 -10.942,21.756 -2.805,29.151c23.92,21.74 -38.608,68.238 -11.718,86.175c14.671,9.786 11.576,32.598 2.645,47.804c-8.931,15.207 -22.274,29.077 -23.667,46.656c-2.477,31.263 46.226,50.383 65.68,25.786c7.103,-8.982 9.613,-20.627 12.476,-31.715c35.936,-139.209 166.146,-248.675 309.459,-260.16c27.18,-2.178 41.596,-32.385 50.563,-58.135c7.04,-20.213 14.079,-40.426 21.119,-60.639c7.95,-22.829 11.431,-55.9 -11.386,-63.887c-17.83,-6.241 -5.464,-33.216 8.886,-45.503c18.981,-16.252 40.011,-33.345 64.981,-34.31c24.97,-0.966 51.437,24.063 41.73,47.089c-26.116,61.947 -52.232,123.894 -78.347,185.841c-3.446,8.173 -6.713,18.201 -1.414,25.313c3.526,4.734 9.732,6.431 15.467,7.827c34.987,8.519 83.524,10.102 94.622,-24.155c6.429,-19.846 39.825,-14.091 47.979,5.111c8.154,19.202 -0.171,41.041 -8.436,60.195c-23.295,53.989 -46.591,107.978 -69.886,161.967c-9.703,22.486 -19.557,45.616 -20.519,70.087c-0.962,24.471 8.935,50.95 30.357,62.818c-35.629,24.617 -82.912,31.491 -124.076,18.039c-10.71,-3.499 -21.861,-9.126 -26.394,-19.44c-4.533,-10.314 2.264,-25.407 13.511,-24.744c30.415,1.792 48.672,-32.35 59.086,-60.983c14.757,-40.57 29.514,-81.141 44.27,-121.711c8.985,-24.701 17.495,-54 2.661,-75.698c-17.195,-25.152 -57.499,-23.212 -81.225,-4.098c-23.727,19.114 -35.01,49.313 -45.253,78.007c-11.537,32.317 -23.073,64.633 -34.61,96.95c-12.096,33.885 -18.24,82.462 15.118,95.942c12.34,4.987 13.871,23.291 6.171,34.147c-7.7,10.855 -20.956,16.019 -33.447,20.615c-23.653,8.703 -47.305,17.406 -70.958,26.109c-9.87,3.631 -20.583,7.304 -30.677,4.351c-10.093,-2.952 -17.719,-15.798 -11.563,-24.325c25.951,-35.947 41.923,-79.022 45.681,-123.199c-21.278,22.039 -42.557,44.077 -63.835,66.116c-21.73,22.506 -44.334,45.618 -73.274,57.499c-28.941,11.88 -66.16,9.526 -86.792,-13.991c-36.086,-41.132 -114.669,-28.067 -135.505,22.529c-4.427,10.75 -22.566,6.669 -26.962,-4.094c-4.396,-10.763 0.041,-22.876 4.123,-33.762c4.082,-10.886 7.718,-23.529 2.029,-33.667c-8.479,-15.11 -31.886,-13.507 -45.733,-3.094c-13.847,10.412 -22.275,26.491 -34.895,38.362c-28.738,27.031 -77.631,26.495 -108.595,2.046c-30.965,-24.448 -43.282,-68.423 -33.981,-106.763c-22.834,41.471 -46.943,84.398 -85.626,111.691c-38.684,27.292 -96.454,33.767 -131.264,1.68c-38.315,-35.318 -32.321,-97.541 -14.494,-146.506c31.241,-85.816 89.991,-161.377 165.46,-212.805c21.781,-14.843 45.789,-28.01 72.031,-30.486c26.241,-2.475 55.118,7.978 68.041,30.95m435.939,277.249c30.461,-31.206 59.02,-64.27 85.465,-98.946c15.179,-19.904 30.397,-43.025 27.218,-67.853c-3.286,-25.66 -35.02,-46.37 -56.434,-31.856c-63.488,43.031 -124.907,101.582 -135.152,177.592c-1.952,14.484 -1.192,31.107 9.523,41.045c9.821,9.108 25.401,9.487 37.777,4.365c12.375,-5.123 22.247,-14.762 31.603,-24.347m-263.935,-188.601c-18.072,-9.97 -39.824,3.122 -55.975,15.972c-46.546,37.028 -92.736,79.237 -112.62,135.293c-6.323,17.825 -8.46,40.764 6.121,52.808c13.03,10.763 32.845,6.883 47.684,-1.204c20.966,-11.425 37.38,-29.552 52.679,-47.884c21.01,-25.174 40.749,-51.41 59.117,-78.573c8.083,-11.952 16.087,-24.555 18.344,-38.806c2.257,-14.251 -2.717,-30.635 -15.35,-37.606m-252.545,-46.802c-21.823,-3.568 -45.028,2.321 -62.509,15.864c-2.106,1.631 -4.273,3.612 -4.641,6.251c-0.641,4.59 4.285,7.867 8.63,9.478c22.378,8.299 48.811,4.632 68.085,-9.447c2.601,-1.899 5.209,-4.172 6.068,-7.276c2.173,-7.856 -7.59,-13.554 -15.633,-14.87m694.426,4.977c-5.985,-9.284 -20.548,-10.621 -29.163,-3.707c-8.615,6.914 -10.922,19.934 -6.768,30.169c3.039,7.49 9.172,13.669 16.639,16.764c13.649,-10.795 28.721,-28.6 19.292,-43.226l0,0Z" style="fill:#413017;fill-rule:nonzero;"/><path d="M14526.4,1653.72c-8.064,60.761 -16.25,122.041 -36.718,179.816c-43.56,122.957 -144.56,224.187 -267.418,268.028c-22.835,8.148 -47.259,14.465 -71.166,10.433c-23.908,-4.033 -47.072,-20.759 -51.986,-44.501c-4.915,-23.742 15.1,-51.293 39.187,-48.525c18.998,2.183 32.124,19.971 49.642,27.639c28.162,12.327 60.436,-3.671 84.943,-22.228c78.859,-59.715 132.269,-151.975 144.782,-250.098c-28.37,20.44 -57.354,41.194 -90.658,51.848c-33.303,10.653 -72.256,9.716 -100.414,-11.013c-42.479,-31.27 -110.831,-17.164 -137.461,28.368c-10.276,17.571 -40.655,7.435 -46.91,-11.936c-6.254,-19.372 2.891,-40.01 11.826,-58.3c37.613,-77.001 75.227,-154.001 112.841,-231.002c-79.565,-0.041 -134.249,77.156 -174.637,145.708c-23.456,39.814 -46.912,79.628 -70.369,119.442c-9.981,16.941 -21.7,35.28 -40.599,40.71c-18.899,5.429 -43.468,-13.053 -35.353,-30.964c39.586,-87.376 79.173,-174.752 118.759,-262.128c7.977,-17.607 10.621,-46.108 -8.507,-48.894c-9.896,-1.442 -14.219,-14.586 -10.445,-23.846c3.775,-9.261 12.611,-15.288 20.979,-20.764c18.121,-11.857 37.636,-24.147 59.291,-24.064c21.655,0.083 44.57,18.595 40.633,39.89c-2.941,15.9 -19.289,31.289 -11.336,45.368c35.112,-3.9 68.896,-18.99 95.232,-42.538c13.375,-11.959 25.199,-26.255 41.285,-34.2c16.087,-7.945 38.65,-7.044 48.609,7.881c8.495,12.732 4.623,29.718 0.067,44.33c-19.634,62.965 -46.457,123.686 -79.783,180.603c-14.822,25.316 -29.484,61.43 -6.874,80.123c17.01,14.063 44.324,4.927 58.177,-12.256c13.853,-17.182 18.513,-39.716 25.53,-60.642c22.579,-67.324 72.843,-122.924 131.885,-162.375c59.043,-39.451 126.703,-64.08 194.906,-83.848c29.044,-8.419 62.202,-15.538 87.976,0.277c25.774,15.815 27.577,64.389 -2.026,70.564c-10.147,2.116 -20.498,-1.344 -30.607,-3.636c-40.066,-9.084 -84.047,1.046 -116.103,26.74c31.487,28.476 28.406,77.906 22.82,119.99m-235.519,116.019c9.362,7.683 22.46,9.297 34.465,7.697c38.308,-5.105 66.6,-37.835 87.086,-70.606c24.145,-38.625 42.92,-80.601 55.617,-124.346c2.351,-8.102 4.408,-17.194 0.46,-24.65c-8.192,-15.47 -31.643,-9.767 -46.694,-0.829c-56.134,33.338 -102.478,82.942 -131.928,141.208c-11.66,23.068 -18.987,55.129 0.994,71.526l-0,-0Z" style="fill:#413017;fill-rule:nonzero;"/><path d="M1268.59,1681.52c-19.294,-79.324 10.687,-167.614 71.79,-221.753c61.103,-54.138 150.06,-73.498 229.209,-53.5c99.982,25.261 182.765,118.037 183.905,221.154c0.708,63.985 -29.097,127.064 -77.053,169.429c-47.955,42.365 -112.907,64.062 -176.865,62.074c-104.242,-3.239 -206.338,-76.066 -230.986,-177.404m117.379,-102.408c-14.311,58.903 2.71,124.487 43.86,168.996c21.392,23.138 49.648,40.964 80.861,45.286c46.374,6.422 93.979,-18.973 119.962,-57.917c25.983,-38.944 31.824,-89.159 22.062,-134.946c-8.159,-38.268 -27.243,-74.878 -57.195,-100.056c-29.951,-25.177 -71.266,-37.798 -109.448,-29.246c-50.44,11.298 -87.898,57.655 -100.102,107.883l0,0Z" style="fill:#413017;fill-rule:nonzero;"/><path d="M9494.04,1772.12c18.988,25.391 60.122,23.322 85.406,4.191c25.283,-19.132 38.608,-49.751 50.883,-78.984c44.611,-106.237 89.222,-212.475 133.833,-318.712c9.552,-22.748 19.259,-46.211 19.542,-70.881c0.282,-24.67 -11.149,-51.148 -33.637,-61.295c16.128,-13.994 32.825,-28.319 53.086,-35.059c20.261,-6.74 45.209,-4.063 59.15,12.109c18.817,21.828 9.89,55.134 -0.011,82.198c-28.885,78.953 -57.77,157.907 -86.654,236.861c29.83,-23.024 59.659,-46.049 89.489,-69.073c19.408,-14.979 40.718,-30.653 65.233,-30.929c24.514,-0.276 50.136,23.679 41.587,46.657c-26.906,72.31 -53.812,144.621 -80.717,216.931c-7.642,20.537 -12.669,49.011 6.454,59.708c9.822,-9.387 28.256,-6.779 35.088,4.965c-20.699,26.85 -45.085,50.854 -72.259,71.125c-10.55,7.871 -23.199,15.542 -36.054,12.714c-17.988,-3.958 -25.428,-25.595 -26.478,-43.983c-4.731,-82.853 52.99,-154.698 79.711,-233.266c2.687,-7.897 5.047,-16.651 1.968,-24.404c-4.952,-12.47 -22.197,-15.891 -34.469,-10.466c-12.272,5.425 -20.637,16.85 -28.415,27.784c-53.793,75.625 -107.586,151.25 -161.378,226.875c-18.849,26.499 -53.831,55.783 -78.907,35.079c-17.748,-14.655 -42.661,3.209 -63.966,11.917c-40.065,16.376 -91.633,-8.59 -103.638,-50.174c-10.599,-36.716 6.795,-75.075 23.747,-109.324c28.036,-56.642 56.072,-113.284 84.109,-169.926c7.609,-15.372 14.667,-35.525 3.013,-48.11c-11.241,-12.138 -33.762,-8.992 -43.225,-22.561c-10.943,-15.691 6.776,-36.803 25.208,-41.922c18.431,-5.119 39.281,-2.979 55.43,-13.232c15.944,-10.122 22.901,-29.518 34.862,-44.132c11.962,-14.614 36.933,-23.381 48.449,-8.412c8.758,11.384 3.064,27.516 1.599,41.805c-1.465,14.288 9.18,33.292 22.394,27.661c17.347,-7.392 29.653,22.328 18.304,37.386c-11.35,15.057 -31.755,19.225 -48.248,28.366c-27.827,15.422 -44.235,45.004 -59.201,73.08c-23.342,43.789 -46.685,87.579 -70.027,131.368c-16.062,30.132 -31.71,68.72 -11.261,96.065Z" style="fill:#413017;fill-rule:nonzero;"/><path d="M12169.4,1419.68c36.688,-21.988 56.605,-62.884 81.26,-97.835c35.897,-50.887 85.309,-92.148 141.783,-118.394c26.15,-12.153 56.054,-21.193 83.555,-12.52c27.501,8.673 48.474,41.59 35.326,67.255c-13.924,27.182 -27.849,54.364 -41.774,81.546c-11.047,0.329 -17.95,-12.49 -18.235,-23.539c-0.284,-11.049 3.223,-22.24 0.796,-33.023c-4.469,-19.86 -28.315,-30.36 -48.358,-26.803c-20.043,3.557 -36.63,17.303 -51.25,31.468c-25.171,24.386 -47.635,51.564 -66.848,80.874c-7.857,11.987 -15.465,25.717 -13.127,39.857c4.974,30.088 51.228,44.435 47.485,74.701c-43.068,-0.464 -84.831,28.996 -98.843,69.724c-46.142,134.122 -102.586,264.698 -168.671,390.199c-34.236,65.017 -75.678,132.915 -143.429,161.359c-20.642,8.665 -44.223,13.129 -65.408,5.891c-21.184,-7.238 -38.433,-28.781 -35.137,-50.924c3.297,-22.142 32.132,-37.844 50.235,-24.674c17.965,13.069 43.879,10.109 62.806,-1.522c18.927,-11.632 32.288,-30.31 44.464,-48.891c77.243,-117.875 127.451,-251.013 177.046,-382.927c16.93,-45.033 31.774,-101.725 -1.652,-136.328c-14.411,-14.918 10.184,-34.831 27.976,-45.494l0,-0Z" style="fill:#413017;fill-rule:nonzero;"/><path d="M6111.05,1442.89c33.174,17.554 63.099,42.463 82.509,74.585c49.412,81.772 20.092,190.35 -35.124,268.321c-21.21,29.951 -47.068,58.237 -80.797,72.707c-26.082,11.189 -55.1,13.354 -83.481,13.386c-53.071,0.061 -111.097,-9.302 -146.462,-48.872c-14.923,-16.695 -24.467,-37.425 -33.04,-58.112c-28.037,-67.654 -48.057,-143.885 -25.339,-213.506c19.993,-61.273 72.849,-109.623 134.416,-128.69c61.568,-19.068 130.35,-9.963 187.318,20.181m-66.026,24.322c-35.337,-10.286 -74.307,-9.951 -108.159,4.489c-33.852,14.44 -61.865,43.718 -71.365,79.274c-3.759,14.069 -4.65,28.721 -5.523,43.257c-2.33,38.811 -4.585,78.426 5.508,115.975c10.094,37.549 34.874,73.353 71.523,86.339c21.688,7.684 45.425,6.828 68.289,4.246c33.806,-3.816 69.136,-12.196 93.485,-35.958c18.602,-18.153 28.679,-43.38 34.647,-68.678c11.861,-50.276 9.202,-103.89 -7.575,-152.746c-4.523,-13.171 -10.131,-26.145 -18.587,-37.208c-15.122,-19.786 -38.333,-32.031 -62.243,-38.99Z" style="fill:#413017;fill-rule:nonzero;"/><path d="M2069.17,1579.48c-8.783,9.961 -19.944,18.241 -25.685,30.216c-5.74,11.975 -2.879,29.702 9.776,33.727c41.949,13.344 66.561,62.191 59.235,105.597c-7.327,43.405 -41.535,79.238 -82.124,96.274c-40.589,17.037 -86.59,17.294 -129.859,9.203c-42.352,-7.919 -86.508,-6.023 -128.024,5.498c-15.309,4.248 -27.679,-16.931 -21.663,-31.634c6.017,-14.704 21.985,-22.437 36.987,-27.665c15.003,-5.228 31.324,-9.871 41.555,-22.024c11.58,-13.756 12.241,-33.353 12.337,-51.334c0.397,-74.587 0.794,-149.175 1.191,-223.762c0.067,-12.592 -0.574,-26.849 -10.037,-35.156c-8.021,-7.042 -19.725,-7.359 -30.398,-7.499c-10.672,-0.139 -22.48,-0.938 -29.978,-8.535c-7.498,-7.596 -5.111,-24.064 5.525,-24.964c53.034,-4.49 106.253,-6.795 159.477,-6.908c45.633,-0.097 96.152,3.422 128.213,35.896c31.732,32.14 33.341,89.192 3.472,123.07m-165.647,180.36c0.163,10.751 0.408,21.871 4.937,31.622c4.529,9.752 14.578,17.803 25.249,16.486c22.146,-2.733 44.804,-5.618 64.703,-15.713c19.9,-10.095 36.828,-29.011 38.196,-51.282c1.162,-18.932 -9.103,-37.171 -23.201,-49.861c-14.098,-12.689 -31.719,-20.682 -49.242,-27.941c-11.765,-4.874 -24.253,-9.595 -36.892,-8.042c-12.639,1.554 -25.17,11.59 -24.976,24.322c0.409,26.803 0.817,53.606 1.226,80.409m70.145,-280.882c-10.897,-6.14 -23.48,-8.667 -35.945,-9.684c-8.041,-0.656 -16.892,-0.471 -23.117,4.66c-6.207,5.115 -8.084,13.715 -9.203,21.679c-3.087,21.97 -3.328,44.339 -0.715,66.37c1.753,14.786 7.887,32.567 22.629,34.655c29.409,4.164 60.967,-12.89 72.247,-40.368c11.281,-27.478 -0.019,-62.73 -25.896,-77.312Z" style="fill:#413017;fill-rule:nonzero;"/><path d="M4461.01,1762.5c-15.911,22.135 -35.922,41.077 -57.413,57.847c-31.157,24.312 -67.03,44.77 -106.354,48.7c-70.04,7 -133.95,-38.83 -184.599,-87.711c-17.609,-16.995 -34.788,-34.946 -46.51,-56.428c-17.1,-31.338 -21.442,-68.511 -17.357,-103.976c10.449,-90.725 78.756,-172.493 166.581,-197.531c87.826,-25.039 189.781,9.065 243.716,82.762c53.936,73.697 55.241,182.183 1.936,256.337m-326.308,-134.573c-1.368,36.019 -2.269,74.11 15.233,105.621c13.158,23.689 35.428,40.986 58.752,54.782c17.702,10.471 36.721,19.438 57.081,22.353c38.172,5.463 76.848,-11.258 106.212,-36.251c16.091,-13.695 30.31,-30.367 37.418,-50.266c5.591,-15.648 6.543,-32.512 7.443,-49.104c3.345,-61.647 3.933,-131.104 -39.131,-175.341c-44.608,-45.822 -122.435,-44.523 -177.5,-12.005c-16.232,9.586 -31.31,21.683 -41.956,37.24c-20.167,29.469 -22.196,67.288 -23.552,102.971l0,0Z" style="fill:#413017;fill-rule:nonzero;"/><path d="M6614.33,1789.19c17.657,20.761 40.445,43.573 67.376,39.387c37.491,-5.829 46.399,-55.144 46.257,-93.086c-0.238,-63.414 -0.475,-126.828 -0.713,-190.243c-0.174,-46.65 -7.115,-103.929 -50.369,-121.403c80.594,-5.909 161.432,-8.489 242.239,-7.73c24.483,0.229 42.51,25.889 43.457,50.355c0.948,24.465 -10.398,47.528 -21.462,69.37c-18.959,-5.605 -23.86,-29.532 -35.05,-45.832c-19.114,-27.841 -62.939,-32.345 -89.799,-11.875c-26.859,20.47 -35.105,60.273 -22.406,91.565c2.139,5.271 4.904,10.48 9.293,14.098c7.056,5.817 16.891,6.508 26.026,6.942c34.103,1.62 74.59,0.206 93.496,-28.222c4.321,-6.497 9.603,-15.256 17.189,-13.433c6.018,1.446 8.201,8.754 9.057,14.884c5.267,37.73 0.669,76.793 -13.213,112.269c-26.102,-34.641 -73.846,-51.351 -115.853,-40.546c-11.197,2.88 -22.666,8.151 -28.463,18.154c-3.966,6.845 -4.76,15.011 -5.466,22.891c-2.555,28.525 -5.11,57.05 -7.665,85.575c-0.879,9.823 -1.39,20.86 5.109,28.278c5.268,6.014 13.704,7.9 21.546,9.456c26.957,5.348 54.938,10.685 81.654,4.24c26.716,-6.445 51.84,-28.192 52.84,-55.657c0.268,-7.341 11.099,-10.007 17.041,-5.686c5.942,4.32 7.956,12.124 9.566,19.291c7.648,34.026 12.65,76.182 -14.759,97.745c-12.663,9.962 -29.453,12.66 -45.495,14.16c-58.398,5.46 -117.85,-0.588 -173.952,-17.698c-19.774,-6.03 -39.934,6.391 -60.225,10.353c-52.8,10.31 -97.933,-36.217 -131.581,-78.193c-25.41,-31.699 -50.819,-63.397 -76.228,-95.096c-22.287,-27.803 -70.854,-22.226 -92.797,5.849c-21.943,28.075 -19.881,69.597 -2.944,100.948c16.936,31.35 46.128,54.184 76.308,73.128c-51.862,-0.946 -103.725,-1.892 -155.588,-2.837c-9.651,-0.176 -20.226,-0.701 -27.365,-7.198c-7.139,-6.498 -6.606,-21.135 2.764,-23.455c41.913,-10.376 50.595,-65.253 50.689,-108.432c0.129,-58.579 0.257,-117.158 0.386,-175.738c0.041,-18.89 -0.065,-38.487 -8.048,-55.607c-7.983,-17.121 -26.244,-31.008 -44.825,-27.607c-16.368,2.996 -28.554,-19.228 -21.55,-34.322c7.004,-15.093 25.143,-21.846 41.775,-22.331c16.633,-0.485 33.097,3.746 49.737,3.728c23.256,-0.025 45.697,-8.309 68.816,-10.826c56.152,-6.114 114.511,25.681 139.822,76.177c25.311,50.495 15.862,116.278 -22.639,157.608c-11.919,12.796 -0.502,33.125 10.828,46.446c28.394,33.385 56.789,66.771 85.184,100.156m-147.313,-194.617c25.509,-23.422 30.905,-65.248 13.468,-95.169c-17.437,-29.921 -55.259,-45.844 -89.194,-38.933c-8.281,1.686 -16.838,4.963 -21.705,11.873c-5.12,7.269 -5.057,16.857 -4.795,25.744c0.976,33.143 1.952,66.285 2.928,99.427c0.227,7.701 0.696,16.062 5.711,21.911c8.689,10.135 24.845,6.867 37.539,2.731c19.96,-6.503 40.585,-13.385 56.048,-27.584l0,0Z" style="fill:#413017;fill-rule:nonzero;"/><path d="M11854.9,1507.23c27.483,-13.51 59.01,-18.84 84.099,-36.4c30.024,-21.014 82.71,1.936 102.07,-29.18c13.389,-21.521 51.61,-14.902 60.802,8.72c9.191,23.621 -8.599,52.045 -33.002,58.896c-5.216,1.465 -10.841,2.237 -15.188,5.471c-11.533,8.581 -6.601,26.373 -2.823,40.244c10.682,39.215 1.789,81.891 -17.264,117.792c-19.052,35.901 -47.555,65.877 -77.579,93.271c-37.168,33.914 -79.819,65.774 -129.683,72.495c-49.864,6.721 -107.348,-20.358 -118.79,-69.354c-7.967,-34.12 7.185,-68.927 21.973,-100.691c29.333,-63.008 63.013,-130.602 125.385,-161.264m-5.875,259.781c56.154,-21.48 95.719,-72.962 121.549,-127.253c7.088,-14.9 13.49,-31.727 8.784,-47.542c-4.706,-15.815 -25.834,-26.958 -38.416,-16.284c-3.667,3.111 -6.002,7.47 -8.252,11.72c-9.627,18.19 -19.254,36.379 -28.881,54.568c-3.798,7.176 -15.844,4.395 -19.622,-2.791c-3.778,-7.185 -2.135,-15.863 -0.966,-23.897c1.168,-8.034 1.395,-17.259 -4.254,-23.09c-6.788,-7.008 -19.141,-5.198 -26.492,1.218c-7.351,6.416 -10.944,16.005 -14.262,25.181c-8.671,23.984 -17.343,47.967 -26.014,71.951c-3.576,9.89 -7.151,19.779 -10.727,29.669c-4.642,12.838 -9.093,27.879 -1.809,39.425c9.635,15.272 32.496,13.576 49.362,7.125l-0,-0Z" style="fill:#413017;fill-rule:nonzero;"/><path d="M2473.72,1537.39c0.308,67.312 0.617,134.624 0.926,201.936c0.098,21.372 2.044,46.348 19.914,58.071c10.885,7.141 24.797,7.128 37.812,6.87c25.065,-0.495 50.89,-1.151 73.837,-11.246c22.947,-10.095 42.54,-32.127 41.846,-57.187c-0.316,-11.434 17.237,-15.56 25.917,-8.111c8.679,7.45 10.323,20.036 11.377,31.426c2.161,23.354 4.238,47.501 -3.166,69.755c-7.404,22.254 -26.946,42.25 -50.398,42.469c-99.581,0.932 -199.19,-1.177 -298.643,-6.321c-13.188,-0.682 -19.304,-18.868 -13.204,-30.581c6.1,-11.713 19.221,-17.751 31.663,-22.176c12.443,-4.425 25.811,-8.492 34.596,-18.353c11.214,-12.588 11.951,-31.063 12.096,-47.921c0.517,-59.832 1.033,-119.663 1.549,-179.495c0.202,-23.385 0.273,-47.491 -8.57,-69.142c-8.843,-21.65 -28.966,-40.45 -52.352,-40.306c-12.589,0.077 -16.571,-19.447 -8.02,-28.686c8.551,-9.239 22.484,-10.465 35.058,-11.087c39.613,-1.961 79.227,-3.922 118.84,-5.882c31.002,-1.535 64.813,-2.264 89.694,16.295c-11.035,22.831 -45.677,15.21 -68.564,26.128c-28.525,13.608 -32.353,51.94 -32.208,83.544Z" style="fill:#413017;fill-rule:nonzero;"/><path d="M8872.09,1477.4c21.29,-21.035 51.444,-32.798 81.355,-31.734c3.43,0.121 6.986,0.443 9.958,2.159c7.019,4.052 7.897,13.842 6.592,21.842c-3.423,20.991 -16.533,40.201 -34.832,51.041c-7.43,4.4 -6.658,15.922 -1.64,22.949c5.018,7.027 12.84,11.536 18.492,18.064c21.487,24.821 3.409,62.764 -14.971,89.965c-47.06,69.644 -98.197,142.767 -175.297,176.241c-19.979,8.673 -42.518,14.403 -63.48,8.49c-22.035,-6.217 -39.14,-24.843 -47.689,-46.082c-8.549,-21.239 -9.458,-44.844 -7.263,-67.634c9.987,-103.692 87.635,-197.602 187.604,-226.894c14.592,-4.276 30.354,-7.719 41.171,-18.407m-99.401,290.905c55.754,-45.159 110.909,-101.654 118.022,-173.049c1.047,-10.508 0.685,-22.078 -5.992,-30.259c-6.677,-8.18 -21.68,-9.712 -26.925,-0.547c-7.22,12.616 -15.6,26.219 -29.387,30.825c-13.787,4.607 -32.618,-7.16 -28.426,-21.079c1.277,-4.24 -3.453,-8.35 -7.879,-8.192c-4.426,0.159 -8.217,3.077 -11.578,5.961c-46.029,39.489 -74.575,98.662 -76.831,159.267c-0.81,21.759 5.829,48.774 27.063,53.591c15.193,3.447 29.827,-6.712 41.933,-16.518Z" style="fill:#413017;fill-rule:nonzero;"/><path d="M10075.6,1614.4c-8.159,-0.753 -13.213,8.45 -16.034,16.142c-10.32,28.133 -20.639,56.266 -30.959,84.399c-3.756,10.239 -7.534,21.518 -3.867,31.79c6.941,19.448 34.463,21.133 53.696,13.616c51.954,-20.306 79.466,-75.375 114.167,-119.048c2.317,-2.916 4.801,-5.889 8.181,-7.453c7.406,-3.424 16.586,1.518 20.381,8.74c3.796,7.222 3.475,15.872 2.382,23.957c-7.204,53.243 -43.244,98.582 -85.021,132.366c-24.668,19.949 -52.929,37.329 -84.426,41.123c-31.497,3.794 -66.594,-8.926 -81.64,-36.856c-12.753,-23.676 -9.128,-52.533 -3.924,-78.917c12.964,-65.733 34.223,-131.134 73.681,-185.281c39.459,-54.148 99.118,-96.106 165.766,-102.962c23.467,-2.414 48.794,0.034 67.61,14.265c18.816,14.23 27.901,42.897 14.694,62.445c-46.509,68.841 -131.96,109.309 -214.687,101.674m63.832,-72.348c6.81,11.265 24.011,6.104 35.489,-0.339c9.077,-5.096 19.434,-16.14 12.555,-23.953c-3.393,-3.853 -9.244,-3.995 -14.376,-3.842c-8.914,0.265 -18.291,0.662 -25.889,5.33c-7.599,4.669 -12.392,15.172 -7.779,22.804l0,-0Z" style="fill:#413017;fill-rule:nonzero;"/><path d="M9218.8,1422.52c14.224,-17.905 46.126,-6.296 54.881,14.829c8.755,21.124 2.072,45.137 -4.676,66.986c-2.581,8.358 -6.813,18.185 -15.488,19.304c-4.605,0.595 -9.041,-1.599 -13.372,-3.275c-26.563,-10.282 -57.219,-1.614 -81.047,13.994c-51.48,33.72 -77.374,94.264 -100.473,151.306c-17.225,42.534 -34.45,85.068 -51.675,127.602c-9.633,23.79 -27.819,52.376 -52.796,46.468c-15.604,-3.69 -24.963,-20.842 -25.116,-36.875c-0.153,-16.033 6.72,-31.195 13.454,-45.746c26.126,-56.448 52.251,-112.896 78.377,-169.344c8.397,-18.144 16.672,-40.028 6.291,-57.115c-4.182,-6.882 -11.071,-12.132 -13.765,-19.721c-4.451,-12.538 4.081,-25.709 12.692,-35.851c13.304,-15.669 29.071,-30.863 49.099,-35.487c20.028,-4.624 44.684,5.596 49.104,25.67c37.02,-10.353 70.599,-32.647 94.51,-62.745Z" style="fill:#413017;fill-rule:nonzero;"/><path d="M12693,1513.33c-40.328,33.818 -66.758,81.137 -89.185,128.75c-18,38.217 -34.019,77.368 -47.97,117.241c-7.927,22.659 -15.346,45.878 -28.75,65.793c-13.403,19.914 -34.032,36.464 -57.933,38.695c-9.351,0.872 -19.617,-0.841 -26.156,-7.582c-6.539,-6.74 -7.108,-19.429 0.647,-24.725c41.162,-28.108 62.333,-76.845 79.966,-123.465c24.512,-64.804 45.004,-141.97 6.576,-199.621c-4.939,-7.41 -11.019,-16.341 -7.224,-24.396c2.149,-4.563 6.912,-7.2 11.381,-9.539c23.127,-12.104 47.88,-24.56 73.89,-22.354c26.01,2.206 51.941,25.778 46.391,51.284c12.689,-11.41 25.378,-22.821 38.067,-34.231c20.131,-18.102 49.162,-37.159 71.775,-22.272c12.838,8.451 17.487,27.263 10.064,40.721c-7.423,13.459 -25.815,19.562 -39.812,13.213c-13.975,-6.34 -29.969,2.627 -41.727,12.488l-0,-0Z" style="fill:#413017;fill-rule:nonzero;"/><path d="M14803.5,2037.85c-1.346,-6.727 11.391,-11.238 11.533,-4.379c-1.422,4.636 -7.738,6.933 -11.806,4.294l0.273,0.085Z" style="fill:#413017;fill-rule:nonzero;"/><path d="M7070.76,1859.75c-13.364,7.438 -30.723,9.471 -43.718,1.404c-12.959,-8.045 -18.892,-25.385 -14.602,-40.022c4.291,-14.638 17.882,-25.784 32.935,-28.254c13.804,-2.265 28.855,2.697 37.737,13.506c8.881,10.808 10.658,27.276 3.325,39.19c-3.733,6.067 -9.453,10.712 -15.677,14.176l-0,0Z" style="fill:#413017;fill-rule:nonzero;"/><path d="M2947.39,1653.18c-1.385,7.932 -3.86,16.406 -10.388,21.121c-6.528,4.714 -17.997,2.665 -19.687,-5.208c-3.37,-15.696 -18.332,-26.796 -33.956,-30.487c-15.623,-3.69 -31.963,-1.404 -47.851,0.897c-7.236,1.049 -15.172,2.477 -19.789,8.147c-4.265,5.236 -4.443,12.586 -4.421,19.339c0.104,32.17 0.209,64.34 0.313,96.509c0.041,12.479 1.184,27.094 11.667,33.864c6.105,3.942 13.839,4.03 21.106,3.99c20.926,-0.118 42.367,-0.326 61.952,-7.697c19.585,-7.37 37.25,-23.512 40.333,-44.209c1.782,-11.955 19.381,-15.345 28.978,-7.997c9.598,7.348 12.652,20.324 14.145,32.319c1.866,14.99 2.303,30.158 1.303,45.231c-0.728,10.961 -2.85,23.046 -11.516,29.797c-7.328,5.708 -17.363,6.026 -26.652,6.097c-72.9,0.557 -145.8,1.114 -218.7,1.671c-16.71,0.128 -39.284,-5.275 -38.833,-21.979c0.537,-19.921 32.144,-20.859 43.486,-37.245c5.16,-7.454 5.327,-17.156 5.305,-26.222c-0.187,-80.281 -0.374,-160.561 -0.561,-240.842c-0.046,-20.001 -1.741,-43.292 -18.274,-54.549c-9.778,-6.657 -22.305,-7.159 -34.078,-8.317c-11.772,-1.158 -24.56,-3.809 -31.956,-13.041c-7.396,-9.231 -4.305,-26.581 7.387,-28.373c90.408,-13.856 182.134,-19.1 273.532,-15.638c8.546,0.324 17.342,0.783 25.1,4.383c14.104,6.545 21.942,22.478 23.17,37.978c1.227,15.499 -3.012,30.853 -7.211,45.823c-3.086,11.005 -6.929,23.042 -16.71,28.954c-9.781,5.912 -26.354,-0.588 -24.685,-11.894c2.986,-20.219 -13.969,-39.066 -33.38,-45.462c-19.411,-6.396 -40.507,-3.446 -60.721,-0.431c-18.309,2.731 -31.669,20.047 -35.707,38.114c-4.038,18.067 -0.71,36.869 2.624,55.079c4.292,23.443 33.9,34.695 56.85,28.271c22.95,-6.424 40.313,-24.74 56.447,-42.28c19.828,30.443 27.629,68.497 21.378,104.287Z" style="fill:#413017;fill-rule:nonzero;"/><path d="M7199.98,1859.71c-13.361,7.474 -30.741,9.546 -43.751,1.476c-12.853,-7.973 -18.805,-25.1 -14.688,-39.654c4.117,-14.554 17.413,-25.768 32.291,-28.491c13.872,-2.539 29.143,2.253 38.206,13.058c9.063,10.805 10.949,27.435 3.563,39.448c-3.721,6.054 -9.419,10.695 -15.621,14.163l0,0Z" style="fill:#413017;fill-rule:nonzero;"/><path d="M7301.2,1866.16c-6.264,-0.656 -12.486,-2.502 -17.714,-6.013c-20.44,-13.728 -15.345,-49.091 5.771,-61.754c22.203,-13.315 57.156,0.391 59.736,26.151c2.41,24.063 -23.741,44.134 -47.793,41.616l0,-0Z" style="fill:#413017;fill-rule:nonzero;"/><path d="M13944.3,1333.55c12.274,21.811 -8.153,53.61 -33.093,51.516c-23.684,-1.989 -39.097,-33.253 -26.251,-53.25c12.846,-19.998 47.688,-18.979 59.344,1.734Z" style="fill:#413017;fill-rule:nonzero;"/></g></g></g></svg>