<?xml version="1.0" encoding="UTF-8" standalone="no"?><!DOCTYPE svg PUBLIC "-//W3C//DTD SVG 1.1//EN" "http://www.w3.org/Graphics/SVG/1.1/DTD/svg11.dtd"><svg width="100%" height="100%" viewBox="0 0 3006 440" version="1.1" xmlns="http://www.w3.org/2000/svg" xmlns:xlink="http://www.w3.org/1999/xlink" xml:space="preserve" xmlns:serif="http://www.serif.com/" style="fill-rule:evenodd;clip-rule:evenodd;stroke-linejoin:round;stroke-miterlimit:2;"><rect id="Artboard3" x="0" y="0" width="3005.45" height="439.391" style="fill:none;"/><g><g><path d="M745.946,195.414c-8.011,4.253 -16.893,6.681 -25.864,8.007c-24.972,3.69 -51.413,-1.329 -72.458,-15.268c-21.045,-13.939 -36.211,-36.97 -39.172,-62.038c-4.163,-35.241 17.148,-71.37 49.016,-86.978c31.868,-15.609 71.983,-11.049 101.06,9.291c14.9,10.422 27.224,24.864 33.752,41.835c6.528,16.972 6.958,36.494 -0.218,53.202c-3.716,8.65 -9.309,16.355 -15.176,23.717c-8.764,10.999 -18.519,21.638 -30.94,28.232m-70.801,-147.676c-8.007,3.811 -14.549,10.19 -19.93,17.238c-17.085,22.379 -23.107,53.538 -12.949,79.797c10.157,26.259 37.3,45.764 65.422,44.41c28.123,-1.354 54.149,-25.325 55.392,-53.453c0.325,-7.362 -0.885,-14.729 -0.537,-22.09c0.294,-6.23 1.702,-12.41 1.398,-18.639c-0.506,-10.38 -5.777,-20.055 -12.671,-27.832c-13.798,-15.566 -34.676,-24.596 -55.468,-23.99c-7.1,0.207 -14.244,1.507 -20.657,4.559m102.714,89.994c1.849,-10.407 2.167,-21.085 0.938,-31.583c-0.367,-3.141 -0.921,-6.391 -2.743,-8.977c-5.551,11.52 -6.109,25.343 -1.505,37.272c0.599,1.55 1.648,3.321 3.31,3.288m-152.223,-53.656c-0.949,-0.913 -2.44,0.373 -2.9,1.606c-1.529,4.099 0.114,9.148 3.762,11.563c0.765,-3.998 0.641,-8.163 -0.361,-12.108c-0.097,-0.384 -0.215,-0.787 -0.501,-1.061m0.87,51.434c-1.107,-0.35 -1.759,1.214 -1.856,2.371c-0.292,3.456 -0.473,7.295 1.71,9.989c2.848,-3.042 3.291,-8.063 1.019,-11.556c-0.22,-0.339 -0.488,-0.682 -0.873,-0.804l-0,-0Z" style="fill:#413017;fill-rule:nonzero;"/><path d="M2896.51,30.442c9.217,0.254 18.476,0.513 27.553,2.139c25.434,4.556 49.093,20.875 60.012,44.294c3.76,8.067 5.997,16.773 7.457,25.553c3.099,18.64 2.603,38.471 -5.521,55.531c-10.798,22.674 -34.331,37.779 -59.09,41.985c-10.085,1.713 -20.366,1.807 -30.595,1.896c-25.095,0.219 -50.191,0.437 -75.286,0.656c-2.719,0.023 -6.09,-0.371 -7.056,-2.913c-1.181,-3.109 2.578,-5.925 5.879,-6.331c3.301,-0.406 6.993,0.165 9.66,-1.823c2.905,-2.166 3.212,-6.327 3.259,-9.95c0.53,-40.247 1.06,-80.494 1.59,-120.741c0.083,-6.276 -0.101,-13.26 -4.468,-17.768c-5.781,-5.966 -16.649,-5.109 -21.525,-11.835c3.965,-2.889 9.271,-2.872 14.175,-2.736c24.652,0.681 49.304,1.362 73.956,2.043m33.066,19.523c-17.967,-7.935 -38.164,-10.742 -57.613,-8.008c-3.392,0.476 -7.113,1.334 -9.072,4.144c-1.498,2.148 -1.596,4.94 -1.636,7.559c-0.616,40.517 -0.039,81.052 1.729,121.536c0.112,2.545 0.297,5.282 1.899,7.263c1.463,1.81 3.811,2.61 6.047,3.253c20.358,5.851 43.244,5.44 61.672,-5.002c18.429,-10.442 31.059,-32.113 27.308,-52.96c-2.715,-15.087 4.469,-30.809 1,-45.741c-3.507,-15.095 -17.157,-25.783 -31.334,-32.044m-83.982,-7.435c-3.158,-0.24 -4.269,4.077 -4.243,7.244c0.369,45.519 0.948,91.036 1.736,136.55c0.056,3.215 2.153,7.756 4.973,6.21c0.973,-7.809 0.784,-15.712 0.594,-23.579c-1.02,-42.142 -2.04,-84.283 -3.06,-126.425m128.417,52.352c-2.25,1.171 -2.977,3.992 -3.38,6.496c-2.28,14.187 -1.629,28.839 1.9,42.769c1.278,-0.214 1.577,-1.893 1.575,-3.188c-0.032,-15.359 -0.064,-30.718 -0.095,-46.077Z" style="fill:#413017;fill-rule:nonzero;"/><path d="M804.135,30.461c-0.406,-2.972 3.912,-3.871 6.892,-3.522c13.28,1.555 26.561,3.111 39.841,4.667c6.419,0.752 13.568,1.905 17.451,7.071c29.733,39.562 61.892,77.301 96.235,112.935c3.377,-0.354 4.316,-4.775 4.379,-8.17c0.47,-25.687 0.941,-51.374 1.412,-77.061c0.111,-6.061 0.106,-12.546 -3.247,-17.597c-4.765,-7.18 -14.58,-9.034 -20.78,-15.018c-0.607,-0.586 -1.216,-1.314 -1.16,-2.155c0.104,-1.539 2.12,-2.005 3.661,-2.043c17.531,-0.432 35.074,-0.333 52.599,0.295c2.022,0.072 4.24,0.231 5.696,1.636c1.457,1.405 1.223,4.482 -0.762,4.872c-5.356,1.049 -10.84,2.148 -15.493,5.001c-4.652,2.852 -8.373,7.873 -8.109,13.324c2.264,46.669 -0.195,93.423 -2.653,140.082c-0.126,2.389 -0.306,4.937 -1.746,6.848c-1.44,1.911 -4.63,2.679 -6.203,0.875c-38.158,-43.79 -76.317,-87.579 -114.476,-131.368c-1.284,-1.474 -3.429,-3.055 -4.948,-1.824c-0.869,0.705 -0.952,1.977 -0.964,3.095c-0.372,33.4 -0.744,66.799 -1.116,100.198c-0.084,7.589 0.594,16.614 7.133,20.466c3.758,2.213 8.4,1.972 12.708,2.643c4.309,0.672 9.09,3.076 9.686,7.396c-20.972,0.204 -41.952,-0.491 -62.864,-2.083c-1.964,-0.15 -4.471,-0.813 -4.634,-2.776c-0.101,-1.221 0.863,-2.277 1.898,-2.931c5.935,-3.75 16.03,-0.321 19.197,-6.585c0.666,-1.317 0.82,-2.825 0.959,-4.295c3.569,-37.819 4.516,-75.886 2.832,-113.836c-0.369,-8.312 -1.13,-17.3 -6.632,-23.542c-6.217,-7.053 -16.596,-8.494 -24.433,-13.688c-1.074,-0.712 -2.185,-1.633 -2.359,-2.91l-0,0Z" style="fill:#413017;fill-rule:nonzero;"/><path d="M114.797,112.418c-3.694,3.19 -18.418,41.578 -19.259,43.527c-2.132,4.935 -3.799,10.739 -5.255,15.497c-0.638,2.084 -0.433,4.319 -0.592,6.493c-0.566,7.766 -5.675,14.348 -10.568,20.404c-0.486,0.602 -1.032,1.242 -1.788,1.406c-1.307,0.283 -2.407,-0.955 -3.129,-2.081c-8.55,-13.34 -7.746,-29.23 -7.023,-44.249c-3.716,-13.237 -1.93,-9.538 -8.721,-20.76c-1.01,-1.67 -2.361,-4.34 -4.482,-8.297c-1.518,-2.832 -3.229,-5.456 -3.457,-8.662c-0.37,-5.17 -1.4,-3.911 -0.036,-13.101c-5.754,-6.694 -7.722,-9.023 -8.099,-15.446c-0.377,-6.423 -1.264,-6.46 0.004,-14.014c-6.066,-4.034 -4.27,-2.183 -6.482,-6.404c-2.212,-4.221 -1.786,-9.349 -3.418,-13.825c-2.822,-7.738 -10.985,-11.94 -18.488,-15.335c-2.646,-1.198 -2.279,-5.458 -0.004,-7.264c2.275,-1.805 5.434,-1.856 8.338,-1.824c20.137,0.223 40.274,0.446 60.411,0.669c2.265,0.025 4.755,0.135 6.422,1.668c1.667,1.534 1.461,4.999 -0.759,5.449c-6.302,1.279 -12.603,2.558 -18.905,3.837c-2.264,0.46 -4.641,0.973 -6.378,2.497c-3.515,3.084 -2.875,8.63 -1.923,13.208c5.524,26.557 11.579,53.002 18.162,79.316c1.011,4.043 2.782,8.821 6.88,9.574c15.709,-34.373 29.463,-69.639 41.175,-105.571c1.308,-4.01 3.895,-8.909 8.071,-8.318c3.075,0.436 4.777,3.706 5.979,6.57c14.049,33.485 28.099,66.97 42.148,100.454c1.501,3.577 4.489,7.885 8.155,6.622c2.243,-0.773 3.256,-3.313 3.99,-5.568c9.839,-30.227 18.168,-60.945 24.947,-92.001c1.269,-5.812 -5.76,-9.984 -11.682,-10.548c-5.922,-0.563 -12.674,0.141 -17.01,-3.931c0.902,-3.445 5.349,-4.259 8.908,-4.366c14.391,-0.431 28.8,-0.232 43.174,0.594c5.817,0.335 12.086,0.956 16.444,4.825c-2.756,5.864 -11.623,4.349 -17.216,7.621c-4.351,2.545 -6.247,7.746 -7.789,12.545c-5.542,17.251 -10.659,34.638 -15.344,52.141c-2.089,7.801 -4.491,15.519 -7.199,23.128c-3.267,9.179 -6.977,18.195 -10.193,27.392c-5.044,14.427 -8.861,29.283 -11.397,44.355c-0.51,3.031 -5.285,1.346 -7.067,-1.159c-6.558,-9.217 -5.548,-17.514 -9.466,-29.502c-5.71,-17.477 -5.627,-13.589 -6.808,-23.139c-0.263,-2.121 -3.242,-12.359 -4.57,-16.468c-3.489,-6.54 -6.487,-16.708 -8.155,-20.477c-6.558,-10.631 -10.731,-29.708 -19.988,-28.562c-2.049,0.254 -4.142,-0.194 -5.893,0.9c-9.718,6.074 -5.992,22.691 -14.665,30.18Z" style="fill:#413017;fill-rule:nonzero;"/><path d="M2544.65,126.272c-1.417,0.013 -2.898,0.042 -4.143,0.718c-2.815,1.53 -3.072,5.4 -2.969,8.603c0.367,11.454 0.735,22.908 1.102,34.362c0.256,7.969 1.556,17.58 8.85,20.8c3.202,1.414 6.849,1.17 10.349,1.204c3.5,0.035 7.291,0.501 9.819,2.923c2.527,2.422 2.708,7.388 -0.424,8.952c-1.155,0.577 -2.499,0.593 -3.79,0.597c-22.19,0.069 -44.379,0.138 -66.569,0.207c-1.645,0.005 -3.447,-0.045 -4.691,-1.121c-2.107,-1.82 -1.202,-5.471 0.889,-7.308c2.091,-1.838 4.924,-2.515 7.441,-3.704c12.156,-5.738 14.829,-21.565 15.668,-34.982c2.213,-35.37 2.672,-70.85 1.376,-106.266c-0.066,-1.799 -0.152,-3.663 -0.97,-5.267c-1.449,-2.841 -4.747,-4.12 -7.761,-5.161c-5.961,-2.06 -11.922,-4.121 -17.883,-6.181c-2.087,-0.721 -1.909,-4.066 -0.15,-5.401c1.758,-1.335 4.178,-1.24 6.381,-1.084c18.103,1.281 36.206,2.562 54.309,3.843c14.702,1.041 29.982,2.251 42.744,9.624c17.583,10.157 27.426,33.46 19.623,52.206c-2.451,5.888 -6.38,11.061 -10.8,15.657c-4.599,4.783 -9.772,9.013 -15.372,12.571c22.215,11.348 28.185,40.307 45.351,58.407c8.375,8.83 19.543,14.972 31.486,17.313c-12.605,10.928 -32.727,8.563 -46.482,-0.875c-13.756,-9.438 -22.633,-24.295 -31.08,-38.68c-4.221,-7.19 -8.443,-14.38 -12.665,-21.569c-5.568,-9.484 -18.642,-10.49 -29.639,-10.388m7.21,-83.109c-2.465,-0.194 -5.06,-0.26 -7.276,0.837c-4.881,2.416 -5.631,8.944 -5.734,14.389c-0.302,15.961 -0.604,31.921 -0.905,47.882c-0.057,3.016 0.342,6.759 3.15,7.86c12.426,4.869 27.272,2.978 38.081,-4.85c3.503,-2.536 6.649,-5.731 8.416,-9.678c1.766,-3.948 1.997,-8.725 -0.08,-12.519c-2.328,-4.254 -0.31,-9.447 0.053,-14.283c0.646,-8.583 -4.389,-16.916 -11.401,-21.907c-7.011,-4.992 -15.724,-7.053 -24.304,-7.731m51.708,123.06c-7.453,-7.264 -13.148,-16.32 -16.468,-26.184c-0.308,-0.916 -0.703,-1.955 -1.611,-2.287c-1.18,-0.431 -2.45,0.741 -2.612,1.987c-0.162,1.246 0.424,2.455 0.999,3.572c6.401,12.433 13.564,24.475 21.433,36.036c2.769,-0.337 4.113,-3.89 3.289,-6.556c-0.823,-2.665 -3.033,-4.621 -5.03,-6.568m-3.451,-76.914c0.948,-5.907 0.774,-11.993 -0.509,-17.837c-0.531,-0.13 -1.061,-0.261 -1.592,-0.392c-1.977,6.215 -2.993,14.158 2.101,18.229l0,0Z" style="fill:#413017;fill-rule:nonzero;"/><path d="M2372.3,200.3c-17.792,-1.497 -35.347,-7.553 -49.563,-18.355c-14.635,-11.122 -25.444,-27.186 -30.233,-44.933c-1.702,-6.306 -2.667,-12.811 -4.722,-19.011c-1.44,-4.343 0.954,-8.895 2.597,-13.165c2.699,-7.011 3.443,-14.611 5.509,-21.835c8.518,-29.789 38.92,-49.193 69.557,-53.819c22.25,-3.359 45.687,-0.2 65.543,10.388c19.856,10.588 35.834,28.825 42.228,50.4c8.333,28.118 -0.623,60.155 -20.913,81.329c-20.289,21.175 -50.78,31.46 -80.003,29.001m-48.656,-115.012c-8.548,26.048 -6.812,56.387 9.015,78.771c15.828,22.384 47.038,34.221 72.354,23.701c16.193,-6.729 28.098,-21.175 35.991,-36.834c2.35,-4.664 4.439,-9.613 4.66,-14.831c0.198,-4.67 -1.111,-9.26 -1.642,-13.904c-0.947,-8.275 0.583,-16.631 0.401,-24.958c-0.548,-24.942 -18.125,-48.616 -41.844,-56.353c-23.718,-7.738 -51.874,1.016 -67.024,20.837c-5.372,7.027 -9.153,15.168 -11.911,23.571m135.255,3.181c-7.424,10.974 -5.332,25.549 -2.945,38.581c0.365,1.993 0.826,4.157 2.389,5.448c5.118,-14.056 5.317,-29.848 0.556,-44.029m-156.554,-4.693c-1.642,1.135 -0.812,3.685 0.174,5.421c1.207,2.125 2.414,4.25 3.621,6.375c1.686,-2.727 1.995,-6.26 0.81,-9.239c-0.748,-1.88 -2.941,-3.708 -4.605,-2.557m0.854,50.981c-0.921,2.727 -1.562,5.548 -1.912,8.404c-0.21,1.713 0.482,4.194 2.165,3.815c2.103,-4.144 2.948,-8.916 2.393,-13.53c-0.465,-1.211 -2.231,0.082 -2.646,1.311l-0,0Z" style="fill:#413017;fill-rule:nonzero;"/><path d="M1914.68,184.527c2.56,3.036 5.222,6.154 8.776,7.927c6.651,3.318 16.272,2.031 20.002,8.461c-3.185,2.345 -7.44,2.442 -11.395,2.446c-18.903,0.017 -37.807,0.035 -56.711,0.052c-2.706,0.002 -5.817,-0.184 -7.463,-2.332c-1.645,-2.148 0.669,-6.301 3.004,-4.933c3.474,2.035 7.982,-1.87 8.111,-5.895c0.129,-4.024 -2.454,-7.569 -4.915,-10.756c-14.811,-19.185 -29.623,-38.369 -44.435,-57.554c-2.183,-2.827 -4.944,-5.938 -8.512,-5.769c-5.621,0.267 -7.297,7.706 -7.351,13.333c-0.144,14.881 -0.288,29.762 -0.433,44.643c-0.066,6.84 0.43,14.826 6.066,18.703c6.641,4.567 17.994,1.454 21.842,8.536c-24.377,2.206 -49.028,1.365 -73.197,-2.498c-0.19,-6.001 10.759,-3.959 14.34,-8.778c1.285,-1.73 1.329,-4.054 1.32,-6.209c-0.181,-43.453 -0.362,-86.905 -0.542,-130.357c-0.013,-2.934 -0.046,-5.968 -1.256,-8.64c-2.66,-5.87 -9.822,-7.945 -16.155,-9.139c-3.594,-0.678 -8.341,-3.685 -6.252,-6.688c0.994,-1.429 3.014,-1.578 4.755,-1.585c24.868,-0.102 49.738,0.43 74.578,1.595c3.213,0.15 4.315,4.987 2.232,7.438c-2.082,2.451 -5.691,2.878 -8.901,2.676c-3.21,-0.202 -6.516,-0.843 -9.583,0.127c-7.577,2.396 -9.002,12.33 -9.053,20.277c-0.069,10.912 -0.139,21.823 -0.208,32.735c-0.024,3.786 1.316,8.945 5.089,8.645c1.47,-0.117 2.685,-1.143 3.787,-2.121c17.7,-15.707 35.04,-31.818 52.003,-48.316c2.732,-2.658 5.67,-6.559 3.796,-9.877c-2.779,-4.919 -12.49,-1.827 -14.551,-7.087c0.167,-2.093 2.89,-2.736 4.988,-2.818c16.581,-0.656 33.161,-1.311 49.742,-1.966c3.015,-0.119 6.4,-0.104 8.557,2.006c2.158,2.11 1.134,6.923 -1.875,6.699c-16.309,-1.217 -31.199,9.217 -42.642,20.901c-11.443,11.684 -21.347,25.335 -35.376,33.74c-4.737,2.837 -1.555,10.1 2.005,14.321c21.938,26.019 43.875,52.038 65.813,78.057m-121.58,-139.475c-0.623,4.119 -0.735,8.296 -0.832,12.461c-0.98,41.802 -0.676,83.634 0.911,125.418c0.107,2.797 1.618,6.659 4.274,5.776c1.807,-0.601 2.111,-2.986 2.093,-4.89c-0.442,-46.359 -0.884,-92.719 -1.326,-139.078c-0.013,-1.354 -0.214,-3.005 -1.46,-3.534c-1.892,-0.804 -3.353,1.814 -3.66,3.847m86.636,129.651c0.5,-3.956 -3.277,-6.931 -6.182,-9.662c-3.906,-3.673 -6.795,-8.268 -9.817,-12.696c-9.026,-13.224 -19.607,-25.385 -31.455,-36.153c-0.666,3.581 2.03,6.823 4.494,9.507c16.276,17.726 30.679,37.17 42.892,57.905c0.951,1.614 2.153,3.416 4.015,3.623c1.554,-1.75 0.448,-4.528 -0.985,-6.379c-1.433,-1.851 -3.256,-3.823 -2.962,-6.145m16.225,10.992c-3.228,-3.039 -6.457,-6.078 -9.686,-9.117c-0.758,-0.714 -2.431,-1.099 -2.442,-0.058c1.727,2.701 2.937,5.74 4.962,8.225c2.024,2.486 5.223,4.402 8.346,3.68c0.437,-0.968 -0.406,-2.002 -1.18,-2.73l0,0Z" style="fill:#413017;fill-rule:nonzero;"/><path d="M1676.15,30.872c23.434,3.08 45.824,15.033 60.421,33.622c14.596,18.589 20.895,43.762 15.534,66.781c-1.852,7.948 -5.014,15.566 -9.067,22.65c-14.404,25.169 -40.636,43.224 -69.29,47.69c-28.654,4.466 -59.136,-4.749 -80.517,-24.341c-6.604,-6.052 -12.39,-13.062 -16.609,-20.964c-6.352,-11.896 -8.969,-25.376 -11.376,-38.646c-0.267,-1.471 -0.519,-3.055 0.118,-4.409c3.514,-7.467 4.346,-15.869 6.426,-23.855c6.454,-24.777 26.014,-45.732 50.288,-53.875c7.937,-2.662 16.258,-4.02 24.592,-4.819c9.803,-0.94 19.716,-1.118 29.48,0.166m-75.198,56.062c-8.449,25.839 -6.771,55.877 8.766,78.186c15.537,22.308 46.19,34.435 71.535,24.6c16.415,-6.369 28.748,-20.629 36.66,-36.359c3.774,-7.503 6.734,-16.164 4.274,-24.195c-2.783,-9.086 -0.474,-18.844 -0.363,-28.347c0.292,-25.267 -16.949,-49.786 -40.826,-58.058c-23.877,-8.271 -52.592,0.328 -67.992,20.361c-5.448,7.088 -9.275,15.315 -12.054,23.812m135.328,3.087c-7.465,10.948 -5.369,25.54 -2.973,38.573c0.368,2 0.834,4.174 2.411,5.458c5.114,-14.057 5.316,-29.848 0.562,-44.031m-156.809,-4.489c-1.088,1.059 -0.582,2.871 -0.004,4.275c1.057,2.569 2.198,5.253 4.367,6.99c1.352,-2.696 1.532,-5.953 0.488,-8.782c-0.75,-2.031 -3.301,-3.994 -4.851,-2.483m1.078,50.773c-0.92,2.726 -1.562,5.547 -1.911,8.404c-0.21,1.712 0.481,4.193 2.165,3.814c2.103,-4.143 2.947,-8.916 2.393,-13.53c-0.465,-1.211 -2.232,0.083 -2.647,1.312l0,-0Z" style="fill:#413017;fill-rule:nonzero;"/><path d="M1346.28,179.496c-6.514,9.423 -17.244,15.264 -28.338,18.118c-11.094,2.854 -22.677,3.028 -34.131,3.186c-22.167,0.306 -44.334,0.612 -66.5,0.918c-0.567,-2.708 2.043,-5.092 4.671,-5.955c2.629,-0.863 5.54,-0.889 7.975,-2.202c5.268,-2.841 5.921,-10.002 5.914,-15.986c-0.045,-38.861 -0.091,-77.722 -0.136,-116.583c-0.011,-9.234 -1.872,-20.982 -10.843,-23.171c-3.51,-0.856 -7.412,0.117 -10.682,-1.423c-3.269,-1.539 -3.812,-7.78 -0.198,-7.839c24.476,-0.4 48.972,0.477 73.357,2.625c10.622,0.936 21.552,2.214 30.864,7.407c13.253,7.39 21.583,22.802 20.505,37.937c-1.077,15.136 -11.506,29.213 -25.672,34.651c14.364,3.759 27.601,12.915 34.616,26.001c7.014,13.086 7.041,30.103 -1.402,42.316m-68.64,9.405c8.82,0.074 17.746,0.137 26.321,-1.931c8.575,-2.069 16.9,-6.522 21.872,-13.808c3.213,-4.708 -3.644,-10.696 -2.524,-16.283c2.536,-12.655 -4.917,-25.864 -15.763,-32.86c-10.846,-6.995 -24.375,-8.648 -37.25,-7.746c-1.042,0.073 -2.137,0.18 -2.994,0.778c-1.541,1.075 -1.724,3.246 -1.759,5.125c-0.369,19.7 -0.738,39.401 -1.107,59.102c-0.054,2.844 2.195,5.323 4.811,6.441c2.616,1.117 5.548,1.158 8.393,1.182m41.339,-131.678c-2.615,1.1 -2.364,6.034 -5.191,6.267c-1.163,-2.941 -2.326,-5.883 -3.489,-8.824c-0.37,-0.937 -0.753,-1.895 -1.423,-2.647c-1.141,-1.28 -2.948,-1.786 -4.148,-3.011c-8.453,-8.637 -22.237,-11.552 -33.463,-7.076c-2.176,0.868 -4.372,2.1 -5.477,4.166c-0.831,1.554 -0.937,3.38 -1.025,5.141c-0.669,13.413 -1.339,26.826 -2.008,40.239c-0.271,5.429 -0.118,11.805 4.269,15.016c2.826,2.068 6.62,2.132 10.11,1.836c8.778,-0.745 17.402,-3.261 25.204,-7.353c2.864,-1.502 5.786,-3.404 7.032,-6.387c0.764,-1.829 0.837,-3.946 1.939,-5.593c1.102,-1.646 4.008,-2.285 4.873,-0.503c0.769,1.583 3.27,1.47 4.498,0.21c1.228,-1.26 1.523,-3.133 1.758,-4.877c-1.884,-2.06 -5.43,-1.415 -7.656,-3.1c-2.562,-1.939 -2.149,-6.063 -0.341,-8.718c1.809,-2.656 4.607,-4.472 6.666,-6.938c1.201,-1.437 2.175,-3.255 1.897,-5.107c-0.278,-1.851 -2.299,-3.467 -4.025,-2.741m-69.626,134.184c2.41,-2.339 2.675,-6.055 2.777,-9.413c1.389,-45.609 0.69,-91.281 -2.096,-136.826c-0.034,-0.565 -0.078,-1.159 -0.387,-1.633c-0.767,-1.178 -2.739,-0.837 -3.584,0.287c-0.845,1.123 -0.886,2.637 -0.892,4.043c-0.188,44.808 0.445,89.62 1.899,134.404c0.104,3.195 0.297,6.633 2.283,9.138m85.785,-48.778c-4.886,7.293 -4.391,17.76 1.162,24.558c4.595,-7.403 4.111,-17.622 -1.162,-24.558l-0,0Z" style="fill:#413017;fill-rule:nonzero;"/><path d="M1550.65,94.024c7.269,26.694 -0.817,56.623 -19.254,77.25c-18.437,20.627 -46.352,31.912 -74.018,31.731c-19.484,-0.127 -39.056,-5.769 -55.021,-16.939c-15.966,-11.17 -28.13,-27.966 -32.742,-46.897c-1.522,-6.25 -2.263,-12.768 -4.962,-18.607c-1.871,-4.047 0.914,-8.549 2.669,-12.647c2.528,-5.9 2.947,-12.451 4.334,-18.717c3.508,-15.858 13.425,-29.95 26.328,-39.814c12.903,-9.864 28.636,-15.66 44.702,-18.037c22.513,-3.331 46.225,0.05 66.172,11.007c19.947,10.957 35.813,29.711 41.792,51.67m-149.456,57.434c6.857,16.659 20.333,30.486 36.809,37.77c6.725,2.972 13.963,4.894 21.312,5.143c24.483,0.831 46.422,-17.248 57.701,-38.994c3.857,-7.435 6.81,-15.93 4.954,-24.098c-2.46,-10.822 0.018,-22.115 -0.523,-33.2c-1.24,-25.354 -20.066,-48.883 -44.532,-55.654c-24.465,-6.77 -52.71,3.733 -66.807,24.843c-5.028,7.529 -8.318,16.101 -10.678,24.841c-5.252,19.455 -5.905,40.714 1.764,59.349m134.691,-60.663c-7.465,10.947 -5.368,25.54 -2.972,38.572c0.367,2.001 0.834,4.174 2.41,5.459c5.114,-14.057 5.316,-29.848 0.562,-44.031m-155.051,-5.223c-1.229,-0.138 -2.281,1.069 -2.428,2.298c-0.148,1.228 0.358,2.433 0.881,3.555c1.054,2.262 2.277,4.533 4.205,6.119c1.568,-3.235 1.347,-7.271 -0.564,-10.317c-0.489,-0.78 -1.178,-1.553 -2.094,-1.655m-2.68,61.477c-0.021,0.632 0.006,1.339 0.456,1.783c1.163,1.147 2.83,-0.795 3.21,-2.383c0.837,-3.491 1.206,-7.094 1.094,-10.683c-0.586,-1.197 -2.337,0.123 -2.803,1.372c-1.18,3.17 -1.844,6.531 -1.957,9.911Z" style="fill:#413017;fill-rule:nonzero;"/><path d="M1116.87,63.729c0.331,3.196 -0.283,7.614 -3.488,7.843c-5.656,-2.609 -5.131,-10.638 -7.296,-16.479c-3.655,-9.863 -15.703,-13.571 -26.213,-14.009c-8.187,-0.341 -16.665,0.566 -23.867,4.477c-7.201,3.91 -12.901,11.271 -13.121,19.463c-0.261,9.784 6.935,18.138 14.558,24.277c10.554,8.499 22.678,14.824 33.672,22.746c10.994,7.922 21.187,17.987 25.386,30.871c6.857,21.036 -5.066,45.361 -24.321,56.259c-19.255,10.898 -43.76,9.719 -63.983,0.743c-2.72,-1.207 -5.527,-2.676 -7.047,-5.233c-1.273,-2.141 -1.453,-4.736 -1.602,-7.222c-0.474,-7.905 -0.948,-15.81 -1.421,-23.715c-0.048,-0.798 -0.034,-1.738 0.609,-2.214c0.54,-0.401 1.301,-0.286 1.934,-0.058c9.42,3.392 3.169,21.107 11.972,25.877c1.723,0.935 3.737,1.134 5.689,1.314c15.498,1.422 32.286,2.392 45.403,-5.983c5.148,-3.286 9.626,-8.308 10.398,-14.366c1.049,-8.238 -4.798,-15.634 -10.587,-21.588c-11.222,-11.54 -23.648,-21.91 -37.01,-30.886c-6.063,-4.072 -12.404,-7.93 -17.283,-13.365c-12.626,-14.065 -12.337,-37.06 -1.408,-52.48c10.928,-15.421 30.6,-23.298 49.487,-22.596c9.403,0.35 18.643,2.596 28.031,3.221c2.314,0.154 4.843,0.29 6.564,1.844c1.777,1.603 2.136,4.212 2.383,6.593c0.853,8.222 1.707,16.444 2.561,24.666m-74.858,43.778c16.402,10.154 31.412,22.554 44.481,36.743c3.499,3.799 8.084,8.12 13.045,6.683c-5.311,-14.954 -18.856,-25.21 -31.947,-34.181c-13.091,-8.97 -27.041,-18.241 -34.011,-32.498c-4.726,2.013 -5.592,8.812 -3.1,13.304c2.492,4.492 7.165,7.245 11.532,9.949l0,-0Z" style="fill:#413017;fill-rule:nonzero;"/><path d="M422.732,186.478c15.018,-0.156 30.036,-0.313 45.054,-0.469c3.643,-0.038 7.98,-0.47 9.721,-3.67c1.551,-2.851 0.153,-6.421 0.813,-9.599c0.66,-3.177 6.353,-4.737 6.458,-1.494c0.247,7.663 0.495,15.326 0.742,22.989c0.058,1.792 0.095,3.676 -0.738,5.264c-1.737,3.311 -6.203,3.778 -9.942,3.811c-38.272,0.339 -76.558,-0.83 -114.739,-3.503c-1.036,-2.322 1.097,-4.94 3.467,-5.861c2.371,-0.921 5.04,-0.879 7.381,-1.873c6.2,-2.632 7.351,-10.769 7.591,-17.5c1.21,-33.983 2.42,-67.967 3.631,-101.95c0.266,-7.482 0.496,-15.199 -2.162,-22.198c-3.738,-9.841 -13.407,-17.151 -23.894,-18.064c-1.491,-0.13 -1.788,-2.459 -0.71,-3.499c1.078,-1.039 2.735,-1.107 4.232,-1.114c27.048,-0.125 54.096,-0.25 81.145,-0.375c-8.759,7.559 -22.907,7.198 -30.388,16.023c-5.065,5.975 -5.56,14.462 -5.762,22.294c-0.899,34.863 -0.76,69.752 0.415,104.607c0.147,4.366 0.473,9.143 3.459,12.332c3.461,3.699 9.16,3.902 14.226,3.849l-0,0Z" style="fill:#413017;fill-rule:nonzero;"/><path d="M590.913,34.523c2.062,10.574 1.849,21.586 -0.621,32.073c-6.076,-2.66 -6.312,-11.039 -9.463,-16.875c-5.673,-10.505 -20.366,-11.646 -32.047,-9.178c-9.95,2.103 -20.567,6.78 -24.375,16.21c-2.828,7.002 -1.107,15.225 2.895,21.628c4.003,6.403 10.026,11.268 16.219,15.59c19.275,13.45 42.9,24.716 51.061,46.757c5.249,14.178 2.368,31.06 -7.286,42.695c-9.023,10.872 -22.993,16.744 -37.006,18.547c-14.014,1.803 -28.225,-0.071 -42.161,-2.393c-6.382,-1.063 -14.609,-4.82 -13.123,-11.117c1.178,-4.99 2.356,-10.224 1.048,-15.182c-1.309,-4.957 -5.994,-9.429 -11.058,-8.627c-0.923,-5.173 4.48,-9.955 9.726,-9.662c5.247,0.294 9.664,4.406 11.869,9.176c2.205,4.77 2.618,10.143 2.998,15.384c0.548,7.55 10.287,10.09 17.854,10.307c16.68,0.478 36.236,-2.211 44.552,-16.679c1.613,-2.807 2.694,-5.998 2.573,-9.233c-0.108,-2.913 -1.176,-5.708 -2.471,-8.319c-7.552,-15.224 -22.457,-25.132 -36.189,-35.144c-13.732,-10.012 -27.701,-22.033 -31.627,-38.568c-3.608,-15.196 2.637,-31.939 14.447,-42.159c11.81,-10.22 28.477,-14.06 43.881,-11.484c8.183,1.369 16.558,4.414 24.547,2.17c2.013,-0.565 3.357,2.03 3.757,4.083m-15.097,113.343c-6.082,-12.281 -16.587,-21.739 -27.283,-30.308c-3.906,-3.128 -7.871,-6.181 -11.892,-9.158c-8.775,-6.493 -18.465,-13.526 -21.114,-24.116c-3.004,0.253 -4.699,3.962 -3.974,6.889c0.725,2.926 3.053,5.145 5.318,7.135c20.043,17.621 44.083,31.733 58.293,54.322c1.795,-0.45 1.473,-3.106 0.652,-4.764Z" style="fill:#413017;fill-rule:nonzero;"/><path d="M316.392,175.391c0.065,6.513 0.712,14.137 6.206,17.636c3.618,2.305 8.224,2.01 12.501,2.336c4.278,0.327 9.145,1.897 10.614,5.927c-24.259,0.386 -48.525,0.333 -72.782,-0.159c-3.077,-0.062 -2.108,-5.437 0.799,-6.447c2.907,-1.01 6.3,-0.034 9.071,-1.372c3.995,-1.929 4.513,-7.309 4.478,-11.745c-0.351,-44.337 -0.702,-88.673 -1.053,-133.01c-0.018,-2.275 -0.056,-4.637 -1.051,-6.683c-2.892,-5.945 -11.186,-5.681 -17.66,-7.018c-0.869,-0.179 -1.797,-0.447 -2.33,-1.156c-1.654,-2.202 2.015,-4.485 4.75,-4.809c24.791,-2.936 49.864,-3.501 74.762,-1.682c3.519,0.257 8.18,1.887 7.677,5.379c-10.347,3.726 -23.195,2.366 -30.832,10.279c-6.037,6.257 -6.315,15.919 -6.228,24.613c0.359,35.97 0.718,71.941 1.078,107.911m-12.624,13.809c-2.775,-46.433 -2.7,-93.037 0.225,-139.461c0.212,-3.368 -1.454,-8.277 -4.603,-7.067c-1.777,0.683 -2.186,2.968 -2.32,4.867c-3.199,45.629 -3.322,91.474 -0.367,137.12c0.144,2.22 0.41,4.683 2.084,6.148c1.674,1.464 5.114,0.614 4.981,-1.607Z" style="fill:#413017;fill-rule:nonzero;"/><path d="M2721.68,184.603c3.979,4.661 10.937,5 17.065,4.978c10.217,-0.036 20.435,-0.072 30.652,-0.108c7.448,-0.026 16.883,-1.496 18.757,-8.704c1.684,-6.476 3.367,-12.951 5.051,-19.427c0.646,-2.485 2.949,-5.639 5.002,-4.097c0.931,0.698 1.055,2.023 1.096,3.186c0.289,8.222 0.407,16.45 0.353,24.677c-0.028,4.419 -0.306,9.327 -3.46,12.422c-3.161,3.101 -8.084,3.277 -12.513,3.262c-35.69,-0.118 -71.379,-0.237 -107.068,-0.355c-1.611,-0.006 -3.725,-0.438 -3.878,-2.042c-0.093,-0.975 0.676,-1.812 1.465,-2.391c3.922,-2.878 9.794,-3.117 12.49,-7.165c1.519,-2.281 1.583,-5.198 1.595,-7.939c0.192,-42.13 0.383,-84.259 0.574,-126.389c0.022,-4.762 -0.293,-10.248 -4.085,-13.13c-2.591,-1.97 -6.08,-2.106 -9.323,-2.378c-3.244,-0.272 -6.807,-0.947 -8.793,-3.527c-1.985,-2.579 -0.702,-7.436 2.553,-7.431c23.636,0.039 47.272,0.078 70.909,0.117c2.291,0.004 4.837,0.107 6.466,1.718c1.63,1.61 1.046,5.199 -1.244,5.264c-9.755,0.28 -21.574,1.887 -25.393,10.867c-1.274,2.995 -1.364,6.341 -1.43,9.595c-0.783,38.369 -0.887,76.752 -0.314,115.125c0.073,4.869 0.311,10.169 3.473,13.872m-18.477,5.437c1.537,-0.623 1.762,-2.67 1.744,-4.329c-0.502,-47.29 -1.004,-94.58 -1.506,-141.87c-0.007,-0.716 -0.033,-1.486 -0.462,-2.059c-1.685,-2.245 -4.468,1.644 -4.508,4.451c-0.655,46.129 -0.438,92.27 0.65,138.391c0.063,2.679 1.599,6.424 4.082,5.416l-0,0Z" style="fill:#413017;fill-rule:nonzero;"/><path d="M2143.53,112.418c-3.693,3.19 -18.417,41.578 -19.259,43.527c-2.132,4.935 -3.798,10.739 -5.255,15.497c-0.638,2.084 -0.433,4.319 -0.591,6.493c-0.566,7.766 -5.675,14.348 -10.569,20.404c-0.486,0.602 -1.031,1.242 -1.787,1.406c-1.308,0.283 -2.408,-0.955 -3.129,-2.081c-8.55,-13.34 -7.746,-29.23 -7.023,-44.249c-3.717,-13.237 -1.93,-9.538 -8.721,-20.76c-1.01,-1.67 -2.361,-4.34 -4.482,-8.297c-1.519,-2.832 -3.229,-5.456 -3.458,-8.662c-0.369,-5.17 -1.4,-3.911 -0.036,-13.101c-5.754,-6.694 -7.721,-9.023 -8.099,-15.446c-0.377,-6.423 -1.263,-6.46 0.005,-14.014c-6.067,-4.034 -4.27,-2.183 -6.482,-6.404c-2.212,-4.221 -1.786,-9.349 -3.419,-13.825c-2.821,-7.738 -10.985,-11.94 -18.488,-15.335c-2.646,-1.198 -2.278,-5.458 -0.003,-7.264c2.275,-1.805 5.433,-1.856 8.337,-1.824c20.137,0.223 40.274,0.446 60.412,0.669c2.265,0.025 4.754,0.135 6.421,1.668c1.668,1.534 1.461,4.999 -0.759,5.449c-6.301,1.279 -12.603,2.558 -18.905,3.837c-2.264,0.46 -4.64,0.973 -6.377,2.497c-3.516,3.084 -2.876,8.63 -1.923,13.208c5.523,26.557 11.579,53.002 18.162,79.316c1.011,4.043 2.781,8.821 6.88,9.574c15.708,-34.373 29.463,-69.639 41.175,-105.571c1.307,-4.01 3.894,-8.909 8.07,-8.318c3.076,0.436 4.778,3.706 5.98,6.57c14.049,33.485 28.098,66.97 42.148,100.454c1.5,3.577 4.488,7.885 8.155,6.622c2.243,-0.773 3.256,-3.313 3.99,-5.568c9.838,-30.227 18.167,-60.945 24.947,-92.001c1.269,-5.812 -5.761,-9.984 -11.682,-10.548c-5.922,-0.563 -12.674,0.141 -17.01,-3.931c0.901,-3.445 5.348,-4.259 8.908,-4.366c14.39,-0.431 28.8,-0.232 43.173,0.594c5.817,0.335 12.087,0.956 16.444,4.825c-2.755,5.864 -11.623,4.349 -17.216,7.621c-4.35,2.545 -6.246,7.746 -7.788,12.545c-5.542,17.251 -10.659,34.638 -15.345,52.141c-2.088,7.801 -4.49,15.519 -7.198,23.128c-3.267,9.179 -6.978,18.195 -10.193,27.392c-5.044,14.427 -8.862,29.283 -11.397,44.355c-0.51,3.031 -5.285,1.346 -7.067,-1.159c-6.558,-9.217 -5.549,-17.514 -9.466,-29.502c-5.711,-17.477 -5.628,-13.589 -6.809,-23.139c-0.262,-2.121 -3.241,-12.359 -4.569,-16.468c-3.489,-6.54 -6.488,-16.708 -8.156,-20.477c-6.558,-10.631 -10.731,-29.708 -19.987,-28.562c-2.049,0.254 -4.143,-0.194 -5.894,0.9c-9.718,6.074 -5.991,22.691 -14.665,30.18Z" style="fill:#413017;fill-rule:nonzero;"/></g><g><path d="M1050.45,290.936c2.553,-4.746 8.176,-7.185 13.561,-7.393c5.385,-0.207 10.648,1.444 15.784,3.076c0.46,2.037 -1.721,3.772 -3.783,4.104c-2.062,0.331 -4.214,-0.138 -6.24,0.369c-4.084,1.023 -6.252,5.699 -6.246,9.909c0.006,4.21 1.571,8.246 2.279,12.395c1.589,9.314 -1.175,18.831 -0.724,28.269c0.451,9.438 6.179,20.137 15.62,20.493c0.54,3.329 -4.039,4.782 -7.409,4.886c-12.266,0.381 -24.533,0.747 -36.799,1.098c-0.649,-3.853 4.839,-5.13 8.13,-7.237c4.557,-2.917 5.452,-9.083 5.903,-14.474c0.892,-10.669 1.78,-21.472 0.007,-32.03c-8.633,14.408 -17.266,28.817 -25.898,43.225c-1.462,2.44 -3.954,5.258 -6.579,4.164c-1.226,-0.511 -1.96,-1.75 -2.609,-2.91c-8.692,-15.556 -17.385,-31.113 -26.078,-46.669c-0.459,8.586 -0.918,17.172 -1.377,25.758c-0.272,5.077 -0.523,10.308 1.16,15.106c1.682,4.798 5.799,9.112 10.874,9.423c1.705,0.105 2.083,2.773 0.856,3.962c-1.226,1.189 -3.121,1.26 -4.829,1.259c-20.141,-0.007 -40.282,-0.013 -60.424,-0.02c-3.037,-0.001 -3.002,-5.047 -0.58,-6.879c2.423,-1.832 5.802,-2.094 8.099,-4.081c4.138,-3.577 2.245,-10.912 -2.233,-14.053c-4.478,-3.141 -10.327,-3.29 -15.797,-3.323c-5.171,-0.031 -10.684,0.033 -15.007,2.871c-4.324,2.839 -6.47,9.562 -2.865,13.27c1.674,1.723 4.125,2.399 6.177,3.648c2.052,1.25 3.846,3.713 2.911,5.926c-0.966,2.287 -4.005,2.64 -6.488,2.645c-9.191,0.02 -18.381,0.04 -27.572,0.06c-1.535,0.004 -3.215,-0.043 -4.382,-1.042c-1.166,-0.998 -1.188,-3.309 0.277,-3.769c12.732,-3.999 18.219,-18.515 23.026,-30.964c5.706,-14.776 12.78,-29.023 21.103,-42.5c0.991,-1.605 2.084,-3.277 3.777,-4.108c1.694,-0.832 4.149,-0.405 4.861,1.342c8.109,19.879 16.219,39.758 24.328,59.637c1.46,3.58 2.986,7.261 5.717,9.997c2.731,2.736 7.004,4.314 10.557,2.79c4.977,-2.134 5.978,-8.626 6.265,-14.034c0.594,-11.207 1.188,-22.413 1.782,-33.619c0.227,-4.274 0.434,-8.687 -1.046,-12.703c-1.479,-4.016 -5.107,-7.564 -9.387,-7.563c2.48,-5.014 8.037,-8.338 13.627,-8.152c5.59,0.185 10.914,3.87 13.056,9.037c6.883,16.601 15.117,32.641 24.595,47.91c10.9,-15.8 20.927,-32.202 30.02,-49.106m-118.929,40.048c2.117,-2.317 1.39,-5.984 0.293,-8.925c-0.932,-2.502 -2.04,-4.938 -3.311,-7.286c-0.533,-0.985 -1.152,-2.009 -2.157,-2.503c-2.351,-1.157 -4.881,1.2 -6.261,3.427c-1.959,3.164 -3.477,6.601 -4.496,10.18c-0.324,1.137 -0.599,2.333 -0.375,3.493c0.404,2.087 2.379,3.583 4.448,4.069c2.069,0.486 4.233,0.159 6.329,-0.19c2.004,-0.333 4.16,-0.765 5.53,-2.265Z" style="fill:#413017;fill-rule:nonzero;"/><path d="M1629.98,236.814c4.842,0.071 5.924,6.805 5.434,11.623c-0.255,2.496 -0.509,4.993 -0.763,7.49c-0.205,2.012 -0.52,4.239 -2.081,5.525c-1.561,1.286 -4.661,0.436 -4.498,-1.579c0.309,-3.807 -3.817,-6.819 -7.633,-6.66c-3.816,0.16 -7.16,2.546 -9.992,5.108c-8.727,7.894 -15.015,18.449 -17.801,29.883c-1.084,4.452 3.306,8.717 7.851,9.305c4.544,0.588 8.988,-1.361 13.175,-3.224c1.133,-0.504 2.339,-1.017 3.57,-0.866c3.573,0.438 4.144,5.344 3.743,8.92c-0.359,3.205 -0.717,6.409 -1.076,9.614c-0.09,0.807 -0.191,1.645 -0.614,2.339c-1.21,1.981 -4.336,1.659 -6.142,0.199c-1.805,-1.46 -2.855,-3.654 -4.476,-5.316c-4.838,-4.963 -13.571,-3.712 -18.879,0.747c-5.307,4.458 -8.075,11.156 -10.809,17.525c-12.806,29.827 -30.904,59.996 -60.454,73.427c-21.243,9.655 -46.871,9.07 -67.651,-1.544c-14.597,-7.456 -26.924,-19.97 -32.395,-35.421c-5.47,-15.45 -3.432,-33.78 6.769,-46.609c14.984,-18.845 43.72,-21.795 66.168,-13.091c22.448,8.705 39.948,26.542 56.185,44.319c5.435,-8.946 5.274,-20.99 -0.397,-29.787c-5.672,-8.797 -16.574,-13.916 -26.966,-12.66c-3.684,0.446 -5.153,-5.46 -2.561,-8.116c2.593,-2.655 6.763,-2.742 10.474,-2.653c12.832,0.31 25.665,0.621 38.497,0.931c6.334,0.153 14.808,-1.522 15.18,-7.847c0.681,-11.607 6.986,-22.33 15.27,-30.489c8.285,-8.158 18.473,-14.079 28.673,-19.662c1.312,-0.718 2.703,-1.452 4.199,-1.431m-165.788,71.076c-17.745,-1.484 -34.79,12.611 -38.73,29.977c-3.94,17.366 4.12,36.256 18.074,47.319c13.955,11.062 32.887,14.75 50.506,12.161c17.618,-2.588 33.996,-10.992 48.124,-21.833c3.246,-2.491 3.983,-7.279 2.779,-11.19c-1.203,-3.91 -3.959,-7.129 -6.744,-10.126c-15.409,-16.589 -33.953,-30.256 -54.359,-40.066c-6.23,-2.994 -12.762,-5.666 -19.65,-6.242m104.028,-0.664c-6.334,-0.86 -12.899,0.045 -18.764,2.587c9.025,5.669 11.13,18.08 9.612,28.629c-0.394,2.738 -0.832,5.934 1.105,7.907c4.266,-8.792 8.533,-17.584 12.799,-26.376c1.613,-3.324 3.127,-7.608 0.716,-10.407c-1.324,-1.536 -3.458,-2.067 -5.468,-2.34Z" style="fill:#413017;fill-rule:nonzero;"/><path d="M2125.56,347.617c7.611,-5.039 12.787,-13.595 13.718,-22.675c6.928,6.273 2.637,17.964 -3.613,24.913c-4.052,4.507 -8.759,8.424 -13.926,11.59c-4.251,2.604 -9.289,4.756 -14.114,3.505c-3.656,-0.948 -6.589,-3.74 -8.668,-6.892c-5.893,-8.934 -5.556,-21.538 0.806,-30.144c-16.397,11.341 -32.794,22.681 -49.191,34.022c-2.902,2.007 -6.662,4.076 -9.732,2.335c4.819,-12.208 9.637,-24.417 14.456,-36.625c2.06,-5.222 4.157,-10.657 3.793,-16.259c-0.363,-5.601 -3.944,-11.416 -9.463,-12.442c-5.519,-1.026 -11.554,5.072 -9.117,10.129c3.88,8.051 0.758,17.622 -2.952,25.754c-4.63,10.149 -10.501,20.293 -19.863,26.36c-9.362,6.067 -23.011,6.759 -30.926,-1.102c-2.315,-2.299 -4.291,-5.347 -7.47,-6.076c-6.107,-1.402 -11.117,6.705 -17.333,5.919c-3.762,-0.476 -6.4,-4.27 -6.838,-8.037c-0.438,-3.767 0.807,-7.504 2.058,-11.085c9.088,-26.02 19.406,-51.612 30.905,-76.661c2.188,-4.766 -8.451,-8.059 -6.67,-12.991c0.571,-1.582 2.262,-2.413 3.801,-3.09c4.015,-1.763 8.332,-3.567 12.648,-2.79c4.315,0.777 8.208,5.353 6.567,9.42c-11.033,27.348 -22.066,54.695 -33.099,82.043c-1.36,3.37 -2.199,8.224 1.09,9.77c1.734,0.815 3.82,0.127 5.416,-0.935c6.748,-4.494 7.563,-13.828 10.342,-21.444c3.723,-10.205 11.846,-18.331 21.065,-24.076c9.219,-5.746 19.57,-9.374 29.825,-12.957c3.421,-1.196 6.874,1.324 10.073,3.024c3.2,1.699 8.246,1.98 9.411,-1.451c1.14,-3.354 6.598,-2.251 8.425,0.783c1.827,3.035 1.736,6.882 3.289,10.065c6.12,-5.712 13.893,-9.634 22.124,-11.161c5.034,-0.935 10.759,-0.805 14.601,2.579c3.842,3.385 3.917,10.86 -0.806,12.836c-2.404,1.006 -1.59,5.086 0.828,6.057c2.418,0.971 5.153,-0.2 7.321,-1.646c6.895,-4.599 11.524,-11.993 18.321,-16.736c6.797,-4.744 17.941,-5.495 21.944,1.762c3.023,5.478 0.165,12.525 -4.251,16.958c-6.265,6.29 -15.642,9.319 -24.403,7.882c-4.713,-0.773 -9.464,1.868 -12.508,5.548c-3.044,3.679 -4.71,8.276 -6.32,12.772c-0.855,2.386 -1.722,4.902 -1.305,7.403c0.657,3.936 4.531,6.787 8.5,7.208c3.969,0.422 7.914,-1.158 11.241,-3.362m-106.045,-11.041c5.147,-7.334 8.987,-16.413 6.943,-25.136c-0.404,-1.723 -1.165,-3.55 -2.751,-4.335c-2.205,-1.091 -4.97,0.466 -6.115,2.644c-1.145,2.177 -1.129,4.753 -1.191,7.212c-0.062,2.46 -0.287,5.079 -1.784,7.031c-0.989,1.29 -3.217,0.516 -4.017,-0.899c-0.801,-1.415 -0.743,-3.138 -1.113,-4.721c-0.37,-1.583 -1.543,-3.267 -3.166,-3.168c-5.877,6.553 -10.076,14.599 -12.088,23.168c-0.635,2.701 -1.045,5.592 -0.11,8.203c0.935,2.612 3.604,4.786 6.333,4.288c8.015,-1.464 14.379,-7.617 19.059,-14.287m72.559,-35.601c-1.134,-0.793 -2.678,-0.42 -3.999,-0.01c-6.289,1.95 -12.851,4.274 -17.12,9.286c-3.152,3.7 -4.71,8.508 -5.541,13.297c-0.979,5.648 -1.044,11.454 -0.19,17.123c6.285,-3.711 12.308,-7.863 18.011,-12.417c3.507,-2.801 7.004,-5.9 8.784,-10.021c1.805,-4.177 1.636,-8.905 1.435,-13.452c-0.062,-1.4 -0.231,-3.004 -1.38,-3.806m38.112,3.19c-0.642,0.675 -1.334,1.51 -1.151,2.424c0.293,1.456 2.309,1.582 3.777,1.354c1.465,-0.227 2.983,-0.474 4.212,-1.304c1.229,-0.83 2.079,-2.42 1.58,-3.816c-0.578,-1.617 -2.698,-2.215 -4.338,-1.706c-1.64,0.51 -2.897,1.803 -4.08,3.048m-28.992,15.278c0.94,-0.016 0.539,1.505 0.803,2.407c0.45,1.536 3.216,0.298 2.826,-1.254c-0.391,-1.552 -2.429,-2.085 -3.971,-1.655l0.342,0.502Z" style="fill:#413017;fill-rule:nonzero;"/><path d="M661.956,367.802c-0.33,-3.631 5.104,-3.984 8.43,-5.48c5.272,-2.372 5.919,-9.468 5.787,-15.247c-0.34,-14.899 -0.68,-29.798 -1.02,-44.697c-0.053,-2.313 -0.202,-4.867 -1.826,-6.515c-1.729,-1.755 -4.485,-1.841 -6.948,-1.813c-4.201,0.048 -8.507,0.115 -12.424,1.632c-3.918,1.517 -7.427,4.815 -7.959,8.982c-0.227,1.781 -2.806,2.288 -4.318,1.319c-1.511,-0.969 -2.268,-2.729 -3.216,-4.254c-3.695,-5.94 -11.003,-8.809 -17.993,-9.099c-13.424,-0.556 -26.876,7.83 -31.937,20.276c-5.061,12.446 -1.112,28.073 9.486,36.331c10.598,8.258 26.992,8.15 37.25,-0.528c2.789,-2.359 6.119,-5.488 9.513,-4.135c0.436,7.168 -3.214,14.446 -9.22,18.384c-3.616,2.371 -7.899,3.541 -12.181,4.148c-18.994,2.692 -39.61,-6.388 -48.937,-23.152c-9.328,-16.765 -5.449,-40.252 9.829,-51.855c4.969,-3.774 10.833,-6.254 16.874,-7.814c11.221,-2.898 22.978,-2.701 34.566,-2.485c38.117,0.71 76.235,1.42 114.352,2.129c5.719,0.107 11.747,0.299 16.625,3.285c-2.072,6.091 -13.241,2.936 -16.296,8.598c-0.748,1.385 -0.801,3.026 -0.837,4.6c-0.346,14.994 -0.693,29.988 -1.039,44.982c-0.086,3.758 0.034,8.024 2.83,10.536c4.351,3.91 13.629,2.241 14.671,7.997c-13.597,3.698 -27.878,4.861 -41.894,3.412c-2.519,-0.261 -5.313,-0.765 -6.808,-2.809c-1.495,-2.044 -0.11,-5.86 2.384,-5.422c5.655,0.993 11.163,-3.317 13.493,-8.565c2.33,-5.248 2.231,-11.208 2.091,-16.948c-0.257,-10.475 -0.513,-20.951 -0.769,-31.426c-0.086,-3.512 -0.364,-7.456 -3.006,-9.771c-2.643,-2.315 -8.158,-0.574 -7.493,2.876c0.491,2.548 0.82,5.353 -0.49,7.593c-1.31,2.24 -4.929,3.181 -6.486,1.105c-3.275,-4.363 -7.468,-8.53 -12.831,-9.529c-5.364,-0.998 -11.79,2.616 -11.908,8.071c-0.311,14.413 -0.622,28.827 -0.932,43.241c-0.132,6.126 0.469,13.556 5.933,16.329c2.505,1.271 6.168,1.834 6.556,4.615c-13.932,1.158 -27.929,1.527 -41.902,1.103Z" style="fill:#413017;fill-rule:nonzero;"/><path d="M2428.14,292.915c3.563,6.334 -0.801,14.468 -6.662,18.766c-6.302,4.621 -14.41,6.708 -22.159,5.703c-5.026,-0.651 -10.07,2.199 -13.025,6.315c-2.954,4.117 -4.076,9.3 -4.263,14.363c-0.2,5.4 1.549,11.994 6.786,13.321c3.192,0.808 6.53,-0.761 9.085,-2.837c4.468,-3.628 7.51,-8.968 8.353,-14.661c0.356,-2.398 0.373,-4.964 1.662,-7.016c1.289,-2.053 4.534,-3.108 6.122,-1.277c2.154,2.482 6.143,2.559 9.095,1.114c2.952,-1.444 5.131,-4.052 7.3,-6.521c6.896,-7.85 14.582,-15.005 22.904,-21.321c4.366,-3.314 9.186,-6.501 14.648,-6.952c5.136,-0.425 9.9,-2.714 14.794,-4.331c4.894,-1.616 10.431,-2.528 15.069,-0.28c4.638,2.248 7.39,8.735 4.239,12.814c-6.151,-2.298 -12.988,-1.118 -19.442,0.091c-2.007,0.376 -4.126,0.806 -5.634,2.183c-1.508,1.376 -2.032,4.039 -0.521,5.413c4.442,4.037 -7.169,12.671 -2.176,16.002c2.725,1.817 2.15,6.053 0.492,8.877c-1.659,2.823 -4.137,5.399 -4.395,8.663c-0.46,5.805 8.584,9.356 12.196,4.788c1.319,-1.667 1.785,-3.83 2.317,-5.889c6.673,-25.85 30.852,-46.177 57.464,-48.309c5.047,-0.405 7.724,-6.014 9.389,-10.796c1.307,-3.753 2.614,-7.506 3.921,-11.26c1.477,-4.239 2.123,-10.38 -2.114,-11.863c-3.311,-1.159 -1.014,-6.168 1.65,-8.45c3.525,-3.018 7.43,-6.192 12.067,-6.371c4.636,-0.179 9.551,4.468 7.749,8.744c-4.85,11.503 -9.699,23.006 -14.549,34.51c-0.64,1.517 -1.246,3.379 -0.262,4.7c0.654,0.879 1.807,1.194 2.872,1.453c6.497,1.582 15.509,1.876 17.57,-4.485c1.194,-3.685 7.396,-2.617 8.91,0.949c1.514,3.566 -0.032,7.621 -1.567,11.178c-4.326,10.025 -8.651,20.05 -12.977,30.076c-1.802,4.175 -3.632,8.47 -3.81,13.014c-0.179,4.544 1.659,9.461 5.637,11.665c-6.616,4.571 -15.396,5.848 -23.04,3.35c-1.989,-0.65 -4.06,-1.695 -4.901,-3.61c-0.842,-1.915 0.42,-4.718 2.508,-4.595c5.648,0.333 9.038,-6.007 10.972,-11.324c2.741,-7.533 5.481,-15.067 8.221,-22.601c1.668,-4.587 3.249,-10.027 0.494,-14.056c-3.193,-4.671 -10.677,-4.311 -15.083,-0.761c-4.406,3.549 -6.501,9.157 -8.403,14.485c-2.142,6.001 -4.285,12.002 -6.427,18.003c-2.246,6.292 -3.387,15.313 2.808,17.816c2.291,0.926 2.575,4.325 1.145,6.34c-1.429,2.016 -3.891,2.975 -6.21,3.829c-4.392,1.616 -8.785,3.232 -13.177,4.848c-1.832,0.674 -3.822,1.356 -5.696,0.808c-1.874,-0.549 -3.29,-2.934 -2.147,-4.517c4.819,-6.675 7.784,-14.674 8.482,-22.877c-3.951,4.092 -7.902,8.184 -11.853,12.277c-4.035,4.179 -8.233,8.471 -13.607,10.677c-5.374,2.206 -12.285,1.769 -16.116,-2.598c-6.701,-7.638 -21.294,-5.212 -25.163,4.183c-0.822,1.997 -4.19,1.239 -5.006,-0.76c-0.817,-1.998 0.007,-4.248 0.765,-6.269c0.758,-2.022 1.434,-4.369 0.377,-6.252c-1.574,-2.806 -5.921,-2.508 -8.492,-0.574c-2.571,1.933 -4.136,4.919 -6.48,7.123c-5.336,5.02 -14.415,4.92 -20.165,0.38c-5.75,-4.54 -8.037,-12.706 -6.31,-19.825c-4.24,7.701 -8.717,15.672 -15.9,20.74c-7.183,5.068 -17.911,6.27 -24.375,0.312c-7.115,-6.558 -6.001,-18.112 -2.691,-27.205c5.801,-15.935 16.711,-29.966 30.724,-39.516c4.045,-2.756 8.503,-5.201 13.376,-5.661c4.873,-0.46 10.235,1.481 12.635,5.747m80.95,51.483c5.656,-5.795 10.96,-11.934 15.87,-18.373c2.819,-3.696 5.645,-7.99 5.054,-12.6c-0.61,-4.765 -6.503,-8.611 -10.479,-5.916c-11.789,7.991 -23.194,18.863 -25.097,32.978c-0.362,2.689 -0.221,5.776 1.769,7.621c1.823,1.692 4.716,1.762 7.015,0.811c2.298,-0.951 4.131,-2.741 5.868,-4.521m-49.011,-35.022c-3.355,-1.851 -7.394,0.58 -10.394,2.966c-8.643,6.876 -17.22,14.714 -20.912,25.123c-1.174,3.31 -1.571,7.57 1.136,9.806c2.42,1.999 6.099,1.278 8.855,-0.223c3.893,-2.122 6.941,-5.488 9.782,-8.892c3.901,-4.675 7.567,-9.547 10.978,-14.591c1.5,-2.219 2.987,-4.559 3.406,-7.205c0.419,-2.647 -0.505,-5.689 -2.851,-6.984m-46.895,-8.69c-4.053,-0.663 -8.361,0.431 -11.608,2.945c-0.391,0.303 -0.793,0.671 -0.861,1.161c-0.119,0.852 0.795,1.461 1.602,1.76c4.156,1.541 9.064,0.86 12.643,-1.754c0.483,-0.353 0.967,-0.775 1.127,-1.351c0.403,-1.459 -1.41,-2.517 -2.903,-2.761m128.949,0.924c-1.111,-1.724 -3.815,-1.972 -5.415,-0.689c-1.6,1.284 -2.028,3.702 -1.257,5.603c0.564,1.39 1.703,2.538 3.09,3.112c2.534,-2.004 5.333,-5.31 3.582,-8.026l0,-0Z" style="fill:#413017;fill-rule:nonzero;"/><path d="M2707.4,327.742c-1.498,11.283 -3.018,22.662 -6.819,33.39c-8.088,22.832 -26.843,41.63 -49.657,49.771c-4.24,1.513 -8.775,2.686 -13.215,1.937c-4.439,-0.749 -8.741,-3.855 -9.653,-8.263c-0.913,-4.409 2.804,-9.525 7.276,-9.011c3.528,0.405 5.966,3.708 9.219,5.132c5.229,2.289 11.222,-0.681 15.773,-4.127c14.643,-11.089 24.561,-28.221 26.885,-46.442c-5.268,3.796 -10.651,7.65 -16.835,9.628c-6.184,1.978 -13.417,1.804 -18.646,-2.045c-7.888,-5.806 -20.58,-3.187 -25.525,5.268c-1.909,3.263 -7.55,1.38 -8.711,-2.217c-1.161,-3.597 0.537,-7.429 2.196,-10.825c6.984,-14.299 13.969,-28.597 20.954,-42.896c-14.775,-0.007 -24.929,14.328 -32.429,27.057c-4.356,7.393 -8.711,14.786 -13.067,22.18c-1.853,3.145 -4.03,6.551 -7.539,7.559c-3.509,1.008 -8.072,-2.424 -6.565,-5.75c7.351,-16.225 14.702,-32.45 22.053,-48.675c1.481,-3.269 1.972,-8.562 -1.58,-9.079c-1.837,-0.268 -2.64,-2.708 -1.939,-4.428c0.701,-1.72 2.341,-2.839 3.895,-3.856c3.365,-2.201 6.989,-4.484 11.01,-4.468c4.021,0.015 8.276,3.453 7.545,7.407c-0.546,2.953 -3.582,5.81 -2.105,8.425c6.52,-0.725 12.794,-3.527 17.684,-7.899c2.484,-2.221 4.679,-4.876 7.666,-6.351c2.988,-1.475 7.177,-1.308 9.027,1.463c1.577,2.365 0.858,5.519 0.012,8.232c-3.646,11.692 -8.627,22.968 -14.815,33.537c-2.752,4.701 -5.475,11.407 -1.276,14.878c3.158,2.611 8.23,0.915 10.803,-2.276c2.572,-3.191 3.437,-7.375 4.74,-11.261c4.193,-12.501 13.527,-22.826 24.49,-30.151c10.964,-7.326 23.528,-11.9 36.193,-15.57c5.393,-1.564 11.55,-2.886 16.336,0.051c4.786,2.937 5.121,11.957 -0.376,13.103c-1.884,0.393 -3.806,-0.249 -5.683,-0.675c-7.44,-1.687 -15.607,0.194 -21.56,4.965c5.847,5.288 5.275,14.467 4.238,22.282m-43.734,21.543c1.738,1.427 4.17,1.727 6.399,1.43c7.114,-0.948 12.368,-7.026 16.172,-13.111c4.483,-7.173 7.97,-14.967 10.327,-23.09c0.437,-1.505 0.819,-3.193 0.086,-4.578c-1.521,-2.872 -5.876,-1.813 -8.671,-0.153c-10.423,6.19 -19.029,15.401 -24.498,26.221c-2.165,4.283 -3.526,10.237 0.185,13.281l-0,0Z" style="fill:#413017;fill-rule:nonzero;"/><path d="M245.535,332.903c-3.583,-14.73 1.984,-31.125 13.331,-41.178c11.346,-10.053 27.864,-13.648 42.562,-9.934c18.566,4.69 33.938,21.918 34.15,41.066c0.131,11.882 -5.404,23.595 -14.309,31.462c-8.904,7.867 -20.965,11.896 -32.842,11.527c-19.357,-0.602 -38.315,-14.125 -42.892,-32.943m21.796,-19.016c-2.657,10.938 0.503,23.116 8.145,31.381c3.972,4.296 9.219,7.606 15.015,8.409c8.611,1.193 17.451,-3.523 22.276,-10.755c4.825,-7.231 5.909,-16.556 4.097,-25.058c-1.516,-7.106 -5.059,-13.904 -10.621,-18.58c-5.562,-4.675 -13.234,-7.018 -20.324,-5.43c-9.366,2.098 -16.322,10.706 -18.588,20.033l0,-0Z" style="fill:#413017;fill-rule:nonzero;"/><path d="M1772.93,349.726c3.526,4.715 11.165,4.331 15.859,0.778c4.695,-3.552 7.17,-9.238 9.449,-14.666c8.284,-19.728 16.568,-39.455 24.852,-59.182c1.773,-4.225 3.576,-8.582 3.628,-13.163c0.053,-4.581 -2.07,-9.497 -6.246,-11.382c2.995,-2.598 6.096,-5.258 9.858,-6.51c3.762,-1.251 8.395,-0.754 10.984,2.249c3.494,4.053 1.836,10.238 -0.002,15.263c-5.364,14.661 -10.728,29.322 -16.091,43.984c5.539,-4.276 11.078,-8.551 16.617,-12.827c3.604,-2.781 7.561,-5.692 12.113,-5.743c4.552,-0.051 9.31,4.397 7.723,8.664c-4.996,13.427 -9.993,26.855 -14.989,40.282c-1.419,3.814 -2.352,9.101 1.199,11.088c1.824,-1.744 5.247,-1.259 6.515,0.921c-3.843,4.986 -8.372,9.444 -13.418,13.208c-1.959,1.461 -4.307,2.886 -6.695,2.361c-3.34,-0.735 -4.721,-4.753 -4.916,-8.168c-0.879,-15.385 9.839,-28.726 14.801,-43.315c0.499,-1.467 0.938,-3.092 0.366,-4.532c-0.92,-2.315 -4.122,-2.951 -6.401,-1.943c-2.279,1.007 -3.832,3.129 -5.276,5.159c-9.989,14.043 -19.978,28.086 -29.967,42.129c-3.5,4.92 -9.996,10.358 -14.652,6.514c-3.296,-2.722 -7.922,0.596 -11.878,2.213c-7.44,3.04 -17.016,-1.596 -19.245,-9.317c-1.968,-6.818 1.262,-13.941 4.41,-20.301c5.206,-10.518 10.412,-21.036 15.618,-31.554c1.413,-2.854 2.724,-6.596 0.559,-8.933c-2.087,-2.254 -6.269,-1.67 -8.026,-4.19c-2.032,-2.913 1.258,-6.834 4.681,-7.784c3.422,-0.951 7.294,-0.554 10.293,-2.457c2.96,-1.88 4.252,-5.482 6.473,-8.195c2.222,-2.714 6.859,-4.342 8.997,-1.563c1.626,2.114 0.569,5.11 0.297,7.763c-0.272,2.654 1.705,6.182 4.158,5.137c3.221,-1.373 5.507,4.146 3.399,6.942c-2.107,2.796 -5.896,3.57 -8.959,5.267c-5.167,2.864 -8.214,8.357 -10.993,13.571c-4.335,8.131 -8.669,16.262 -13.004,24.394c-2.982,5.595 -5.888,12.761 -2.091,17.838Z" style="fill:#413017;fill-rule:nonzero;"/><path d="M2269.73,284.282c6.813,-4.083 10.511,-11.677 15.089,-18.167c6.666,-9.449 15.842,-17.111 26.328,-21.985c4.856,-2.256 10.409,-3.935 15.516,-2.325c5.107,1.611 9.001,7.723 6.56,12.489c-2.586,5.048 -5.172,10.095 -7.757,15.143c-2.052,0.061 -3.334,-2.32 -3.387,-4.371c-0.052,-2.052 0.599,-4.13 0.148,-6.132c-0.83,-3.688 -5.258,-5.638 -8.98,-4.978c-3.721,0.661 -6.801,3.213 -9.516,5.844c-4.674,4.528 -8.846,9.575 -12.413,15.017c-1.459,2.226 -2.872,4.776 -2.438,7.402c0.924,5.587 9.513,8.251 8.818,13.871c-7.998,-0.086 -15.753,5.384 -18.355,12.947c-8.568,24.905 -19.049,49.152 -31.321,72.457c-6.357,12.073 -14.052,24.681 -26.633,29.963c-3.833,1.609 -8.212,2.438 -12.146,1.094c-3.934,-1.344 -7.137,-5.345 -6.525,-9.456c0.613,-4.112 5.967,-7.028 9.329,-4.582c3.336,2.427 8.148,1.877 11.662,-0.283c3.515,-2.16 5.996,-5.628 8.257,-9.078c14.343,-21.889 23.666,-46.611 32.876,-71.107c3.144,-8.362 5.9,-18.889 -0.307,-25.315c-2.676,-2.77 1.891,-6.468 5.195,-8.448l0,0Z" style="fill:#413017;fill-rule:nonzero;"/><path d="M1144.74,288.592c6.16,3.26 11.717,7.885 15.321,13.85c9.175,15.185 3.731,35.347 -6.522,49.825c-3.939,5.562 -8.74,10.814 -15.004,13.501c-4.843,2.078 -10.231,2.48 -15.501,2.486c-9.855,0.011 -20.63,-1.727 -27.197,-9.075c-2.771,-3.1 -4.544,-6.95 -6.135,-10.791c-5.207,-12.563 -8.924,-26.718 -4.706,-39.646c3.713,-11.378 13.528,-20.356 24.96,-23.897c11.433,-3.541 24.205,-1.85 34.784,3.747m-12.261,4.517c-6.562,-1.91 -13.798,-1.848 -20.084,0.833c-6.286,2.682 -11.488,8.118 -13.252,14.721c-0.698,2.612 -0.863,5.333 -1.025,8.032c-0.433,7.207 -0.852,14.564 1.022,21.536c1.875,6.973 6.476,13.621 13.281,16.032c4.028,1.427 8.436,1.268 12.681,0.789c6.278,-0.709 12.838,-2.265 17.36,-6.677c3.454,-3.371 5.325,-8.056 6.433,-12.753c2.203,-9.336 1.709,-19.292 -1.406,-28.364c-0.84,-2.446 -1.881,-4.855 -3.452,-6.909c-2.808,-3.674 -7.118,-5.948 -11.558,-7.24Z" style="fill:#413017;fill-rule:nonzero;"/><path d="M394.196,313.956c-1.631,1.85 -3.704,3.387 -4.77,5.611c-1.066,2.223 -0.534,5.515 1.815,6.263c7.79,2.477 12.36,11.548 11,19.608c-1.361,8.06 -7.713,14.714 -15.25,17.877c-7.537,3.164 -16.079,3.212 -24.114,1.709c-7.864,-1.47 -16.063,-1.118 -23.773,1.021c-2.842,0.789 -5.139,-3.144 -4.022,-5.874c1.117,-2.73 4.082,-4.166 6.868,-5.137c2.786,-0.971 5.816,-1.833 7.716,-4.09c2.151,-2.554 2.273,-6.193 2.291,-9.532c0.074,-13.85 0.148,-27.701 0.221,-41.551c0.013,-2.338 -0.106,-4.986 -1.863,-6.528c-1.49,-1.308 -3.663,-1.367 -5.645,-1.393c-1.982,-0.025 -4.174,-0.174 -5.567,-1.584c-1.392,-1.411 -0.949,-4.469 1.026,-4.636c9.848,-0.834 19.731,-1.262 29.614,-1.283c8.474,-0.018 17.854,0.636 23.808,6.666c5.892,5.968 6.191,16.562 0.645,22.853m-30.76,33.491c0.031,1.997 0.076,4.061 0.917,5.872c0.841,1.811 2.707,3.306 4.689,3.062c4.112,-0.508 8.319,-1.044 12.015,-2.918c3.695,-1.875 6.838,-5.387 7.092,-9.523c0.216,-3.515 -1.69,-6.902 -4.308,-9.259c-2.618,-2.356 -5.89,-3.84 -9.144,-5.188c-2.185,-0.905 -4.504,-1.782 -6.85,-1.493c-2.347,0.288 -4.674,2.152 -4.638,4.516c0.076,4.977 0.151,9.954 0.227,14.931m13.026,-52.157c-2.024,-1.14 -4.36,-1.61 -6.675,-1.799c-1.493,-0.121 -3.137,-0.087 -4.293,0.866c-1.152,0.95 -1.501,2.547 -1.709,4.026c-0.573,4.079 -0.617,8.233 -0.132,12.324c0.325,2.745 1.464,6.047 4.202,6.435c5.461,0.773 11.321,-2.394 13.415,-7.496c2.095,-5.102 -0.003,-11.648 -4.808,-14.356Z" style="fill:#413017;fill-rule:nonzero;"/><path d="M838.342,347.941c-2.955,4.11 -6.67,7.627 -10.661,10.741c-5.786,4.515 -12.447,8.314 -19.749,9.043c-13.006,1.3 -24.874,-7.21 -34.279,-16.287c-3.27,-3.156 -6.46,-6.489 -8.636,-10.478c-3.176,-5.819 -3.982,-12.722 -3.224,-19.308c1.941,-16.847 14.625,-32.03 30.933,-36.68c16.309,-4.649 35.241,1.684 45.256,15.369c10.016,13.685 10.258,33.83 0.36,47.6m-60.593,-24.99c-0.254,6.689 -0.421,13.762 2.829,19.613c2.443,4.399 6.578,7.611 10.909,10.173c3.288,1.944 6.819,3.609 10.6,4.151c7.088,1.014 14.27,-2.091 19.723,-6.732c2.988,-2.543 5.628,-5.639 6.948,-9.334c1.038,-2.906 1.215,-6.037 1.382,-9.118c0.621,-11.447 0.73,-24.345 -7.266,-32.559c-8.284,-8.509 -22.735,-8.268 -32.961,-2.23c-3.014,1.78 -5.814,4.027 -7.791,6.915c-3.744,5.473 -4.121,12.495 -4.373,19.121l0,0Z" style="fill:#413017;fill-rule:nonzero;"/><path d="M1238.19,352.896c3.279,3.856 7.511,8.092 12.511,7.314c6.962,-1.082 8.616,-10.24 8.59,-17.285c-0.044,-11.776 -0.088,-23.551 -0.132,-35.327c-0.033,-8.662 -1.321,-19.298 -9.353,-22.543c14.965,-1.097 29.976,-1.577 44.981,-1.436c4.547,0.043 7.894,4.808 8.07,9.351c0.176,4.543 -1.931,8.826 -3.985,12.881c-3.521,-1.04 -4.431,-5.484 -6.509,-8.51c-3.549,-5.17 -11.687,-6.006 -16.675,-2.205c-4.987,3.801 -6.518,11.192 -4.16,17.003c0.397,0.978 0.91,1.946 1.725,2.617c1.311,1.081 3.137,1.209 4.833,1.29c6.333,0.3 13.851,0.038 17.362,-5.241c0.802,-1.207 1.783,-2.833 3.191,-2.495c1.118,0.269 1.523,1.626 1.682,2.764c0.978,7.006 0.125,14.26 -2.453,20.848c-4.847,-6.433 -13.713,-9.536 -21.513,-7.529c-2.079,0.534 -4.209,1.513 -5.286,3.371c-0.736,1.271 -0.883,2.787 -1.015,4.25c-0.474,5.297 -0.948,10.594 -1.423,15.891c-0.163,1.824 -0.258,3.873 0.949,5.251c0.978,1.117 2.544,1.467 4.001,1.756c5.005,0.993 10.201,1.984 15.162,0.787c4.961,-1.197 9.626,-5.235 9.812,-10.335c0.05,-1.363 2.061,-1.858 3.165,-1.056c1.103,0.802 1.477,2.252 1.776,3.583c1.42,6.318 2.349,14.146 -2.741,18.15c-2.351,1.85 -5.469,2.351 -8.448,2.629c-10.844,1.014 -21.884,-0.109 -32.301,-3.286c-3.672,-1.12 -7.416,1.187 -11.184,1.922c-9.804,1.915 -18.185,-6.725 -24.433,-14.519c-4.719,-5.887 -9.437,-11.773 -14.155,-17.659c-4.139,-5.163 -13.157,-4.127 -17.232,1.086c-4.074,5.214 -3.691,12.924 -0.546,18.745c3.144,5.822 8.565,10.062 14.169,13.58c-9.63,-0.176 -19.261,-0.352 -28.891,-0.527c-1.792,-0.033 -3.756,-0.13 -5.082,-1.337c-1.325,-1.206 -1.226,-3.924 0.514,-4.355c7.783,-1.927 9.395,-12.117 9.412,-20.135c0.024,-10.878 0.048,-21.755 0.072,-32.633c0.008,-3.508 -0.012,-7.147 -1.495,-10.326c-1.482,-3.179 -4.873,-5.758 -8.323,-5.126c-3.039,0.556 -5.302,-3.571 -4.002,-6.374c1.301,-2.802 4.669,-4.056 7.758,-4.146c3.088,-0.09 6.145,0.695 9.235,0.692c4.319,-0.005 8.486,-1.543 12.779,-2.01c10.427,-1.136 21.264,4.768 25.964,14.145c4.7,9.377 2.945,21.592 -4.204,29.267c-2.214,2.376 -0.093,6.151 2.01,8.624c5.273,6.2 10.546,12.399 15.818,18.598m-27.354,-36.138c4.736,-4.35 5.738,-12.116 2.501,-17.672c-3.238,-5.557 -10.262,-8.513 -16.563,-7.23c-1.538,0.313 -3.127,0.922 -4.031,2.205c-0.95,1.349 -0.939,3.13 -0.89,4.78c0.181,6.154 0.362,12.309 0.544,18.463c0.042,1.43 0.129,2.982 1.06,4.069c1.614,1.882 4.614,1.275 6.971,0.507c3.706,-1.208 7.536,-2.486 10.408,-5.122l-0,-0Z" style="fill:#413017;fill-rule:nonzero;"/><path d="M2211.33,300.54c5.103,-2.509 10.958,-3.499 15.617,-6.76c5.575,-3.902 15.358,0.36 18.953,-5.418c2.486,-3.996 9.584,-2.767 11.291,1.619c1.706,4.386 -1.597,9.664 -6.129,10.937c-0.968,0.272 -2.013,0.415 -2.82,1.016c-2.142,1.593 -1.226,4.897 -0.524,7.473c1.983,7.281 0.332,15.206 -3.206,21.873c-3.538,6.666 -8.831,12.232 -14.406,17.319c-6.902,6.298 -14.821,12.214 -24.081,13.462c-9.259,1.248 -19.934,-3.78 -22.058,-12.878c-1.48,-6.336 1.334,-12.8 4.08,-18.698c5.447,-11.7 11.701,-24.252 23.283,-29.945m-1.091,48.239c10.427,-3.989 17.774,-13.549 22.571,-23.63c1.316,-2.767 2.505,-5.892 1.631,-8.828c-0.874,-2.937 -4.797,-5.006 -7.134,-3.024c-0.681,0.578 -1.114,1.387 -1.532,2.176c-1.788,3.378 -3.575,6.756 -5.363,10.133c-0.705,1.333 -2.942,0.816 -3.644,-0.518c-0.701,-1.334 -0.396,-2.946 -0.179,-4.438c0.217,-1.491 0.259,-3.204 -0.79,-4.287c-1.26,-1.302 -3.554,-0.965 -4.919,0.226c-1.365,1.191 -2.033,2.972 -2.649,4.676c-1.61,4.454 -3.22,8.907 -4.83,13.361c-0.664,1.836 -1.328,3.672 -1.992,5.509c-0.862,2.384 -1.689,5.177 -0.336,7.321c1.789,2.836 6.034,2.521 9.166,1.323l0,-0Z" style="fill:#413017;fill-rule:nonzero;"/><path d="M469.317,306.139c0.057,12.499 0.114,24.998 0.172,37.498c0.018,3.968 0.379,8.606 3.698,10.783c2.021,1.326 4.604,1.324 7.021,1.276c4.654,-0.092 9.45,-0.214 13.711,-2.089c4.261,-1.874 7.899,-5.965 7.77,-10.619c-0.058,-2.123 3.201,-2.889 4.813,-1.506c1.612,1.384 1.917,3.721 2.113,5.836c0.401,4.336 0.787,8.82 -0.588,12.953c-1.375,4.132 -5.004,7.845 -9.359,7.886c-18.491,0.173 -36.988,-0.219 -55.455,-1.174c-2.449,-0.127 -3.585,-3.504 -2.452,-5.679c1.132,-2.175 3.569,-3.296 5.879,-4.118c2.311,-0.821 4.793,-1.576 6.424,-3.408c2.083,-2.337 2.22,-5.768 2.247,-8.898c0.096,-11.11 0.191,-22.221 0.287,-33.331c0.038,-4.342 0.051,-8.819 -1.591,-12.839c-1.642,-4.02 -5.379,-7.511 -9.721,-7.485c-2.338,0.015 -3.078,-3.611 -1.49,-5.326c1.588,-1.716 4.175,-1.944 6.51,-2.059c7.356,-0.364 14.712,-0.728 22.068,-1.092c5.757,-0.285 12.035,-0.421 16.655,3.026c-2.049,4.239 -8.482,2.824 -12.731,4.851c-5.297,2.527 -6.008,9.645 -5.981,15.514Z" style="fill:#413017;fill-rule:nonzero;"/><path d="M1657.44,294.999c3.954,-3.906 9.553,-6.09 15.107,-5.893c0.637,0.023 1.298,0.082 1.849,0.401c1.304,0.753 1.467,2.571 1.224,4.056c-0.635,3.898 -3.07,7.465 -6.468,9.478c-1.379,0.817 -1.236,2.956 -0.304,4.261c0.932,1.305 2.384,2.143 3.434,3.355c3.99,4.609 0.633,11.654 -2.78,16.705c-8.739,12.933 -18.235,26.511 -32.552,32.727c-3.709,1.611 -7.895,2.675 -11.787,1.576c-4.092,-1.154 -7.268,-4.613 -8.856,-8.557c-1.587,-3.943 -1.756,-8.327 -1.348,-12.559c1.854,-19.254 16.273,-36.693 34.836,-42.132c2.71,-0.794 5.637,-1.433 7.645,-3.418m-18.458,54.019c10.353,-8.386 20.595,-18.877 21.916,-32.134c0.195,-1.951 0.127,-4.1 -1.113,-5.619c-1.239,-1.519 -4.025,-1.804 -4.999,-0.102c-1.341,2.343 -2.897,4.869 -5.457,5.724c-2.56,0.856 -6.057,-1.329 -5.279,-3.914c0.237,-0.787 -0.641,-1.55 -1.463,-1.521c-0.822,0.03 -1.526,0.571 -2.15,1.107c-8.547,7.333 -13.848,18.321 -14.267,29.575c-0.15,4.04 1.083,9.056 5.026,9.951c2.821,0.64 5.538,-1.246 7.786,-3.067Z" style="fill:#413017;fill-rule:nonzero;"/><path d="M1880.93,320.439c-1.515,-0.14 -2.453,1.569 -2.977,2.998c-1.917,5.224 -3.833,10.448 -5.749,15.672c-0.698,1.901 -1.399,3.996 -0.718,5.903c1.289,3.612 6.399,3.924 9.971,2.528c9.647,-3.77 14.756,-13.996 21.2,-22.106c0.43,-0.541 0.891,-1.093 1.519,-1.384c1.375,-0.636 3.08,0.282 3.784,1.623c0.705,1.341 0.646,2.948 0.443,4.449c-1.338,9.887 -8.03,18.306 -15.788,24.579c-4.581,3.705 -9.829,6.932 -15.677,7.636c-5.849,0.705 -12.366,-1.657 -15.16,-6.844c-2.368,-4.396 -1.695,-9.754 -0.729,-14.654c2.407,-12.206 6.355,-24.35 13.682,-34.405c7.327,-10.055 18.406,-17.846 30.782,-19.119c4.357,-0.448 9.06,0.006 12.554,2.649c3.494,2.642 5.181,7.965 2.729,11.595c-8.637,12.783 -24.504,20.298 -39.866,18.88m11.853,-13.434c1.265,2.092 4.459,1.133 6.59,-0.063c1.686,-0.946 3.609,-2.997 2.332,-4.448c-0.63,-0.715 -1.717,-0.742 -2.67,-0.713c-1.655,0.049 -3.396,0.123 -4.807,0.989c-1.411,0.867 -2.301,2.818 -1.445,4.235l0,-0Z" style="fill:#413017;fill-rule:nonzero;"/><path d="M1721.82,284.809c2.641,-3.324 8.565,-1.169 10.191,2.754c1.626,3.922 0.385,8.382 -0.868,12.439c-0.479,1.552 -1.265,3.376 -2.876,3.584c-0.855,0.111 -1.679,-0.297 -2.483,-0.608c-4.933,-1.909 -10.625,-0.3 -15.05,2.599c-9.559,6.261 -14.368,17.504 -18.657,28.096c-3.199,7.898 -6.397,15.796 -9.596,23.695c-1.788,4.417 -5.165,9.725 -9.803,8.628c-2.898,-0.685 -4.636,-3.87 -4.664,-6.847c-0.029,-2.977 1.248,-5.793 2.498,-8.495c4.851,-10.482 9.703,-20.963 14.554,-31.445c1.559,-3.37 3.096,-7.433 1.168,-10.606c-0.776,-1.278 -2.056,-2.253 -2.556,-3.662c-0.826,-2.328 0.758,-4.774 2.357,-6.657c2.47,-2.91 5.398,-5.731 9.117,-6.59c3.719,-0.859 8.298,1.039 9.118,4.767c6.875,-1.923 13.11,-6.063 17.55,-11.652Z" style="fill:#413017;fill-rule:nonzero;"/><path d="M2366.96,301.671c-7.489,6.28 -12.396,15.067 -16.561,23.908c-3.342,7.097 -6.317,14.366 -8.908,21.771c-1.472,4.207 -2.849,8.519 -5.338,12.217c-2.489,3.698 -6.32,6.771 -10.758,7.185c-1.736,0.162 -3.643,-0.156 -4.857,-1.408c-1.214,-1.251 -1.32,-3.607 0.12,-4.591c7.644,-5.219 11.575,-14.27 14.849,-22.926c4.552,-12.034 8.357,-26.363 1.221,-37.068c-0.917,-1.376 -2.046,-3.035 -1.341,-4.531c0.399,-0.847 1.284,-1.337 2.113,-1.771c4.295,-2.248 8.891,-4.56 13.721,-4.151c4.83,0.41 9.645,4.787 8.615,9.523c2.356,-2.119 4.712,-4.237 7.068,-6.356c3.738,-3.362 9.129,-6.9 13.328,-4.136c2.384,1.569 3.247,5.062 1.869,7.562c-1.378,2.499 -4.793,3.632 -7.393,2.453c-2.595,-1.177 -5.565,0.488 -7.748,2.319l-0,0Z" style="fill:#413017;fill-rule:nonzero;"/><path d="M2758.85,399.07c-0.249,-1.249 2.116,-2.086 2.142,-0.813c-0.264,0.861 -1.437,1.288 -2.192,0.798l0.05,0.015Z" style="fill:#413017;fill-rule:nonzero;"/><path d="M1322.95,365.999c-2.481,1.381 -5.705,1.759 -8.118,0.261c-2.406,-1.494 -3.508,-4.714 -2.711,-7.432c0.796,-2.718 3.32,-4.788 6.115,-5.247c2.564,-0.42 5.359,0.501 7.008,2.508c1.649,2.007 1.979,5.065 0.617,7.277c-0.693,1.127 -1.755,1.99 -2.911,2.633l0,-0Z" style="fill:#413017;fill-rule:nonzero;"/><path d="M557.275,327.641c-0.257,1.473 -0.716,3.047 -1.929,3.922c-1.212,0.876 -3.341,0.495 -3.655,-0.967c-0.626,-2.914 -3.404,-4.976 -6.306,-5.661c-2.901,-0.685 -5.935,-0.261 -8.885,0.167c-1.344,0.194 -2.818,0.46 -3.675,1.512c-0.792,0.973 -0.825,2.338 -0.821,3.592c0.02,5.973 0.039,11.947 0.058,17.921c0.008,2.317 0.22,5.031 2.167,6.288c1.134,0.732 2.57,0.748 3.919,0.741c3.886,-0.022 7.867,-0.061 11.504,-1.429c3.637,-1.369 6.917,-4.366 7.49,-8.21c0.33,-2.22 3.598,-2.849 5.381,-1.485c1.782,1.365 2.349,3.774 2.626,6.002c0.347,2.783 0.428,5.6 0.242,8.399c-0.135,2.035 -0.529,4.279 -2.138,5.533c-1.361,1.06 -3.225,1.119 -4.949,1.132c-13.537,0.103 -27.074,0.207 -40.611,0.31c-3.103,0.024 -7.295,-0.979 -7.211,-4.081c0.099,-3.699 5.969,-3.874 8.075,-6.916c0.958,-1.384 0.989,-3.186 0.985,-4.869c-0.035,-14.908 -0.07,-29.815 -0.104,-44.723c-0.009,-3.714 -0.324,-8.039 -3.394,-10.129c-1.815,-1.236 -4.142,-1.33 -6.328,-1.545c-2.186,-0.215 -4.56,-0.707 -5.934,-2.421c-1.373,-1.714 -0.799,-4.936 1.372,-5.269c16.788,-2.573 33.821,-3.547 50.793,-2.904c1.587,0.06 3.22,0.146 4.661,0.814c2.619,1.215 4.074,4.174 4.302,7.052c0.228,2.878 -0.559,5.729 -1.339,8.509c-0.573,2.044 -1.287,4.279 -3.103,5.377c-1.816,1.098 -4.894,-0.109 -4.584,-2.209c0.555,-3.754 -2.594,-7.254 -6.198,-8.442c-3.605,-1.187 -7.522,-0.64 -11.275,-0.08c-3.4,0.507 -5.881,3.723 -6.631,7.078c-0.75,3.355 -0.132,6.846 0.487,10.227c0.797,4.354 6.295,6.443 10.557,5.25c4.262,-1.193 7.486,-4.594 10.482,-7.851c3.682,5.653 5.13,12.72 3.969,19.365Z" style="fill:#413017;fill-rule:nonzero;"/><path d="M1346.95,365.992c-2.482,1.388 -5.709,1.772 -8.125,0.274c-2.386,-1.481 -3.492,-4.661 -2.727,-7.364c0.764,-2.702 3.233,-4.785 5.996,-5.29c2.576,-0.472 5.412,0.418 7.095,2.424c1.683,2.007 2.033,5.095 0.661,7.326c-0.691,1.124 -1.749,1.986 -2.9,2.63l-0,-0Z" style="fill:#413017;fill-rule:nonzero;"/><path d="M1365.74,367.19c-1.163,-0.122 -2.319,-0.464 -3.29,-1.117c-3.795,-2.549 -2.849,-9.115 1.072,-11.467c4.123,-2.472 10.613,0.073 11.092,4.856c0.448,4.469 -4.408,8.196 -8.874,7.728l-0,-0Z" style="fill:#413017;fill-rule:nonzero;"/><path d="M2599.3,268.288c2.279,4.05 -1.514,9.955 -6.145,9.566c-4.398,-0.369 -7.26,-6.175 -4.875,-9.888c2.385,-3.713 8.855,-3.524 11.02,0.322Z" style="fill:#413017;fill-rule:nonzero;"/></g></g></svg>