<?xml version="1.0" encoding="UTF-8" standalone="no"?><!DOCTYPE svg PUBLIC "-//W3C//DTD SVG 1.1//EN" "http://www.w3.org/Graphics/SVG/1.1/DTD/svg11.dtd"><svg width="100%" height="100%" viewBox="0 0 16186 3988" version="1.1" xmlns="http://www.w3.org/2000/svg" xmlns:xlink="http://www.w3.org/1999/xlink" xml:space="preserve" xmlns:serif="http://www.serif.com/" style="fill-rule:evenodd;clip-rule:evenodd;stroke-linejoin:round;stroke-miterlimit:2;"><rect id="Artboard2" x="0" y="0" width="16185.9" height="3987.12" style="fill:none;"/><g><g><path d="M6767.08,1769.75c-43.138,22.902 -90.97,35.975 -139.285,43.115c-134.477,19.872 -276.871,-7.153 -390.203,-82.218c-113.333,-75.066 -195.007,-199.094 -210.953,-334.094c-22.415,-189.779 92.346,-384.343 263.965,-468.399c171.619,-84.056 387.647,-59.503 544.236,50.033c80.241,56.13 146.609,133.9 181.764,225.296c35.155,91.395 37.467,196.528 -1.178,286.504c-20.008,46.585 -50.129,88.075 -81.725,127.725c-47.196,59.228 -99.731,116.526 -166.621,152.038m-381.279,-795.277c-43.12,20.521 -78.354,54.875 -107.332,92.833c-92.005,120.517 -124.433,288.314 -69.733,429.726c54.701,141.413 200.87,246.452 352.317,239.16c151.448,-7.293 291.606,-136.383 298.3,-287.858c1.752,-39.646 -4.766,-79.32 -2.894,-118.961c1.585,-33.548 9.168,-66.832 7.532,-100.378c-2.725,-55.898 -31.113,-108.002 -68.237,-149.882c-74.307,-83.828 -186.74,-132.454 -298.714,-129.19c-38.231,1.115 -76.703,8.114 -111.239,24.55m553.138,484.639c9.962,-56.042 11.671,-113.545 5.055,-170.08c-1.98,-16.917 -4.962,-34.42 -14.772,-48.344c-29.894,62.036 -32.9,136.478 -8.104,200.721c3.222,8.348 8.875,17.884 17.821,17.703m-819.756,-288.951c-5.113,-4.913 -13.144,2.008 -15.622,8.652c-8.232,22.073 0.616,49.265 20.261,62.267c4.118,-21.527 3.45,-43.957 -1.942,-65.202c-0.526,-2.07 -1.157,-4.237 -2.697,-5.717m4.682,276.987c-5.963,-1.886 -9.471,6.538 -9.997,12.771c-1.57,18.607 -2.544,39.285 9.213,53.793c15.338,-16.382 17.722,-43.423 5.486,-62.235c-1.186,-1.823 -2.628,-3.673 -4.702,-4.329l0,0Z" style="fill:#413017;fill-rule:nonzero;"/><path d="M7080.44,881.428c-2.184,-16.008 21.07,-20.849 37.116,-18.969c71.519,8.378 143.037,16.756 214.555,25.134c34.568,4.049 73.069,10.259 93.979,38.081c160.122,213.052 333.304,416.288 518.251,608.186c18.188,-1.909 23.244,-25.716 23.579,-44c2.536,-138.331 5.071,-276.662 7.607,-414.993c0.598,-32.643 0.568,-67.563 -17.486,-94.766c-25.661,-38.663 -78.516,-48.652 -111.905,-80.877c-3.267,-3.154 -6.55,-7.073 -6.245,-11.604c0.556,-8.286 11.412,-10.796 19.714,-11c94.406,-2.325 188.882,-1.796 283.256,1.585c10.889,0.39 22.836,1.248 30.678,8.813c7.843,7.564 6.586,24.138 -4.107,26.234c-28.84,5.654 -58.376,11.572 -83.43,26.934c-25.055,15.361 -45.094,42.399 -43.67,71.753c12.191,251.323 -1.049,503.108 -14.286,754.378c-0.678,12.869 -1.652,26.587 -9.407,36.88c-7.754,10.293 -24.934,14.425 -33.401,4.709c-205.494,-235.817 -410.989,-471.634 -616.484,-707.451c-6.917,-7.937 -18.469,-16.45 -26.646,-9.819c-4.679,3.793 -5.126,10.645 -5.193,16.668c-2.002,179.864 -4.005,359.729 -6.008,539.593c-0.455,40.869 3.199,89.468 38.414,110.213c20.234,11.919 45.232,10.617 68.436,14.234c23.204,3.617 48.949,16.566 52.157,39.83c-112.936,1.098 -225.919,-2.646 -338.535,-11.219c-10.576,-0.806 -24.079,-4.379 -24.957,-14.949c-0.546,-6.576 4.645,-12.261 10.223,-15.786c31.957,-20.195 86.322,-1.728 103.381,-35.462c3.587,-7.093 4.414,-15.215 5.161,-23.128c19.22,-203.668 24.319,-408.666 15.25,-613.038c-1.986,-44.764 -6.085,-93.164 -35.713,-126.779c-33.478,-37.984 -89.374,-45.742 -131.576,-73.716c-5.786,-3.835 -11.77,-8.791 -12.708,-15.669l-0,0Z" style="fill:#413017;fill-rule:nonzero;"/><path d="M3368.18,1322.79c-19.89,17.174 -99.181,223.908 -103.714,234.4c-11.481,26.577 -20.455,57.834 -28.299,83.457c-3.436,11.225 -2.331,23.26 -3.185,34.969c-3.048,41.819 -30.563,77.263 -56.914,109.879c-2.618,3.242 -5.556,6.687 -9.628,7.569c-7.04,1.525 -12.963,-5.143 -16.85,-11.207c-46.043,-71.836 -41.714,-157.408 -37.82,-238.289c-20.014,-71.286 -10.395,-51.367 -46.964,-111.8c-5.441,-8.992 -12.715,-23.37 -24.139,-44.679c-8.176,-15.252 -17.387,-29.386 -18.619,-46.648c-1.988,-27.842 -7.537,-21.065 -0.193,-70.556c-30.986,-36.047 -41.582,-48.587 -43.614,-83.177c-2.032,-34.589 -6.805,-34.788 0.022,-75.47c-32.67,-21.726 -22.993,-11.759 -34.906,-34.488c-11.912,-22.728 -9.619,-50.344 -18.411,-74.452c-15.195,-41.668 -59.155,-64.299 -99.562,-82.584c-14.25,-6.449 -12.27,-29.392 -0.018,-39.115c12.251,-9.724 29.259,-9.994 44.9,-9.821c108.443,1.2 216.886,2.4 325.33,3.601c12.198,0.135 25.605,0.724 34.584,8.983c8.978,8.258 7.866,26.917 -4.09,29.343c-33.935,6.888 -67.871,13.776 -101.806,20.663c-12.195,2.475 -24.992,5.24 -34.345,13.446c-18.932,16.609 -15.487,46.473 -10.358,71.13c29.747,143.014 62.358,285.431 97.808,427.138c5.446,21.769 14.98,47.5 37.051,51.555c84.594,-185.107 158.666,-375.022 221.739,-568.523c7.039,-21.596 20.972,-47.979 43.462,-44.794c16.561,2.345 25.728,19.956 32.199,35.38c75.66,180.324 151.319,360.648 226.978,540.972c8.081,19.258 24.172,42.459 43.919,35.657c12.078,-4.16 17.533,-17.837 21.487,-29.985c52.981,-162.779 97.837,-328.202 134.346,-495.447c6.833,-31.298 -31.022,-53.766 -62.912,-56.802c-31.891,-3.036 -68.252,0.758 -91.603,-21.173c4.855,-18.55 28.804,-22.937 47.971,-23.511c77.498,-2.319 155.096,-1.252 232.501,3.199c31.326,1.801 65.091,5.15 88.556,25.982c-14.838,31.58 -62.594,23.424 -92.712,41.042c-23.43,13.706 -33.641,41.717 -41.944,67.56c-29.846,92.899 -57.402,186.533 -82.633,280.789c-11.247,42.014 -24.183,83.576 -38.767,124.551c-17.593,49.431 -37.575,97.989 -54.892,147.517c-27.163,77.694 -47.72,157.696 -61.376,238.861c-2.747,16.325 -28.46,7.247 -38.057,-6.242c-35.316,-49.637 -29.882,-94.315 -50.977,-158.875c-30.753,-94.116 -30.306,-73.18 -36.666,-124.612c-1.413,-11.42 -17.455,-66.552 -24.607,-88.683c-18.79,-35.217 -34.938,-89.975 -43.919,-110.273c-35.317,-57.249 -57.79,-159.985 -107.638,-153.814c-11.036,1.366 -22.309,-1.046 -31.74,4.848c-52.332,32.707 -32.264,122.198 -78.975,162.529Z" style="fill:#413017;fill-rule:nonzero;"/><path d="M8764.62,1060.59c1.787,17.211 -1.523,41.001 -18.783,42.235c-30.46,-14.048 -27.632,-57.289 -39.29,-88.742c-19.685,-53.114 -84.566,-73.087 -141.162,-75.443c-44.092,-1.835 -89.747,3.05 -128.529,24.107c-38.783,21.057 -69.48,60.701 -70.661,104.815c-1.41,52.689 37.347,97.681 78.399,130.739c56.837,45.771 122.126,79.83 181.332,122.492c59.207,42.662 114.095,96.865 136.71,166.248c36.924,113.284 -27.284,244.282 -130.978,302.971c-103.694,58.689 -235.659,52.337 -344.565,4.002c-14.644,-6.499 -29.765,-14.409 -37.95,-28.182c-6.852,-11.532 -7.826,-25.503 -8.628,-38.893c-2.55,-42.57 -5.101,-85.139 -7.651,-127.709c-0.258,-4.301 -0.183,-9.362 3.28,-11.927c2.91,-2.156 7.007,-1.537 10.414,-0.31c50.729,18.268 17.068,113.667 64.472,139.357c9.283,5.031 20.126,6.106 30.641,7.071c83.459,7.66 173.864,12.884 244.505,-32.215c27.721,-17.697 51.839,-44.744 55.995,-77.368c5.653,-44.364 -25.837,-84.191 -57.014,-116.254c-60.432,-62.15 -127.347,-117.993 -199.308,-166.329c-32.651,-21.931 -66.798,-42.709 -93.073,-71.978c-67.993,-75.741 -66.438,-199.578 -7.585,-282.619c58.854,-83.042 164.793,-125.463 266.505,-121.682c50.635,1.882 100.395,13.978 150.953,17.343c12.462,0.829 26.079,1.563 35.351,9.93c9.569,8.636 11.498,22.686 12.829,35.507c4.597,44.278 9.194,88.556 13.791,132.834m-403.126,235.754c88.328,54.685 169.162,121.458 239.54,197.874c18.841,20.457 43.536,43.723 70.25,35.989c-28.601,-80.534 -101.545,-135.764 -172.043,-184.074c-70.498,-48.309 -145.624,-98.232 -183.158,-175.011c-25.452,10.838 -30.114,47.455 -16.693,71.646c13.421,24.191 38.582,39.014 62.104,53.576l-0,0Z" style="fill:#413017;fill-rule:nonzero;"/><path d="M5026.49,1721.62c80.876,-0.843 161.753,-1.686 242.629,-2.528c19.619,-0.205 42.978,-2.531 52.353,-19.766c8.352,-15.352 0.823,-34.577 4.378,-51.689c3.555,-17.111 34.213,-25.514 34.777,-8.046c1.331,41.266 2.663,82.532 3.994,123.798c0.311,9.65 0.515,19.798 -3.971,28.348c-9.355,17.83 -33.407,20.348 -53.541,20.526c-206.108,1.823 -412.288,-4.472 -617.901,-18.865c-5.581,-12.506 5.908,-26.603 18.673,-31.564c12.765,-4.961 27.14,-4.733 39.746,-10.084c33.39,-14.173 39.59,-57.995 40.881,-94.245c6.517,-183.009 13.033,-366.017 19.55,-549.026c1.435,-40.295 2.674,-81.85 -11.643,-119.543c-20.13,-52.996 -72.195,-92.36 -128.672,-97.281c-8.032,-0.7 -9.629,-13.243 -3.825,-18.839c5.805,-5.596 14.729,-5.965 22.792,-6.002c145.661,-0.672 291.322,-1.344 436.983,-2.016c-47.165,40.706 -123.357,38.759 -163.643,86.284c-27.279,32.181 -29.943,77.886 -31.03,120.058c-4.841,187.746 -4.097,375.637 2.233,563.339c0.793,23.513 2.55,49.235 18.626,66.412c18.641,19.917 49.333,21.013 76.611,20.729l-0,0Z" style="fill:#413017;fill-rule:nonzero;"/><path d="M5932.19,903.301c11.104,56.945 9.956,116.248 -3.344,172.721c-32.723,-14.322 -33.992,-59.445 -50.964,-90.875c-30.551,-56.572 -109.675,-62.717 -172.581,-49.422c-53.585,11.325 -110.759,36.511 -131.266,87.295c-15.227,37.707 -5.963,81.987 15.591,116.47c21.555,34.483 53.995,60.683 87.343,83.955c103.799,72.434 231.028,133.103 274.977,251.802c28.269,76.353 12.754,167.264 -39.238,229.919c-48.589,58.553 -123.822,90.171 -199.287,99.882c-75.465,9.711 -151.995,-0.383 -227.048,-12.887c-34.369,-5.725 -78.673,-25.957 -70.667,-59.867c6.344,-26.872 12.686,-55.061 5.639,-81.757c-7.047,-26.696 -32.277,-50.78 -59.547,-46.46c-4.97,-27.859 24.123,-53.612 52.378,-52.032c28.255,1.58 52.04,23.726 63.915,49.413c11.875,25.687 14.099,54.624 16.146,82.849c2.949,40.656 55.4,54.336 96.147,55.504c89.83,2.574 195.143,-11.907 239.927,-89.821c8.688,-15.114 14.505,-32.301 13.856,-49.723c-0.585,-15.685 -6.334,-30.734 -13.309,-44.796c-40.666,-81.989 -120.933,-135.346 -194.886,-189.261c-73.953,-53.915 -149.178,-118.656 -170.322,-207.7c-19.431,-81.833 14.202,-171.998 77.802,-227.036c63.599,-55.038 153.355,-75.717 236.311,-61.843c44.07,7.371 89.172,23.768 132.19,11.685c10.842,-3.044 18.082,10.932 20.237,21.985m-81.304,610.385c-32.755,-66.14 -89.324,-117.072 -146.928,-163.215c-21.03,-16.846 -42.382,-33.29 -64.041,-49.319c-47.253,-34.971 -99.439,-72.843 -113.703,-129.873c-16.179,1.365 -25.306,21.337 -21.4,37.097c3.905,15.759 16.442,27.707 28.636,38.427c107.939,94.891 237.4,170.887 313.926,292.538c9.664,-2.425 7.932,-16.726 3.51,-25.655Z" style="fill:#413017;fill-rule:nonzero;"/><path d="M4453.82,1661.92c0.35,35.074 3.837,76.129 33.422,94.972c19.486,12.411 44.287,10.822 67.324,12.58c23.036,1.758 49.247,10.213 57.157,31.92c-130.641,2.074 -261.319,1.789 -391.95,-0.856c-16.57,-0.336 -11.35,-29.281 4.306,-34.722c15.655,-5.44 33.923,-0.181 48.848,-7.387c21.513,-10.386 24.301,-39.362 24.112,-63.25c-1.89,-238.765 -3.779,-477.529 -5.669,-716.293c-0.097,-12.252 -0.299,-24.975 -5.659,-35.993c-15.573,-32.013 -60.24,-30.592 -95.104,-37.79c-4.679,-0.966 -9.68,-2.406 -12.549,-6.227c-8.907,-11.858 10.851,-24.155 25.579,-25.9c133.51,-15.811 268.531,-18.849 402.617,-9.057c18.95,1.383 44.048,10.164 41.338,28.97c-55.72,20.066 -124.909,12.739 -166.033,55.356c-32.511,33.691 -34.009,85.726 -33.541,132.543c1.934,193.711 3.868,387.422 5.802,581.134m-67.98,74.364c-14.943,-250.057 -14.54,-501.03 1.208,-751.038c1.142,-18.133 -7.827,-44.57 -24.787,-38.055c-9.57,3.676 -11.773,15.982 -12.49,26.208c-17.232,245.727 -17.894,492.614 -1.979,738.429c0.774,11.954 2.206,25.219 11.222,33.106c9.016,7.887 27.541,3.307 26.826,-8.65Z" style="fill:#413017;fill-rule:nonzero;"/></g><g><path d="M7423.19,2203.88c49.639,1.372 99.5,2.765 148.381,11.522c136.969,24.538 264.381,112.419 323.179,238.536c20.253,43.443 32.3,90.326 40.161,137.609c16.686,100.379 14.019,207.177 -29.731,299.047c-58.15,122.108 -184.883,203.453 -318.22,226.103c-54.309,9.226 -109.673,9.729 -164.758,10.209c-135.146,1.177 -270.292,2.354 -405.438,3.531c-14.642,0.128 -32.796,-1.997 -37.996,-15.685c-6.36,-16.745 13.882,-31.907 31.66,-34.095c17.778,-2.188 37.661,0.891 52.02,-9.817c15.644,-11.666 17.296,-34.072 17.553,-53.585c2.854,-216.74 5.708,-433.48 8.562,-650.22c0.446,-33.797 -0.544,-71.411 -24.064,-95.686c-31.129,-32.129 -89.658,-27.511 -115.913,-63.733c21.351,-15.559 49.926,-15.465 76.335,-14.736c132.756,3.667 265.513,7.334 398.269,11m178.071,105.138c-96.755,-42.73 -205.523,-57.848 -310.264,-43.126c-18.264,2.567 -38.305,7.186 -48.854,22.316c-8.066,11.569 -8.596,26.608 -8.81,40.71c-3.317,218.195 -0.21,436.488 9.314,654.501c0.599,13.708 1.596,28.445 10.223,39.116c7.879,9.744 20.525,14.057 32.569,17.518c109.63,31.508 232.875,29.293 332.119,-26.94c99.244,-56.233 167.261,-172.934 147.06,-285.199c-14.62,-81.249 24.066,-165.915 5.383,-246.327c-18.887,-81.294 -92.395,-138.853 -168.74,-172.569m-452.265,-40.038c-17.008,-1.294 -22.991,21.954 -22.852,39.011c1.992,245.131 5.109,490.253 9.351,735.355c0.3,17.314 11.593,41.769 26.779,33.447c5.241,-42.057 4.224,-84.613 3.199,-126.983c-5.492,-226.943 -10.985,-453.887 -16.477,-680.83m691.558,281.93c-12.116,6.308 -16.031,21.496 -18.199,34.982c-12.282,76.403 -8.776,155.307 10.232,230.32c6.881,-1.153 8.491,-10.192 8.477,-17.168c-0.17,-82.712 -0.34,-165.423 -0.51,-248.134Z" style="fill:#413017;fill-rule:nonzero;"/><path d="M5528.29,2719.95c-7.627,0.071 -15.606,0.228 -22.308,3.87c-15.16,8.239 -16.544,29.081 -15.99,46.327c1.979,61.684 3.958,123.368 5.937,185.052c1.376,42.911 8.38,94.668 47.655,112.01c17.244,7.614 36.886,6.301 55.735,6.487c18.85,0.185 39.266,2.698 52.876,15.74c13.611,13.041 14.584,39.787 -2.281,48.208c-6.22,3.106 -13.459,3.193 -20.411,3.214c-119.497,0.371 -238.993,0.743 -358.489,1.114c-8.86,0.028 -18.564,-0.242 -25.267,-6.034c-11.343,-9.801 -6.471,-29.464 4.79,-39.359c11.261,-9.894 26.518,-13.544 40.074,-19.943c65.463,-30.902 79.856,-116.137 84.375,-188.386c11.915,-190.48 14.389,-381.551 7.409,-572.275c-0.355,-9.688 -0.821,-19.726 -5.226,-28.362c-7.804,-15.299 -25.56,-22.186 -41.792,-27.796c-32.103,-11.094 -64.206,-22.188 -96.308,-33.282c-11.239,-3.884 -10.279,-21.898 -0.808,-29.087c9.472,-7.188 22.504,-6.676 34.365,-5.837c97.49,6.899 194.981,13.797 292.471,20.696c79.175,5.602 161.46,12.121 230.188,51.824c94.685,54.699 147.694,180.194 105.671,281.146c-13.198,31.705 -34.357,59.563 -58.162,84.317c-24.766,25.754 -52.622,48.535 -82.78,67.698c119.634,61.111 151.783,217.063 244.227,314.536c45.102,47.554 105.245,80.626 169.56,93.238c-67.879,58.847 -176.24,46.109 -250.318,-4.716c-74.077,-50.824 -121.883,-130.832 -167.371,-208.301c-22.734,-38.719 -45.469,-77.438 -68.204,-116.157c-29.988,-51.072 -100.395,-56.49 -159.618,-55.942m38.831,-447.56c-13.274,-1.048 -27.252,-1.401 -39.186,4.507c-26.285,13.012 -30.323,48.162 -30.877,77.487c-1.625,85.953 -3.251,171.906 -4.876,257.858c-0.307,16.24 1.843,36.4 16.966,42.327c66.916,26.221 146.869,16.039 205.077,-26.116c18.863,-13.661 35.808,-30.862 45.32,-52.122c9.513,-21.259 10.754,-46.986 -0.428,-67.417c-12.539,-22.91 -1.671,-50.874 0.286,-76.918c3.474,-46.22 -23.64,-91.094 -61.398,-117.976c-37.758,-26.883 -84.677,-37.983 -130.884,-41.63m278.458,662.711c-40.135,-39.122 -70.805,-87.888 -88.681,-141.009c-1.66,-4.934 -3.786,-10.528 -8.676,-12.315c-6.355,-2.323 -13.195,3.99 -14.066,10.7c-0.872,6.71 2.281,13.218 5.378,19.233c34.474,66.959 73.044,131.808 115.424,194.064c14.912,-1.815 22.147,-20.95 17.712,-35.303c-4.435,-14.352 -16.334,-24.885 -27.091,-35.37m-18.581,-414.202c5.103,-31.814 4.167,-64.586 -2.743,-96.057c-2.857,-0.703 -5.714,-1.407 -8.57,-2.111c-10.648,33.469 -16.122,76.241 11.313,98.168l-0,0Z" style="fill:#413017;fill-rule:nonzero;"/><path d="M4600.18,3118.61c-95.814,-8.062 -190.348,-40.673 -266.905,-98.848c-78.816,-59.891 -137.026,-146.402 -162.814,-241.973c-9.165,-33.963 -14.362,-68.992 -25.431,-102.383c-7.753,-23.386 5.138,-47.898 13.987,-70.892c14.533,-37.76 18.542,-78.685 29.666,-117.587c45.874,-160.426 209.595,-264.922 374.582,-289.83c119.824,-18.09 246.037,-1.078 352.966,55.941c106.929,57.02 192.976,155.231 227.41,271.418c44.876,151.419 -3.355,323.948 -112.619,437.978c-109.265,114.031 -273.468,169.417 -430.842,156.176m-262.021,-619.367c-46.036,140.271 -36.687,303.659 48.548,424.2c85.234,120.542 253.311,184.289 389.641,127.639c87.209,-36.238 151.317,-114.033 193.823,-198.364c12.658,-25.114 23.907,-51.768 25.098,-79.866c1.067,-25.154 -5.983,-49.867 -8.845,-74.88c-5.099,-44.564 3.142,-89.561 2.158,-134.404c-2.947,-134.321 -97.608,-261.808 -225.336,-303.477c-127.729,-41.668 -279.358,5.472 -360.947,112.215c-28.925,37.843 -49.287,81.68 -64.14,126.937m728.383,17.131c-39.982,59.093 -28.714,137.585 -15.861,207.766c1.966,10.735 4.45,22.388 12.866,29.337c27.561,-75.692 28.635,-160.74 2.995,-237.103m-843.086,-25.275c-8.842,6.114 -4.371,19.846 0.938,29.194c6.499,11.443 12.999,22.887 19.498,34.331c9.08,-14.688 10.748,-33.712 4.364,-49.756c-4.029,-10.126 -15.836,-19.968 -24.8,-13.769m4.598,274.546c-4.956,14.684 -8.411,29.875 -10.296,45.258c-1.13,9.222 2.595,22.584 11.659,20.543c11.329,-22.314 15.875,-48.017 12.888,-72.863c-2.504,-6.521 -12.017,0.444 -14.251,7.062l0,-0Z" style="fill:#413017;fill-rule:nonzero;"/><path d="M6481.66,3034.08c21.428,25.099 58.899,26.923 91.9,26.807c55.024,-0.194 110.048,-0.388 165.071,-0.582c40.107,-0.141 90.916,-8.058 101.009,-46.874c9.067,-34.872 18.135,-69.745 27.203,-104.617c3.479,-13.382 15.88,-30.37 26.937,-22.067c5.012,3.763 5.682,10.897 5.902,17.161c1.555,44.278 2.189,88.588 1.902,132.893c-0.155,23.795 -1.648,50.228 -18.634,66.892c-17.026,16.702 -43.537,17.648 -67.387,17.569c-192.197,-0.639 -384.394,-1.277 -576.591,-1.915c-8.673,-0.029 -20.057,-2.359 -20.883,-10.992c-0.502,-5.251 3.64,-9.76 7.893,-12.88c21.117,-15.497 52.741,-16.782 67.26,-38.583c8.18,-12.283 8.524,-27.996 8.591,-42.753c1.03,-226.88 2.06,-453.759 3.091,-680.639c0.116,-25.646 -1.582,-55.188 -21.999,-70.708c-13.955,-10.608 -32.742,-11.342 -50.209,-12.808c-17.467,-1.466 -36.659,-5.102 -47.35,-18.992c-10.692,-13.891 -3.784,-40.048 13.744,-40.019c127.289,0.211 254.577,0.421 381.865,0.632c12.339,0.02 26.048,0.575 34.824,9.249c8.777,8.673 5.63,27.997 -6.704,28.351c-52.531,1.507 -116.177,10.158 -136.745,58.519c-6.86,16.13 -7.345,34.149 -7.702,51.674c-4.214,206.628 -4.777,413.33 -1.69,619.978c0.391,26.22 1.676,54.76 18.702,74.704m-99.505,29.28c8.279,-3.359 9.49,-14.382 9.395,-23.315c-2.703,-254.669 -5.407,-509.338 -8.11,-764.006c-0.041,-3.856 -0.176,-8.004 -2.491,-11.088c-9.075,-12.09 -24.062,8.853 -24.276,23.969c-3.525,248.416 -2.358,496.9 3.501,745.272c0.34,14.426 8.61,34.593 21.981,29.168l0,0Z" style="fill:#413017;fill-rule:nonzero;"/><path d="M3368.18,2645.35c-19.89,17.174 -99.181,223.908 -103.714,234.4c-11.481,26.577 -20.455,57.834 -28.299,83.457c-3.436,11.225 -2.331,23.26 -3.185,34.969c-3.048,41.819 -30.563,77.263 -56.914,109.879c-2.618,3.242 -5.556,6.687 -9.628,7.569c-7.04,1.525 -12.963,-5.143 -16.85,-11.207c-46.043,-71.836 -41.714,-157.408 -37.82,-238.289c-20.014,-71.286 -10.395,-51.367 -46.964,-111.8c-5.441,-8.992 -12.715,-23.37 -24.139,-44.679c-8.176,-15.252 -17.387,-29.386 -18.619,-46.648c-1.988,-27.842 -7.537,-21.065 -0.193,-70.556c-30.986,-36.047 -41.582,-48.587 -43.614,-83.177c-2.032,-34.589 -6.805,-34.788 0.022,-75.47c-32.67,-21.726 -22.993,-11.759 -34.906,-34.488c-11.912,-22.728 -9.619,-50.344 -18.411,-74.452c-15.195,-41.668 -59.155,-64.299 -99.562,-82.584c-14.25,-6.449 -12.27,-29.392 -0.018,-39.116c12.251,-9.723 29.259,-9.994 44.9,-9.82c108.443,1.2 216.886,2.4 325.33,3.6c12.198,0.136 25.605,0.725 34.584,8.984c8.978,8.258 7.866,26.917 -4.09,29.343c-33.935,6.888 -67.871,13.776 -101.806,20.663c-12.195,2.475 -24.992,5.239 -34.345,13.446c-18.932,16.609 -15.487,46.473 -10.358,71.13c29.747,143.014 62.358,285.431 97.808,427.138c5.446,21.769 14.98,47.5 37.051,51.555c84.594,-185.107 158.666,-375.022 221.739,-568.523c7.039,-21.596 20.972,-47.979 43.462,-44.794c16.561,2.344 25.728,19.956 32.199,35.38c75.66,180.324 151.319,360.648 226.978,540.972c8.081,19.258 24.172,42.459 43.919,35.657c12.078,-4.16 17.533,-17.837 21.487,-29.985c52.981,-162.779 97.837,-328.202 134.346,-495.447c6.833,-31.298 -31.022,-53.766 -62.912,-56.802c-31.891,-3.036 -68.252,0.758 -91.603,-21.173c4.855,-18.55 28.804,-22.937 47.971,-23.511c77.498,-2.319 155.096,-1.252 232.501,3.199c31.326,1.801 65.091,5.15 88.556,25.982c-14.838,31.58 -62.594,23.424 -92.712,41.042c-23.43,13.706 -33.641,41.717 -41.944,67.56c-29.846,92.899 -57.402,186.533 -82.633,280.789c-11.247,42.014 -24.183,83.576 -38.767,124.551c-17.593,49.431 -37.575,97.989 -54.892,147.517c-27.163,77.694 -47.72,157.696 -61.376,238.861c-2.747,16.325 -28.46,7.247 -38.057,-6.242c-35.316,-49.637 -29.882,-94.315 -50.977,-158.875c-30.753,-94.116 -30.306,-73.18 -36.666,-124.612c-1.413,-11.42 -17.455,-66.552 -24.607,-88.683c-18.79,-35.217 -34.938,-89.975 -43.919,-110.273c-35.317,-57.249 -57.79,-159.985 -107.638,-153.814c-11.036,1.366 -22.309,-1.046 -31.74,4.848c-52.332,32.707 -32.264,122.198 -78.975,162.529Z" style="fill:#413017;fill-rule:nonzero;"/></g><g><path d="M12979.8,1704.03c13.785,16.35 28.122,33.142 47.259,42.69c35.819,17.87 87.627,10.941 107.716,45.564c-17.149,12.63 -40.064,13.154 -61.362,13.174c-101.803,0.093 -203.606,0.186 -305.408,0.279c-14.573,0.014 -31.325,-0.989 -40.186,-12.558c-8.861,-11.57 3.6,-33.934 16.174,-26.567c18.709,10.962 42.983,-10.07 43.679,-31.742c0.696,-21.673 -13.214,-40.764 -26.465,-57.927c-79.766,-103.314 -159.532,-206.628 -239.297,-309.943c-11.755,-15.225 -26.625,-31.978 -45.839,-31.066c-30.27,1.438 -39.293,41.497 -39.587,71.801c-0.776,80.138 -1.553,160.275 -2.329,240.413c-0.357,36.835 2.314,79.844 32.664,100.719c35.761,24.597 96.902,7.832 117.624,45.969c-131.274,11.883 -264.026,7.352 -394.185,-13.452c-1.02,-32.316 57.944,-21.316 77.226,-47.269c6.922,-9.318 7.156,-21.832 7.108,-33.44c-0.973,-234.002 -1.947,-468.004 -2.92,-702.006c-0.066,-15.797 -0.245,-32.14 -6.765,-46.529c-14.323,-31.61 -52.892,-42.784 -86.995,-49.216c-19.356,-3.651 -44.918,-19.842 -33.67,-36.013c5.353,-7.697 16.233,-8.499 25.608,-8.537c133.919,-0.548 267.851,2.316 401.624,8.587c17.302,0.811 23.232,26.856 12.019,40.058c-11.214,13.201 -30.65,15.5 -47.937,14.412c-17.287,-1.089 -35.089,-4.541 -51.604,0.681c-40.807,12.903 -48.481,66.401 -48.753,109.198c-0.374,58.762 -0.748,117.524 -1.122,176.286c-0.13,20.387 7.085,48.172 27.408,46.556c7.913,-0.63 14.456,-6.155 20.394,-11.424c95.316,-84.582 188.699,-171.344 280.049,-260.195c14.712,-14.31 30.533,-35.32 20.439,-53.19c-14.961,-26.49 -67.258,-9.839 -78.361,-38.163c0.9,-11.274 15.564,-14.732 26.865,-15.178c89.291,-3.528 178.581,-7.056 267.871,-10.584c16.239,-0.642 34.468,-0.562 46.086,10.803c11.617,11.364 6.104,37.283 -10.102,36.073c-87.829,-6.553 -168.011,49.636 -229.637,112.557c-61.626,62.921 -114.956,136.44 -190.511,181.699c-25.509,15.28 -8.369,54.393 10.798,77.127c118.142,140.117 236.283,280.235 354.424,420.353m-654.743,-751.109c-3.355,22.181 -3.955,44.677 -4.481,67.105c-5.276,225.116 -3.639,450.395 4.909,675.41c0.572,15.065 8.71,35.861 23.016,31.104c9.728,-3.236 11.366,-16.081 11.268,-26.332c-2.38,-249.657 -4.76,-499.314 -7.14,-748.971c-0.07,-7.291 -1.148,-16.185 -7.86,-19.034c-10.19,-4.326 -18.057,9.771 -19.712,20.718m466.559,698.205c2.694,-21.305 -17.65,-37.323 -33.295,-52.033c-21.034,-19.778 -36.59,-44.523 -52.866,-68.371c-48.605,-71.214 -105.585,-136.706 -169.391,-194.695c-3.586,19.288 10.934,36.748 24.203,51.2c87.647,95.459 165.21,200.171 230.984,311.832c5.121,8.694 11.592,18.401 21.62,19.513c8.37,-9.425 2.413,-24.384 -5.303,-34.353c-7.716,-9.969 -17.534,-20.587 -15.952,-33.093m87.377,59.196c-17.388,-16.366 -34.775,-32.731 -52.162,-49.096c-4.085,-3.845 -13.091,-5.922 -13.154,-0.312c9.301,14.545 15.82,30.907 26.722,44.294c10.902,13.386 28.127,23.702 44.948,19.814c2.353,-5.213 -2.19,-10.78 -6.354,-14.7l-0,-0Z" style="fill:#413017;fill-rule:nonzero;"/><path d="M11695.3,876.556c126.195,16.586 246.773,80.958 325.379,181.065c78.605,100.106 112.529,235.669 83.655,359.63c-9.97,42.805 -26.998,83.832 -48.828,121.978c-77.57,135.545 -218.835,232.774 -373.143,256.825c-154.308,24.051 -318.463,-25.576 -433.604,-131.084c-35.568,-32.593 -66.725,-70.34 -89.448,-112.896c-34.207,-64.064 -48.297,-136.659 -61.26,-208.117c-1.437,-7.924 -2.796,-16.457 0.634,-23.744c18.926,-40.213 23.405,-85.46 34.607,-128.469c34.755,-133.43 140.091,-246.279 270.815,-290.128c42.742,-14.337 87.555,-21.652 132.431,-25.955c52.793,-5.061 106.179,-6.016 158.762,0.895m-404.961,301.909c-45.504,139.152 -36.468,300.915 47.203,421.052c83.672,120.138 248.75,185.44 385.238,132.48c88.4,-34.3 154.816,-111.096 197.424,-195.804c20.324,-40.405 36.26,-87.049 23.016,-130.294c-14.987,-48.935 -2.551,-101.482 -1.958,-152.657c1.577,-136.07 -91.275,-268.113 -219.857,-312.657c-128.582,-44.544 -283.219,1.763 -366.154,109.649c-29.34,38.166 -49.949,82.475 -64.912,128.231m728.774,16.624c-40.201,58.958 -28.911,137.542 -16.009,207.725c1.98,10.772 4.493,22.478 12.983,29.396c27.54,-75.701 28.626,-160.741 3.026,-237.121m-844.459,-24.174c-5.856,5.705 -3.133,15.46 -0.022,23.021c5.696,13.838 11.839,28.29 23.522,37.642c7.276,-14.515 8.251,-32.058 2.626,-47.289c-4.039,-10.938 -17.774,-21.51 -26.126,-13.374m5.81,273.424c-4.956,14.684 -8.412,29.875 -10.296,45.258c-1.13,9.222 2.595,22.584 11.659,20.543c11.328,-22.314 15.875,-48.016 12.888,-72.863c-2.504,-6.521 -12.017,0.444 -14.251,7.062l-0,-0Z" style="fill:#413017;fill-rule:nonzero;"/><path d="M9918.87,1676.94c-35.081,50.743 -92.865,82.199 -152.609,97.569c-59.744,15.371 -122.12,16.311 -183.804,17.161c-119.373,1.647 -238.747,3.293 -358.12,4.94c-3.052,-14.583 11.002,-27.422 25.157,-32.069c14.155,-4.647 29.834,-4.785 42.947,-11.858c28.366,-15.299 31.885,-53.861 31.847,-86.09c-0.244,-209.277 -0.489,-418.554 -0.733,-627.83c-0.058,-49.724 -10.083,-112.994 -58.389,-124.778c-18.906,-4.612 -39.92,0.627 -57.527,-7.664c-17.606,-8.29 -20.527,-41.899 -1.069,-42.217c131.81,-2.151 263.731,2.57 395.05,14.138c57.2,5.039 116.059,11.92 166.21,39.887c71.368,39.798 116.228,122.795 110.426,204.304c-5.802,81.509 -61.965,157.315 -138.251,186.603c77.351,20.24 148.639,69.553 186.413,140.022c37.773,70.47 37.921,162.114 -7.548,227.882m-369.647,50.649c47.501,0.4 95.569,0.738 141.747,-10.401c46.179,-11.139 91.014,-35.122 117.789,-74.36c17.299,-25.35 -19.627,-57.597 -13.595,-87.688c13.66,-68.147 -26.48,-139.285 -84.887,-176.957c-58.407,-37.671 -131.268,-46.574 -200.6,-41.714c-5.611,0.393 -11.51,0.971 -16.123,4.188c-8.302,5.789 -9.285,17.479 -9.475,27.598c-1.988,106.094 -3.975,212.188 -5.963,318.282c-0.287,15.317 11.825,28.666 25.913,34.684c14.088,6.018 29.875,6.24 45.194,6.368m222.624,-709.121c-14.08,5.923 -12.733,32.497 -27.956,33.748c-6.262,-15.839 -12.524,-31.678 -18.786,-47.517c-1.994,-5.045 -4.058,-10.204 -7.666,-14.254c-6.144,-6.897 -15.878,-9.618 -22.338,-16.219c-45.52,-46.512 -119.754,-62.208 -180.206,-38.103c-11.719,4.673 -23.548,11.307 -29.497,22.433c-4.475,8.37 -5.043,18.205 -5.516,27.684c-3.606,72.233 -7.212,144.466 -10.817,216.699c-1.46,29.24 -0.637,63.577 22.99,80.864c15.222,11.138 35.65,11.485 54.444,9.889c47.274,-4.013 93.718,-17.563 135.733,-39.599c15.42,-8.088 31.159,-18.329 37.868,-34.396c4.111,-9.845 4.508,-21.25 10.442,-30.116c5.934,-8.866 21.585,-12.309 26.244,-2.712c4.138,8.525 17.606,7.918 24.221,1.132c6.615,-6.785 8.202,-16.871 9.465,-26.263c-10.145,-11.095 -29.24,-7.623 -41.227,-16.697c-13.795,-10.442 -11.575,-32.648 -1.836,-46.949c9.739,-14.3 24.807,-24.08 35.899,-37.359c6.464,-7.738 11.713,-17.53 10.216,-27.501c-1.497,-9.971 -12.383,-18.674 -21.677,-14.764m-374.957,722.617c12.98,-12.598 14.406,-32.611 14.956,-50.691c7.482,-245.616 3.715,-491.574 -11.285,-736.846c-0.186,-3.042 -0.422,-6.238 -2.085,-8.793c-4.129,-6.346 -14.749,-4.507 -19.3,1.543c-4.551,6.05 -4.774,14.206 -4.806,21.777c-1.011,241.302 2.399,482.623 10.229,723.8c0.559,17.207 1.597,35.718 12.291,49.21m461.976,-262.681c-26.311,39.271 -23.645,95.638 6.257,132.249c24.746,-39.867 22.143,-94.896 -6.257,-132.249l0,0Z" style="fill:#413017;fill-rule:nonzero;"/><path d="M11019.5,1216.65c39.145,143.754 -4.397,304.93 -103.688,416.011c-99.29,111.08 -249.619,171.853 -398.604,170.882c-104.93,-0.683 -210.328,-31.068 -296.307,-91.223c-85.978,-60.154 -151.487,-150.601 -176.319,-252.553c-8.198,-33.658 -12.189,-68.758 -26.726,-100.203c-10.074,-21.793 4.921,-46.04 14.376,-68.109c13.611,-31.769 15.869,-67.05 23.336,-100.795c18.895,-85.396 72.302,-161.29 141.786,-214.409c69.483,-53.118 154.212,-84.333 240.732,-97.134c121.24,-17.938 248.933,0.27 356.353,59.276c107.42,59.006 192.86,160.004 225.061,278.257m-804.857,309.295c36.925,89.713 109.493,164.177 198.226,203.401c36.215,16.009 75.194,26.359 114.767,27.702c131.849,4.473 249.993,-92.886 310.737,-209.994c20.77,-40.042 36.673,-85.79 26.676,-129.777c-13.247,-58.279 0.101,-119.093 -2.817,-178.787c-6.673,-136.54 -108.06,-263.252 -239.812,-299.712c-131.751,-36.461 -283.857,20.101 -359.776,133.785c-27.076,40.544 -44.796,86.708 -57.502,133.777c-28.282,104.768 -31.802,219.254 9.501,319.605m725.345,-326.687c-40.201,58.958 -28.911,137.543 -16.009,207.726c1.981,10.771 4.493,22.478 12.983,29.396c27.541,-75.702 28.626,-160.742 3.026,-237.122m-834.989,-28.126c-6.623,-0.74 -12.288,5.759 -13.081,12.376c-0.792,6.617 1.929,13.104 4.745,19.144c5.681,12.185 12.266,24.411 22.646,32.956c8.444,-17.424 7.257,-39.159 -3.034,-55.56c-2.637,-4.204 -6.344,-8.364 -11.276,-8.916m-14.433,331.074c-0.113,3.402 0.032,7.21 2.455,9.601c6.259,6.177 15.238,-4.284 17.288,-12.835c4.506,-18.801 6.493,-38.204 5.891,-57.528c-3.157,-6.449 -12.59,0.659 -15.096,7.388c-6.357,17.068 -9.931,35.17 -10.538,53.374Z" style="fill:#413017;fill-rule:nonzero;"/></g><g><g><path d="M11830.4,2229.35c10.299,-19.144 32.981,-28.984 54.703,-29.82c21.722,-0.837 42.954,5.822 63.671,12.407c1.856,8.218 -6.942,15.217 -15.26,16.555c-8.318,1.337 -16.999,-0.558 -25.171,1.49c-16.474,4.126 -25.219,22.989 -25.196,39.971c0.023,16.983 6.337,33.262 9.193,50.003c6.409,37.571 -4.739,75.96 -2.921,114.032c1.817,38.071 24.924,81.229 63.012,82.666c2.177,13.429 -16.293,19.292 -29.891,19.713c-49.479,1.533 -98.961,3.01 -148.444,4.429c-2.616,-15.545 19.522,-20.695 32.798,-29.194c18.381,-11.767 21.99,-36.639 23.81,-58.388c3.6,-43.039 7.182,-86.615 0.028,-129.207c-34.823,58.122 -69.647,116.244 -104.47,174.367c-5.896,9.841 -15.948,21.211 -26.537,16.797c-4.948,-2.063 -7.909,-7.061 -10.524,-11.74c-35.065,-62.752 -70.131,-125.504 -105.197,-188.256c-1.852,34.635 -3.705,69.27 -5.557,103.905c-1.096,20.481 -2.109,41.581 4.679,60.935c6.789,19.355 23.395,36.758 43.867,38.013c6.878,0.421 8.401,11.184 3.453,15.98c-4.947,4.796 -12.59,5.082 -19.48,5.08c-81.248,-0.027 -162.496,-0.053 -243.744,-0.08c-12.252,-0.004 -12.113,-20.361 -2.34,-27.75c9.774,-7.389 23.402,-8.448 32.67,-16.462c16.69,-14.43 9.054,-44.019 -9.008,-56.689c-18.062,-12.67 -41.659,-13.27 -63.722,-13.404c-20.863,-0.126 -43.099,0.132 -60.54,11.582c-17.44,11.451 -26.098,38.569 -11.557,53.53c6.755,6.949 16.642,9.675 24.919,14.716c8.277,5.041 15.515,14.975 11.743,23.902c-3.898,9.227 -16.157,10.65 -26.174,10.672c-37.073,0.081 -74.147,0.161 -111.22,0.242c-6.195,0.014 -12.97,-0.176 -17.677,-4.202c-4.707,-4.027 -4.793,-13.349 1.116,-15.206c51.359,-16.133 73.494,-74.686 92.886,-124.905c23.017,-59.605 51.553,-117.078 85.124,-171.442c3.999,-6.475 8.408,-13.22 15.239,-16.573c6.832,-3.354 16.734,-1.633 19.609,5.413c32.712,80.191 65.424,160.383 98.136,240.574c5.89,14.439 12.047,29.289 23.064,40.326c11.016,11.037 28.251,17.402 42.583,11.255c20.076,-8.61 24.116,-34.799 25.273,-56.613c2.397,-45.206 4.794,-90.412 7.191,-135.618c0.914,-17.24 1.749,-35.041 -4.219,-51.24c-5.969,-16.2 -20.603,-30.513 -37.867,-30.51c10.003,-20.224 32.417,-33.634 54.968,-32.886c22.551,0.748 44.027,15.614 52.668,36.457c27.764,66.967 60.981,131.672 99.215,193.263c43.968,-63.736 84.416,-129.9 121.098,-198.09m-479.75,161.552c8.538,-9.348 5.606,-24.14 1.182,-36.003c-3.763,-10.091 -8.229,-19.919 -13.356,-29.389c-2.152,-3.975 -4.648,-8.106 -8.703,-10.1c-9.484,-4.664 -19.69,4.841 -25.254,13.826c-7.904,12.763 -14.028,26.627 -18.139,41.066c-1.306,4.587 -2.416,9.409 -1.51,14.091c1.628,8.416 9.597,14.453 17.942,16.413c8.346,1.96 17.072,0.64 25.529,-0.765c8.085,-1.344 16.781,-3.087 22.309,-9.139Z" style="fill:#413017;fill-rule:nonzero;"/><path d="M10263.2,2539.43c-1.332,-14.65 20.588,-16.071 34.004,-22.107c21.266,-9.567 23.879,-38.192 23.347,-61.506c-1.372,-60.101 -2.744,-120.202 -4.116,-180.304c-0.213,-9.329 -0.817,-19.632 -7.367,-26.28c-6.975,-7.08 -18.091,-7.426 -28.029,-7.313c-16.944,0.193 -34.315,0.463 -50.117,6.583c-15.802,6.119 -29.958,19.425 -32.104,36.234c-0.917,7.185 -11.319,9.227 -17.417,5.319c-6.099,-3.907 -9.151,-11.009 -12.976,-17.159c-14.906,-23.962 -44.385,-35.534 -72.581,-36.704c-54.152,-2.246 -108.416,31.584 -128.832,81.79c-20.416,50.206 -4.487,113.242 38.264,146.556c42.752,33.314 108.886,32.877 150.264,-2.128c11.251,-9.517 24.686,-22.139 38.375,-16.681c1.759,28.916 -12.965,58.274 -37.192,74.158c-14.588,9.564 -31.864,14.284 -49.136,16.732c-76.621,10.862 -159.784,-25.768 -197.41,-93.393c-37.626,-67.626 -21.979,-162.371 39.65,-209.177c20.044,-15.224 43.699,-25.227 68.07,-31.521c45.265,-11.691 92.691,-10.896 139.434,-10.026c153.762,2.864 307.525,5.727 461.288,8.591c23.071,0.43 47.385,1.205 67.066,13.251c-8.362,24.568 -53.414,11.844 -65.739,34.682c-3.016,5.588 -3.231,12.208 -3.378,18.556c-1.396,60.485 -2.792,120.97 -4.188,181.455c-0.35,15.16 0.135,32.367 11.414,42.501c17.552,15.771 54.979,9.04 59.182,32.259c-54.847,14.916 -112.458,19.608 -168.997,13.762c-10.16,-1.051 -21.433,-3.086 -27.464,-11.33c-6.03,-8.244 -0.443,-23.64 9.617,-21.874c22.814,4.007 45.033,-13.377 54.431,-34.547c9.399,-21.17 8.999,-45.212 8.433,-68.368c-1.034,-42.257 -2.068,-84.514 -3.101,-126.77c-0.347,-14.168 -1.467,-30.076 -12.127,-39.415c-10.66,-9.339 -32.909,-2.314 -30.226,11.602c1.982,10.277 3.31,21.594 -1.974,30.629c-5.284,9.034 -19.884,12.83 -26.167,4.459c-13.21,-17.602 -30.122,-34.412 -51.758,-38.439c-21.636,-4.027 -47.56,10.552 -48.035,32.555c-1.254,58.143 -2.508,116.286 -3.761,174.43c-0.533,24.713 1.894,54.683 23.936,65.871c10.102,5.128 24.88,7.397 26.444,18.618c-56.198,4.671 -112.661,6.158 -169.027,4.449Z" style="fill:#413017;fill-rule:nonzero;"/><path d="M8583.39,2398.64c-14.452,-59.418 8.005,-125.554 53.776,-166.107c45.77,-40.553 112.404,-55.055 171.692,-40.075c74.893,18.922 136.903,88.417 137.757,165.659c0.53,47.929 -21.795,95.179 -57.717,126.913c-35.922,31.734 -84.575,47.987 -132.484,46.498c-78.084,-2.427 -154.561,-56.979 -173.024,-132.888m87.925,-76.71c-10.72,44.122 2.03,93.249 32.854,126.589c16.024,17.332 37.189,30.684 60.57,33.922c34.737,4.811 70.397,-14.212 89.859,-43.384c19.463,-29.171 23.839,-66.786 16.526,-101.083c-6.111,-28.665 -20.406,-56.089 -42.842,-74.948c-22.436,-18.86 -53.384,-28.314 -81.985,-21.907c-37.782,8.462 -65.841,43.187 -74.982,80.811l-0,-0Z" style="fill:#413017;fill-rule:nonzero;"/><path d="M12210.7,2219.9c24.849,13.149 47.265,31.807 61.805,55.869c37.012,61.253 15.05,142.585 -26.311,200.99c-15.888,22.436 -35.257,43.624 -60.522,54.462c-19.537,8.382 -41.274,10.004 -62.533,10.028c-39.753,0.045 -83.219,-6.969 -109.71,-36.608c-11.178,-12.507 -18.327,-28.035 -24.749,-43.53c-21.001,-50.677 -35.997,-107.78 -18.98,-159.931c14.976,-45.897 54.568,-82.114 100.686,-96.397c46.118,-14.283 97.64,-7.463 140.314,15.117m-49.458,18.218c-26.47,-7.704 -55.661,-7.453 -81.018,3.363c-25.358,10.817 -46.342,32.748 -53.458,59.382c-2.815,10.538 -3.483,21.514 -4.136,32.402c-1.746,29.072 -3.435,58.747 4.126,86.873c7.56,28.127 26.122,54.946 53.574,64.673c16.246,5.757 34.027,5.115 51.153,3.181c25.324,-2.858 51.788,-9.136 70.027,-26.934c13.934,-13.599 21.483,-32.495 25.953,-51.445c8.885,-37.66 6.893,-77.821 -5.674,-114.417c-3.388,-9.866 -7.589,-19.584 -13.923,-27.871c-11.328,-14.821 -28.714,-23.993 -46.624,-29.207Z" style="fill:#413017;fill-rule:nonzero;"/><path d="M9183.08,2322.21c-6.579,7.461 -14.94,13.664 -19.24,22.634c-4.3,8.97 -2.157,22.249 7.323,25.264c31.422,9.995 49.859,46.585 44.37,79.099c-5.488,32.513 -31.112,59.354 -61.516,72.116c-30.403,12.762 -64.861,12.954 -97.273,6.893c-31.724,-5.932 -64.799,-4.512 -95.898,4.118c-11.467,3.182 -20.734,-12.682 -16.227,-23.696c4.507,-11.014 16.468,-16.806 27.706,-20.722c11.238,-3.916 23.463,-7.394 31.127,-16.498c8.675,-10.304 9.169,-24.984 9.241,-38.452c0.298,-55.871 0.595,-111.742 0.892,-167.613c0.051,-9.432 -0.429,-20.112 -7.518,-26.334c-6.008,-5.275 -14.775,-5.513 -22.77,-5.617c-7.994,-0.105 -16.839,-0.703 -22.455,-6.393c-5.617,-5.691 -3.829,-18.026 4.138,-18.7c39.726,-3.363 79.591,-5.09 119.459,-5.175c34.182,-0.072 72.024,2.564 96.04,26.889c23.769,24.074 24.975,66.811 2.601,92.187m-124.081,135.102c0.123,8.053 0.306,16.382 3.698,23.687c3.393,7.305 10.92,13.336 18.914,12.349c16.588,-2.047 33.561,-4.208 48.466,-11.77c14.906,-7.562 27.587,-21.731 28.611,-38.414c0.871,-14.182 -6.818,-27.843 -17.379,-37.349c-10.56,-9.505 -23.759,-15.492 -36.885,-20.93c-8.813,-3.65 -18.167,-7.187 -27.634,-6.023c-9.468,1.163 -18.854,8.681 -18.709,18.218c0.306,20.077 0.612,40.155 0.918,60.232m52.543,-210.399c-8.162,-4.6 -17.587,-6.493 -26.925,-7.255c-6.023,-0.491 -12.653,-0.352 -17.316,3.491c-4.649,3.832 -6.055,10.273 -6.894,16.24c-2.312,16.457 -2.492,33.212 -0.535,49.715c1.313,11.075 5.908,24.395 16.95,25.959c22.03,3.119 45.669,-9.656 54.119,-30.239c8.449,-20.582 -0.015,-46.988 -19.399,-57.911Z" style="fill:#413017;fill-rule:nonzero;"/><path d="M10974.7,2459.3c-11.919,16.58 -26.908,30.769 -43.007,43.331c-23.338,18.211 -50.209,33.535 -79.666,36.479c-52.465,5.243 -100.337,-29.086 -138.276,-65.701c-13.191,-12.731 -26.059,-26.177 -34.84,-42.269c-12.808,-23.474 -16.061,-51.319 -13.002,-77.884c7.827,-67.96 58.994,-129.209 124.781,-147.965c65.788,-18.755 142.158,6.791 182.56,61.995c40.401,55.204 41.378,136.467 1.45,192.014m-244.427,-100.805c-1.024,26.981 -1.699,55.514 11.411,79.117c9.856,17.745 26.538,30.702 44.009,41.036c13.26,7.843 27.506,14.56 42.758,16.743c28.593,4.093 57.564,-8.432 79.559,-27.154c12.053,-10.259 22.704,-22.747 28.029,-37.652c4.187,-11.722 4.901,-24.354 5.575,-36.783c2.505,-46.177 2.946,-98.205 -29.312,-131.341c-33.414,-34.325 -91.711,-33.351 -132.959,-8.993c-12.159,7.18 -23.453,16.242 -31.428,27.895c-15.107,22.074 -16.626,50.403 -17.642,77.132l0,0Z" style="fill:#413017;fill-rule:nonzero;"/><path d="M12587.7,2479.3c13.226,15.552 30.296,32.639 50.469,29.503c28.083,-4.366 34.756,-41.306 34.649,-69.727c-0.178,-47.501 -0.355,-95.003 -0.533,-142.504c-0.131,-34.944 -5.33,-77.85 -37.73,-90.939c60.37,-4.427 120.923,-6.359 181.453,-5.791c18.339,0.172 31.842,19.393 32.552,37.719c0.71,18.327 -7.789,35.602 -16.076,51.963c-14.202,-4.198 -17.874,-22.121 -26.256,-34.331c-14.317,-20.854 -47.145,-24.228 -67.264,-8.895c-20.12,15.333 -26.296,45.148 -16.784,68.588c1.602,3.948 3.673,7.85 6.961,10.56c5.285,4.358 12.652,4.876 19.495,5.201c25.545,1.213 55.873,0.154 70.035,-21.141c3.236,-4.866 7.193,-11.428 12.875,-10.062c4.508,1.083 6.144,6.557 6.785,11.149c3.945,28.262 0.501,57.523 -9.898,84.097c-19.552,-25.949 -55.315,-38.465 -86.781,-30.372c-8.388,2.157 -16.978,6.106 -21.321,13.599c-2.971,5.128 -3.565,11.244 -4.094,17.147c-1.914,21.367 -3.828,42.734 -5.742,64.101c-0.659,7.358 -1.041,15.625 3.827,21.182c3.946,4.505 10.265,5.918 16.139,7.084c20.193,4.005 41.152,8.003 61.165,3.176c20.012,-4.828 38.831,-21.118 39.581,-41.691c0.2,-5.499 8.314,-7.496 12.764,-4.26c4.451,3.236 5.959,9.082 7.166,14.451c5.729,25.487 9.476,57.065 -11.056,73.217c-9.485,7.462 -22.062,9.483 -34.079,10.607c-43.744,4.09 -88.277,-0.441 -130.301,-13.257c-14.812,-4.517 -29.913,4.787 -45.112,7.755c-39.551,7.723 -73.359,-27.129 -98.564,-58.572c-19.033,-23.744 -38.066,-47.488 -57.099,-71.233c-16.695,-20.826 -53.074,-16.649 -69.511,4.382c-16.437,21.03 -14.892,52.132 -2.206,75.616c12.687,23.484 34.553,40.588 57.16,54.778c-38.848,-0.709 -77.697,-1.417 -116.545,-2.125c-7.23,-0.132 -15.151,-0.526 -20.499,-5.392c-5.347,-4.867 -4.948,-15.832 2.071,-17.569c31.395,-7.773 37.899,-48.879 37.97,-81.223c0.096,-43.88 0.192,-87.759 0.288,-131.639c0.031,-14.15 -0.049,-28.83 -6.028,-41.654c-5.98,-12.824 -19.659,-23.227 -33.577,-20.679c-12.26,2.244 -21.389,-14.403 -16.142,-25.709c5.246,-11.306 18.834,-16.365 31.292,-16.728c12.459,-0.364 24.792,2.806 37.256,2.793c17.42,-0.019 34.23,-6.224 51.548,-8.11c42.062,-4.579 85.776,19.237 104.736,57.061c18.959,37.825 11.881,87.101 -16.958,118.06c-8.929,9.584 -0.376,24.812 8.11,34.791c21.27,25.007 42.539,50.015 63.809,75.023m-110.347,-145.781c19.108,-17.544 23.15,-48.875 10.088,-71.287c-13.061,-22.413 -41.393,-34.341 -66.812,-29.164c-6.203,1.263 -12.613,3.717 -16.258,8.893c-3.836,5.445 -3.789,12.627 -3.592,19.285c0.731,24.825 1.462,49.651 2.193,74.477c0.17,5.769 0.522,12.031 4.278,16.413c6.509,7.592 18.611,5.143 28.119,2.046c14.952,-4.872 30.401,-10.027 41.984,-20.663l0,0Z" style="fill:#413017;fill-rule:nonzero;"/><path d="M9486.11,2290.68c0.231,50.421 0.462,100.842 0.693,151.263c0.074,16.009 1.531,34.718 14.918,43.499c8.153,5.349 18.574,5.339 28.324,5.147c18.774,-0.372 38.12,-0.863 55.308,-8.425c17.189,-7.562 31.865,-24.065 31.346,-42.836c-0.237,-8.565 12.911,-11.656 19.413,-6.076c6.501,5.581 7.733,15.008 8.522,23.54c1.618,17.493 3.174,35.581 -2.372,52.251c-5.545,16.67 -20.184,31.648 -37.751,31.812c-74.593,0.698 -149.207,-0.882 -223.703,-4.735c-9.879,-0.511 -14.46,-14.134 -9.891,-22.907c4.569,-8.774 14.398,-13.297 23.718,-16.612c9.32,-3.314 19.334,-6.36 25.914,-13.747c8.4,-9.429 8.953,-23.268 9.062,-35.896c0.386,-44.818 0.773,-89.635 1.16,-134.453c0.151,-17.518 0.204,-35.575 -6.42,-51.792c-6.624,-16.218 -21.697,-30.3 -39.215,-30.193c-9.43,0.058 -12.413,-14.566 -6.008,-21.487c6.406,-6.92 16.843,-7.839 26.261,-8.305c29.673,-1.469 59.346,-2.937 89.019,-4.406c23.223,-1.149 48.55,-1.696 67.187,12.206c-8.266,17.102 -34.215,11.393 -51.359,19.572c-21.367,10.193 -24.235,38.907 -24.126,62.58Z" style="fill:#413017;fill-rule:nonzero;"/><path d="M12929.6,2532.15c-10.011,5.572 -23.014,7.095 -32.748,1.052c-9.707,-6.026 -14.151,-19.015 -10.937,-29.98c3.213,-10.964 13.394,-19.314 24.67,-21.164c10.34,-1.696 21.614,2.021 28.267,10.117c6.653,8.097 7.984,20.432 2.491,29.356c-2.796,4.545 -7.081,8.024 -11.743,10.619l-0,0Z" style="fill:#413017;fill-rule:nonzero;"/><path d="M9840.93,2377.42c-1.038,5.942 -2.891,12.29 -7.781,15.821c-4.89,3.531 -13.482,1.997 -14.748,-3.901c-2.524,-11.757 -13.731,-20.072 -25.435,-22.836c-11.703,-2.764 -23.942,-1.052 -35.843,0.672c-5.42,0.785 -11.365,1.855 -14.824,6.102c-3.194,3.922 -3.328,9.428 -3.311,14.487c0.078,24.097 0.156,48.194 0.234,72.291c0.031,9.347 0.887,20.295 8.74,25.366c4.573,2.953 10.366,3.019 15.81,2.989c15.674,-0.088 31.735,-0.244 46.406,-5.765c14.67,-5.521 27.902,-17.612 30.212,-33.116c1.334,-8.956 14.517,-11.494 21.706,-5.99c7.189,5.504 9.477,15.224 10.596,24.209c1.397,11.228 1.725,22.59 0.975,33.88c-0.545,8.211 -2.134,17.264 -8.626,22.321c-5.489,4.276 -13.006,4.513 -19.964,4.567c-54.607,0.417 -109.214,0.834 -163.821,1.251c-12.517,0.096 -29.426,-3.951 -29.088,-16.463c0.402,-14.922 24.078,-15.625 32.574,-27.899c3.865,-5.584 3.99,-12.851 3.974,-19.642c-0.14,-60.136 -0.28,-120.271 -0.42,-180.407c-0.035,-14.982 -1.305,-32.428 -13.689,-40.86c-7.324,-4.987 -16.708,-5.363 -25.526,-6.231c-8.818,-0.867 -18.397,-2.853 -23.938,-9.768c-5.54,-6.915 -3.224,-19.911 5.534,-21.253c67.721,-10.38 136.43,-14.308 204.893,-11.714c6.402,0.242 12.99,0.586 18.802,3.283c10.564,4.902 16.436,16.837 17.355,28.448c0.919,11.61 -2.256,23.111 -5.401,34.325c-2.312,8.243 -5.19,17.259 -12.517,21.688c-7.327,4.428 -19.741,-0.441 -18.49,-8.91c2.236,-15.145 -10.464,-29.263 -25.005,-34.054c-14.54,-4.791 -30.342,-2.581 -45.483,-0.323c-13.716,2.046 -23.723,15.017 -26.747,28.55c-3.025,13.533 -0.532,27.618 1.965,41.258c3.215,17.56 25.393,25.989 42.585,21.177c17.191,-4.812 30.196,-18.532 42.282,-31.671c14.853,22.804 20.696,51.309 16.014,78.118Z" style="fill:#413017;fill-rule:nonzero;"/><path d="M13026.4,2532.12c-10.009,5.599 -23.027,7.151 -32.773,1.105c-9.627,-5.972 -14.086,-18.801 -11.002,-29.703c3.084,-10.902 13.044,-19.302 24.188,-21.342c10.391,-1.901 21.83,1.688 28.619,9.782c6.789,8.093 8.202,20.55 2.669,29.549c-2.788,4.534 -7.056,8.011 -11.701,10.609l-0,0Z" style="fill:#413017;fill-rule:nonzero;"/><path d="M13102.2,2536.95c-4.692,-0.491 -9.353,-1.873 -13.269,-4.504c-15.311,-10.283 -11.494,-36.772 4.323,-46.258c16.631,-9.973 42.813,0.293 44.746,19.589c1.805,18.025 -17.784,33.06 -35.8,31.173l-0,0Z" style="fill:#413017;fill-rule:nonzero;"/></g><g><path d="M9025.94,2637.32c18,0.263 22.022,25.297 20.198,43.206c-0.945,9.281 -1.89,18.563 -2.835,27.844c-0.762,7.479 -1.934,15.76 -7.736,20.54c-5.803,4.779 -17.329,1.623 -16.721,-5.87c1.148,-14.151 -14.191,-25.351 -28.377,-24.758c-14.185,0.593 -26.615,9.463 -37.145,18.988c-32.444,29.347 -55.818,68.587 -66.174,111.091c-4.032,16.55 12.291,32.405 29.185,34.59c16.893,2.186 33.414,-5.059 48.978,-11.984c4.214,-1.875 8.695,-3.781 13.274,-3.22c13.28,1.627 15.402,19.865 13.913,33.162c-1.333,11.912 -2.667,23.825 -4,35.737c-0.336,3.003 -0.709,6.116 -2.284,8.695c-4.498,7.367 -16.118,6.169 -22.831,0.742c-6.712,-5.427 -10.613,-13.583 -16.639,-19.764c-17.988,-18.449 -50.452,-13.796 -70.183,2.777c-19.73,16.573 -30.018,41.473 -40.184,65.151c-47.606,110.88 -114.884,223.035 -224.738,272.964c-78.97,35.891 -174.243,33.717 -251.493,-5.74c-54.264,-27.716 -100.087,-74.239 -120.425,-131.677c-20.338,-57.437 -12.76,-125.575 25.162,-173.268c55.705,-70.058 162.53,-81.025 245.98,-48.666c83.451,32.36 148.505,98.667 208.868,164.753c20.202,-33.255 19.604,-78.027 -1.478,-110.731c-21.083,-32.704 -61.614,-51.732 -100.243,-47.062c-13.698,1.656 -19.16,-20.299 -9.521,-30.172c9.639,-9.872 25.141,-10.195 38.934,-9.862c47.705,1.153 95.411,2.305 143.116,3.458c23.545,0.569 55.047,-5.656 56.428,-29.168c2.535,-43.151 25.971,-83.012 56.769,-113.343c30.798,-30.33 68.672,-52.34 106.589,-73.094c4.881,-2.671 10.051,-5.4 15.613,-5.319m-616.317,264.224c-65.969,-5.516 -129.333,46.88 -143.98,111.439c-14.648,64.558 15.316,134.782 67.192,175.906c51.877,41.124 122.257,54.833 187.754,45.212c65.496,-9.621 126.381,-40.865 178.9,-81.166c12.068,-9.26 14.808,-27.059 10.334,-41.597c-4.474,-14.538 -14.719,-26.502 -25.071,-37.646c-57.286,-61.668 -126.222,-112.477 -202.083,-148.943c-23.157,-11.132 -47.441,-21.064 -73.046,-23.205m386.724,-2.469c-23.548,-3.197 -47.952,0.167 -69.757,9.617c33.553,21.074 41.377,67.211 35.734,106.43c-1.464,10.176 -3.094,22.057 4.108,29.394c15.86,-32.684 31.719,-65.369 47.578,-98.053c5.996,-12.357 11.628,-28.284 2.662,-38.689c-4.921,-5.712 -12.854,-7.685 -20.325,-8.699Z" style="fill:#413017;fill-rule:nonzero;"/><path d="M10868.2,3049.23c28.294,-18.734 47.535,-50.54 50.995,-84.298c25.755,23.322 9.805,66.782 -13.429,92.618c-15.065,16.752 -32.563,31.313 -51.773,43.084c-15.8,9.682 -34.53,17.68 -52.467,13.029c-13.59,-3.523 -24.494,-13.902 -32.224,-25.621c-21.907,-33.213 -20.654,-80.066 2.998,-112.059c-60.955,42.158 -121.911,84.316 -182.867,126.475c-10.791,7.463 -24.766,15.154 -36.178,8.682c17.912,-45.385 35.825,-90.769 53.737,-136.154c7.661,-19.411 15.456,-39.617 14.104,-60.442c-1.352,-20.824 -14.663,-42.441 -35.18,-46.254c-20.517,-3.813 -42.954,18.855 -33.894,37.653c14.425,29.93 2.817,65.512 -10.972,95.741c-17.212,37.732 -39.039,75.439 -73.842,97.993c-34.804,22.554 -85.543,25.129 -114.969,-4.096c-8.603,-8.545 -15.951,-19.876 -27.769,-22.588c-22.7,-5.211 -41.328,24.926 -64.434,22.005c-13.987,-1.768 -23.793,-15.872 -25.421,-29.876c-1.628,-14.003 3.001,-27.899 7.65,-41.208c33.787,-96.732 72.141,-191.869 114.89,-284.989c8.133,-17.716 -31.418,-29.961 -24.796,-48.296c2.123,-5.878 8.408,-8.97 14.13,-11.483c14.926,-6.556 30.974,-13.262 47.018,-10.373c16.044,2.889 30.515,19.9 24.416,35.018c-41.016,101.665 -82.032,203.33 -123.047,304.995c-5.055,12.528 -8.175,30.571 4.051,36.318c6.448,3.032 14.203,0.474 20.134,-3.475c25.088,-16.704 28.118,-51.404 38.448,-79.718c13.841,-37.938 44.035,-68.143 78.308,-89.503c34.272,-21.36 72.752,-34.848 110.876,-48.168c12.715,-4.443 25.552,4.923 37.447,11.242c11.895,6.319 30.653,7.361 34.985,-5.393c4.236,-12.469 24.527,-8.369 31.319,2.913c6.792,11.282 6.452,25.58 12.227,37.415c22.752,-21.236 51.647,-35.813 82.247,-41.493c18.713,-3.473 39.996,-2.99 54.278,9.591c14.282,12.58 14.56,40.369 -2.997,47.716c-8.935,3.739 -5.91,18.909 3.078,22.517c8.989,3.609 19.157,-0.745 27.215,-6.12c25.633,-17.097 42.843,-44.584 68.11,-62.217c25.267,-17.633 66.694,-20.426 81.578,6.552c11.235,20.366 0.61,46.56 -15.804,63.04c-23.292,23.385 -58.15,34.644 -90.721,29.302c-17.519,-2.873 -35.18,6.946 -46.497,20.624c-11.317,13.679 -17.51,30.766 -23.495,47.48c-3.177,8.871 -6.402,18.226 -4.85,27.52c2.443,14.634 16.845,25.231 31.598,26.799c14.753,1.568 29.419,-4.307 41.789,-12.498m-394.222,-41.047c19.133,-27.265 33.409,-61.013 25.81,-93.444c-1.501,-6.406 -4.331,-13.195 -10.227,-16.114c-8.197,-4.057 -18.476,1.733 -22.732,9.828c-4.256,8.096 -4.197,17.67 -4.428,26.813c-0.231,9.143 -1.066,18.88 -6.632,26.138c-3.677,4.795 -11.957,1.915 -14.934,-3.344c-2.976,-5.259 -2.761,-11.666 -4.137,-17.55c-1.375,-5.885 -5.737,-12.143 -11.768,-11.778c-21.849,24.36 -37.457,54.273 -44.94,86.129c-2.358,10.038 -3.882,20.786 -0.407,30.494c3.474,9.709 13.399,17.791 23.543,15.939c29.797,-5.442 53.452,-28.317 70.852,-53.111m269.738,-132.348c-4.216,-2.945 -9.956,-1.56 -14.868,-0.036c-23.377,7.25 -47.771,15.89 -63.642,34.522c-11.716,13.753 -17.511,31.628 -20.598,49.429c-3.641,20.998 -3.88,42.582 -0.706,63.655c23.362,-13.793 45.754,-29.231 66.954,-46.16c13.039,-10.413 26.038,-21.934 32.656,-37.251c6.71,-15.529 6.079,-33.107 5.332,-50.007c-0.23,-5.204 -0.857,-11.168 -5.128,-14.152m141.68,11.859c-2.386,2.512 -4.957,5.615 -4.276,9.012c1.085,5.414 8.581,5.882 14.038,5.036c5.447,-0.845 11.092,-1.765 15.66,-4.849c4.568,-3.084 7.726,-8.995 5.871,-14.185c-2.148,-6.012 -10.029,-8.236 -16.125,-6.342c-6.096,1.895 -10.771,6.7 -15.168,11.328m-107.776,56.796c3.494,-0.057 2.001,5.595 2.983,8.948c1.673,5.711 11.958,1.11 10.506,-4.661c-1.452,-5.77 -9.03,-7.75 -14.762,-6.151l1.273,1.864Z" style="fill:#413017;fill-rule:nonzero;"/><path d="M11993.1,2845.88c13.246,23.548 -2.976,53.784 -24.764,69.761c-23.427,17.18 -53.568,24.938 -82.378,21.203c-18.681,-2.422 -37.435,8.172 -48.419,23.476c-10.983,15.303 -15.152,34.571 -15.848,53.395c-0.743,20.072 5.759,44.586 25.229,49.518c11.863,3.005 24.273,-2.828 33.773,-10.543c16.609,-13.49 27.918,-33.34 31.053,-54.506c1.32,-8.914 1.383,-18.451 6.177,-26.082c4.793,-7.631 16.854,-11.552 22.759,-4.745c8.006,9.228 22.835,9.512 33.809,4.142c10.974,-5.369 19.077,-15.066 27.139,-24.245c25.634,-29.181 54.206,-55.779 85.146,-79.26c16.23,-12.318 34.147,-24.166 54.453,-25.845c19.094,-1.578 36.803,-10.088 54.996,-16.097c18.192,-6.009 38.778,-9.399 56.019,-1.043c17.24,8.357 27.473,32.474 15.759,47.635c-22.867,-8.543 -48.283,-4.153 -72.276,0.341c-7.46,1.397 -15.338,2.996 -20.943,8.113c-5.606,5.117 -7.554,15.018 -1.937,20.123c16.513,15.008 -26.651,47.105 -8.089,59.488c10.127,6.755 7.991,22.502 1.826,32.999c-6.165,10.497 -15.376,20.072 -16.338,32.207c-1.709,21.581 31.911,34.78 45.34,17.8c4.903,-6.2 6.636,-14.239 8.612,-21.893c24.807,-96.097 114.693,-171.662 213.623,-179.591c18.762,-1.503 28.714,-22.355 34.904,-40.131c4.859,-13.953 9.719,-27.906 14.578,-41.859c5.488,-15.76 7.892,-38.589 -7.859,-44.102c-12.309,-4.309 -3.772,-22.93 6.134,-31.411c13.103,-11.22 27.62,-23.019 44.857,-23.685c17.237,-0.666 35.507,16.611 28.806,32.506c-18.028,42.763 -36.056,85.525 -54.084,128.288c-2.378,5.642 -4.633,12.564 -0.976,17.474c2.435,3.268 6.718,4.439 10.678,5.403c24.151,5.881 57.657,6.973 65.318,-16.675c4.438,-13.699 27.492,-9.727 33.12,3.528c5.629,13.256 -0.118,28.331 -5.823,41.554c-16.081,37.269 -32.162,74.538 -48.243,111.807c-6.698,15.522 -13.501,31.489 -14.165,48.381c-0.664,16.893 6.168,35.172 20.956,43.364c-24.595,16.994 -57.235,21.739 -85.651,12.453c-7.393,-2.416 -15.09,-6.3 -18.22,-13.42c-3.129,-7.12 1.563,-17.538 9.327,-17.081c20.996,1.237 33.599,-22.331 40.788,-42.097c10.187,-28.006 20.373,-56.012 30.56,-84.018c6.202,-17.052 12.077,-37.277 1.837,-52.255c-11.871,-17.363 -39.692,-16.024 -56.071,-2.829c-16.379,13.195 -24.167,34.041 -31.239,53.849c-7.963,22.309 -15.927,44.617 -23.891,66.925c-8.35,23.391 -12.591,56.925 10.436,66.23c8.519,3.443 9.576,16.078 4.26,23.572c-5.316,7.493 -14.466,11.058 -23.089,14.231c-16.327,6.008 -32.655,12.015 -48.983,18.023c-6.813,2.507 -14.209,5.042 -21.176,3.004c-6.968,-2.038 -12.232,-10.906 -7.983,-16.792c17.915,-24.815 28.94,-54.55 31.535,-85.045c-14.689,15.213 -29.378,30.427 -44.066,45.64c-15,15.536 -30.605,31.491 -50.582,39.692c-19.978,8.201 -45.671,6.576 -59.913,-9.658c-24.911,-28.394 -79.158,-19.375 -93.541,15.552c-3.056,7.421 -15.577,4.604 -18.612,-2.826c-3.035,-7.43 0.028,-15.792 2.846,-23.307c2.818,-7.514 5.328,-16.241 1.401,-23.24c-5.853,-10.43 -22.011,-9.324 -31.57,-2.136c-9.559,7.188 -15.377,18.287 -24.089,26.482c-19.837,18.659 -53.588,18.289 -74.963,1.412c-21.376,-16.876 -29.879,-47.233 -23.458,-73.7c-15.763,28.629 -32.405,58.261 -59.108,77.102c-26.704,18.84 -66.584,23.31 -90.613,1.159c-26.449,-24.38 -22.311,-67.333 -10.006,-101.134c21.567,-59.239 62.123,-111.4 114.219,-146.901c15.036,-10.246 31.609,-19.336 49.724,-21.045c18.115,-1.709 38.048,5.507 46.969,21.365m300.933,191.388c21.028,-21.542 40.742,-44.366 58.997,-68.304c10.478,-13.739 20.984,-29.7 18.789,-46.839c-2.268,-17.713 -24.175,-32.01 -38.957,-21.991c-43.826,29.705 -86.225,70.124 -93.296,122.594c-1.348,9.998 -0.823,21.473 6.574,28.333c6.779,6.288 17.534,6.55 26.077,3.013c8.543,-3.536 15.357,-10.189 21.816,-16.806m-182.197,-130.193c-12.475,-6.883 -27.49,2.155 -38.64,11.025c-32.131,25.562 -64.017,54.699 -77.742,93.394c-4.365,12.305 -5.841,28.14 4.225,36.455c8.994,7.429 22.673,4.75 32.917,-0.832c14.472,-7.886 25.804,-20.4 36.365,-33.054c14.503,-17.379 28.129,-35.489 40.809,-54.24c5.579,-8.251 11.104,-16.951 12.662,-26.788c1.559,-9.838 -1.875,-21.148 -10.596,-25.96m-174.334,-32.308c-15.065,-2.463 -31.083,1.602 -43.151,10.951c-1.454,1.126 -2.949,2.493 -3.203,4.315c-0.442,3.168 2.958,5.431 5.957,6.543c15.448,5.729 33.695,3.197 47,-6.521c1.795,-1.312 3.596,-2.881 4.189,-5.023c1.5,-5.423 -5.239,-9.357 -10.792,-10.265m479.369,3.436c-4.132,-6.409 -14.185,-7.332 -20.132,-2.559c-5.947,4.772 -7.539,13.76 -4.672,20.826c2.098,5.17 6.332,9.435 11.486,11.572c9.423,-7.452 19.827,-19.743 13.318,-29.839l-0,-0Z" style="fill:#413017;fill-rule:nonzero;"/><path d="M13031.3,2975.34c-5.566,41.944 -11.217,84.246 -25.347,124.128c-30.07,84.879 -99.79,154.759 -184.6,185.022c-15.764,5.625 -32.624,9.986 -49.127,7.202c-16.504,-2.783 -32.494,-14.329 -35.887,-30.719c-3.392,-16.389 10.424,-35.408 27.052,-33.497c13.114,1.507 22.175,13.786 34.268,19.08c19.44,8.509 41.719,-2.535 58.637,-15.345c54.437,-41.221 91.306,-104.91 99.944,-172.645c-19.584,14.11 -39.592,28.437 -62.582,35.791c-22.989,7.354 -49.879,6.708 -69.317,-7.602c-29.323,-21.586 -76.508,-11.848 -94.89,19.583c-7.094,12.129 -28.065,5.132 -32.382,-8.24c-4.318,-13.372 1.995,-27.619 8.163,-40.245c25.965,-53.154 51.93,-106.309 77.895,-159.463c-54.924,-0.028 -92.673,53.262 -120.553,100.584c-16.192,27.484 -32.384,54.968 -48.577,82.452c-6.89,11.695 -14.979,24.354 -28.025,28.102c-13.046,3.748 -30.007,-9.01 -24.405,-21.374c27.327,-60.317 54.654,-120.633 81.981,-180.949c5.506,-12.155 7.331,-31.83 -5.873,-33.753c-6.831,-0.995 -9.815,-10.068 -7.21,-16.461c2.605,-6.393 8.705,-10.554 14.482,-14.333c12.509,-8.185 25.98,-16.67 40.929,-16.612c14.948,0.057 30.767,12.836 28.049,27.536c-2.03,10.977 -13.315,21.599 -7.825,31.318c24.238,-2.692 47.56,-13.109 65.74,-29.364c9.232,-8.256 17.394,-18.124 28.499,-23.609c11.105,-5.484 26.68,-4.862 33.555,5.441c5.864,8.788 3.192,20.514 0.046,30.601c-13.553,43.466 -32.07,85.382 -55.075,124.672c-10.232,17.476 -20.353,42.406 -4.745,55.31c11.742,9.708 30.597,3.4 40.16,-8.461c9.563,-11.861 12.78,-27.416 17.624,-41.861c15.587,-46.475 50.284,-84.856 91.042,-112.089c40.757,-27.234 87.464,-44.235 134.544,-57.882c20.05,-5.811 42.939,-10.726 60.731,0.192c17.792,10.917 19.037,44.448 -1.398,48.71c-7.005,1.462 -14.15,-0.927 -21.129,-2.509c-27.657,-6.271 -58.018,0.721 -80.147,18.459c21.736,19.657 19.609,53.779 15.753,82.83m-162.581,80.089c6.463,5.303 15.504,6.417 23.792,5.313c26.444,-3.524 45.974,-26.118 60.116,-48.74c16.668,-26.663 29.628,-55.64 38.393,-85.837c1.623,-5.593 3.043,-11.87 0.318,-17.016c-5.656,-10.679 -21.844,-6.743 -32.234,-0.572c-38.749,23.013 -70.741,57.255 -91.071,97.477c-8.049,15.924 -13.107,38.056 0.686,49.375l0,-0Z" style="fill:#413017;fill-rule:nonzero;"/><path d="M9557.37,3057.07c13.107,17.527 41.503,16.099 58.956,2.892c17.453,-13.206 26.651,-34.343 35.125,-54.523c30.795,-73.336 61.591,-146.673 92.386,-220.01c6.594,-15.703 13.295,-31.9 13.49,-48.93c0.195,-17.03 -7.696,-35.307 -23.22,-42.312c11.134,-9.66 22.66,-19.549 36.646,-24.202c13.986,-4.652 31.208,-2.804 40.832,8.36c12.989,15.067 6.827,38.059 -0.008,56.741c-19.939,54.503 -39.879,109.005 -59.818,163.508c20.592,-15.894 41.184,-31.788 61.775,-47.682c13.398,-10.34 28.108,-21.16 45.031,-21.35c16.923,-0.191 34.61,16.346 28.708,32.207c-18.573,49.917 -37.147,99.833 -55.72,149.75c-5.275,14.177 -8.745,33.833 4.456,41.217c6.78,-6.48 19.505,-4.68 24.221,3.427c-14.288,18.535 -31.122,35.105 -49.881,49.099c-7.283,5.433 -16.014,10.728 -24.888,8.776c-12.418,-2.732 -17.553,-17.668 -18.278,-30.362c-3.266,-57.194 36.579,-106.789 55.025,-161.025c1.855,-5.452 3.484,-11.495 1.359,-16.847c-3.419,-8.608 -15.323,-10.969 -23.795,-7.225c-8.472,3.745 -14.246,11.632 -19.615,19.18c-37.133,52.205 -74.267,104.409 -111.401,156.614c-13.011,18.292 -37.16,38.507 -54.47,24.215c-12.251,-10.116 -29.449,2.216 -44.157,8.227c-27.657,11.304 -63.255,-5.93 -71.541,-34.636c-7.317,-25.345 4.69,-51.825 16.392,-75.467c19.354,-39.101 38.708,-78.201 58.061,-117.302c5.253,-10.611 10.125,-24.523 2.08,-33.21c-7.759,-8.379 -23.306,-6.208 -29.838,-15.575c-7.554,-10.831 4.677,-25.405 17.401,-28.939c12.723,-3.534 27.116,-2.056 38.264,-9.134c11.006,-6.987 15.808,-20.377 24.066,-30.465c8.257,-10.088 25.495,-16.14 33.444,-5.807c6.046,7.859 2.116,18.995 1.104,28.859c-1.011,9.863 6.337,22.982 15.459,19.095c11.974,-5.103 20.47,15.413 12.635,25.807c-7.835,10.395 -21.92,13.272 -33.305,19.581c-19.21,10.647 -30.537,31.068 -40.868,50.448c-16.113,30.229 -32.227,60.457 -48.34,90.685c-11.088,20.801 -21.889,47.438 -7.773,66.315Z" style="fill:#413017;fill-rule:nonzero;"/><path d="M11404.2,2813.78c25.327,-15.179 39.075,-43.409 56.095,-67.537c24.78,-35.128 58.889,-63.61 97.874,-81.728c18.052,-8.389 38.694,-14.63 57.679,-8.643c18.984,5.987 33.461,28.71 24.386,46.427c-9.613,18.764 -19.225,37.528 -28.837,56.292c-7.626,0.227 -12.391,-8.622 -12.588,-16.249c-0.196,-7.627 2.225,-15.353 0.549,-22.796c-3.085,-13.71 -19.546,-20.958 -33.382,-18.503c-13.836,2.455 -25.286,11.945 -35.378,21.723c-17.376,16.834 -32.883,35.595 -46.146,55.828c-5.424,8.275 -10.676,17.752 -9.062,27.514c3.434,20.77 35.363,30.673 32.78,51.566c-29.731,-0.32 -58.56,20.017 -68.232,48.131c-31.853,92.586 -70.817,182.724 -116.436,269.359c-23.633,44.882 -52.241,91.752 -99.01,111.387c-14.249,5.982 -30.528,9.064 -45.152,4.067c-14.623,-4.997 -26.53,-19.868 -24.255,-35.153c2.276,-15.286 22.181,-26.125 34.678,-17.033c12.401,9.021 30.289,6.978 43.355,-1.051c13.066,-8.03 22.289,-20.923 30.694,-33.75c53.321,-81.37 87.98,-173.276 122.216,-264.338c11.688,-31.086 21.934,-70.221 -1.14,-94.108c-9.948,-10.299 7.03,-24.045 19.312,-31.405l0,-0Z" style="fill:#413017;fill-rule:nonzero;"/><path d="M11187.1,2874.22c18.972,-9.327 40.735,-13.006 58.054,-25.128c20.725,-14.506 57.096,1.337 70.46,-20.143c9.243,-14.856 35.627,-10.287 41.972,6.019c6.345,16.306 -5.936,35.927 -22.782,40.657c-3.6,1.011 -7.483,1.544 -10.484,3.776c-7.962,5.924 -4.557,18.206 -1.949,27.781c7.374,27.071 1.235,56.53 -11.917,81.313c-13.152,24.783 -32.828,45.476 -53.554,64.386c-25.657,23.411 -55.1,45.405 -89.521,50.044c-34.421,4.64 -74.104,-14.053 -82.002,-47.876c-5.5,-23.553 4.96,-47.581 15.168,-69.508c20.249,-43.495 43.499,-90.155 86.555,-111.321m-4.056,179.328c38.764,-14.827 66.076,-50.366 83.906,-87.843c4.894,-10.286 9.312,-21.902 6.064,-32.819c-3.249,-10.917 -17.833,-18.609 -26.519,-11.241c-2.531,2.148 -4.143,5.157 -5.696,8.091c-6.646,12.556 -13.291,25.112 -19.937,37.669c-2.622,4.953 -10.937,3.033 -13.545,-1.927c-2.608,-4.961 -1.474,-10.951 -0.667,-16.497c0.806,-5.546 0.963,-11.913 -2.936,-15.939c-4.687,-4.838 -13.214,-3.588 -18.288,0.841c-5.075,4.429 -7.555,11.049 -9.846,17.383c-5.985,16.556 -11.971,33.112 -17.957,49.668c-2.469,6.827 -4.937,13.654 -7.405,20.481c-3.204,8.862 -6.277,19.245 -1.249,27.215c6.651,10.542 22.432,9.372 34.075,4.918l-0,0Z" style="fill:#413017;fill-rule:nonzero;"/><path d="M9128.03,2853.62c14.697,-14.521 35.512,-22.641 56.16,-21.907c2.368,0.085 4.823,0.306 6.875,1.491c4.845,2.797 5.451,9.555 4.55,15.078c-2.363,14.49 -11.413,27.751 -24.045,35.234c-5.129,3.037 -4.596,10.991 -1.132,15.842c3.464,4.851 8.864,7.963 12.765,12.47c14.833,17.133 2.353,43.326 -10.335,62.103c-32.486,48.076 -67.785,98.554 -121.009,121.661c-13.791,5.987 -29.35,9.943 -43.82,5.86c-15.211,-4.291 -27.019,-17.149 -32.92,-31.81c-5.902,-14.662 -6.53,-30.957 -5.014,-46.689c6.894,-71.579 60.495,-136.406 129.504,-156.627c10.073,-2.951 20.954,-5.328 28.421,-12.706m-68.617,200.815c38.487,-31.174 76.561,-70.173 81.472,-119.458c0.722,-7.253 0.473,-15.241 -4.137,-20.888c-4.609,-5.647 -14.966,-6.705 -18.586,-0.378c-4.984,8.71 -10.769,18.099 -20.287,21.279c-9.517,3.18 -22.516,-4.943 -19.622,-14.551c0.882,-2.927 -2.384,-5.764 -5.439,-5.655c-3.055,0.11 -5.673,2.124 -7.993,4.115c-31.774,27.259 -51.479,68.108 -53.037,109.944c-0.559,15.02 4.024,33.669 18.682,36.994c10.488,2.379 20.59,-4.634 28.947,-11.402Z" style="fill:#413017;fill-rule:nonzero;"/><path d="M9958.84,2948.2c-5.631,-0.52 -9.12,5.833 -11.068,11.143c-7.124,19.421 -14.247,38.841 -21.371,58.262c-2.593,7.068 -5.201,14.854 -2.67,21.944c4.792,13.426 23.79,14.589 37.068,9.4c35.864,-14.018 54.855,-52.032 78.81,-82.18c1.599,-2.013 3.314,-4.065 5.648,-5.145c5.112,-2.364 11.449,1.048 14.069,6.033c2.62,4.986 2.399,10.957 1.644,16.538c-4.973,36.755 -29.852,68.052 -58.691,91.374c-17.028,13.771 -36.537,25.768 -58.28,28.387c-21.743,2.619 -45.971,-6.162 -56.357,-25.442c-8.803,-16.344 -6.301,-36.264 -2.709,-54.477c8.949,-45.376 23.625,-90.523 50.863,-127.901c27.239,-37.379 68.422,-66.343 114.43,-71.076c16.199,-1.666 33.683,0.024 46.671,9.847c12.989,9.823 19.261,29.613 10.144,43.107c-32.106,47.521 -91.093,75.457 -148.201,70.186m44.065,-49.942c4.701,7.776 16.574,4.214 24.498,-0.234c6.266,-3.518 13.415,-11.142 8.667,-16.535c-2.342,-2.66 -6.382,-2.758 -9.924,-2.653c-6.154,0.183 -12.627,0.458 -17.872,3.68c-5.245,3.223 -8.554,10.473 -5.369,15.742l-0,-0Z" style="fill:#413017;fill-rule:nonzero;"/><path d="M9367.37,2815.74c9.819,-12.36 31.841,-4.346 37.885,10.236c6.043,14.582 1.43,31.159 -3.228,46.241c-1.782,5.77 -4.703,12.553 -10.692,13.326c-3.178,0.411 -6.241,-1.104 -9.23,-2.261c-18.337,-7.097 -39.499,-1.114 -55.948,9.66c-35.537,23.278 -53.412,65.072 -69.358,104.448c-11.89,29.362 -23.78,58.724 -35.671,88.086c-6.65,16.422 -19.204,36.155 -36.446,32.077c-10.771,-2.548 -17.232,-14.387 -17.338,-25.455c-0.105,-11.068 4.639,-21.534 9.288,-31.579c18.035,-38.967 36.07,-77.933 54.104,-116.9c5.797,-12.525 11.509,-27.632 4.343,-39.427c-2.887,-4.751 -7.643,-8.375 -9.502,-13.614c-3.073,-8.655 2.817,-17.747 8.761,-24.748c9.184,-10.816 20.069,-21.305 33.894,-24.497c13.826,-3.192 30.846,3.863 33.897,17.72c25.555,-7.147 48.735,-22.536 65.241,-43.313Z" style="fill:#413017;fill-rule:nonzero;"/><path d="M11765.7,2878.43c-27.838,23.345 -46.083,56.01 -61.565,88.878c-12.426,26.382 -23.483,53.407 -33.114,80.933c-5.472,15.641 -10.593,31.669 -19.846,45.417c-9.253,13.747 -23.493,25.171 -39.992,26.711c-6.455,0.602 -13.542,-0.58 -18.056,-5.233c-4.514,-4.654 -4.907,-13.412 0.447,-17.068c28.414,-19.403 43.029,-53.048 55.201,-85.23c16.921,-44.735 31.067,-98.002 4.54,-137.8c-3.41,-5.115 -7.607,-11.28 -4.988,-16.841c1.484,-3.149 4.772,-4.97 7.857,-6.584c15.965,-8.356 33.052,-16.954 51.007,-15.432c17.955,1.523 35.855,17.795 32.025,35.402c8.759,-7.876 17.518,-15.753 26.277,-23.63c13.897,-12.496 33.937,-25.651 49.547,-15.375c8.862,5.834 12.071,18.82 6.947,28.111c-5.124,9.29 -17.82,13.504 -27.482,9.121c-9.647,-4.377 -20.688,1.814 -28.805,8.62l0,0Z" style="fill:#413017;fill-rule:nonzero;"/><path d="M13222.5,3240.51c-0.929,-4.643 7.863,-7.757 7.962,-3.023c-0.982,3.201 -5.342,4.786 -8.151,2.965l0.189,0.058Z" style="fill:#413017;fill-rule:nonzero;"/><path d="M12629.4,2754.32c8.473,15.056 -5.628,37.007 -22.844,35.561c-16.349,-1.372 -26.989,-22.954 -18.121,-36.759c8.867,-13.804 32.919,-13.101 40.965,1.198Z" style="fill:#413017;fill-rule:nonzero;"/></g></g></g></svg>